<svg xmlns="http://www.w3.org/2000/svg" xmlns:xlink="http://www.w3.org/1999/xlink" contentStyleType="text/css" data-diagram-type="ACTIVITY" height="2655px" preserveAspectRatio="none" style="width:1482px;height:2655px;background:#FFFFFF;" version="1.1" viewBox="0 0 1482 2655" width="1482px" zoomAndPan="magnify"><title>&lt;font size=24 color="#1565C0"&gt;&lt;b&gt;ORDER STATE MACHINE AMBIGUITY&lt;/b&gt;&lt;/font&gt;
&lt;font size=14 color="#1976D2"&gt;Two Parallel Workflows Creating Confusion&lt;/font&gt;</title><defs/><g><g class="title" data-source-line="2"><text fill="#1565C0" font-family="Verdana" font-size="24" font-weight="bold" lengthAdjust="spacing" textLength="480.8555" x="499.1731" y="37.2773">ORDER STATE MACHINE AMBIGUITY</text><text fill="#1976D2" font-family="Verdana" font-size="14" font-weight="bold" lengthAdjust="spacing" textLength="340.833" x="569.1843" y="55.9326">Two Parallel Workflows Creating Confusion</text></g><rect fill="#FFFFFF" height="20.9531" style="stroke:#FFFFFF;stroke-width:1;" width="1459.2017" x="10" y="72.9795"/><line style="stroke:#000000;stroke-width:1;" x1="10" x2="10" y1="72.9795" y2="2395.3701"/><line style="stroke:#000000;stroke-width:1;" x1="313.9063" x2="313.9063" y1="72.9795" y2="2395.3701"/><ellipse cx="724.1201" cy="108.9326" fill="#FFFFFF" rx="10" ry="10" style="stroke:#000000;stroke-width:1;"/><rect fill="#FFFFFF" height="33.9688" rx="12.5" ry="12.5" style="stroke:#000000;stroke-width:1;" width="140.6738" x="653.7832" y="138.9326"/><text fill="#000000" font-family="Verdana" font-size="12" lengthAdjust="spacing" textLength="120.6738" x="663.7832" y="160.0713">Customer clicks Pay</text><rect fill="#FFFFFF" height="33.9688" rx="12.5" ry="12.5" style="stroke:#000000;stroke-width:1;" width="303.0781" x="572.5811" y="192.9014"/><text fill="#000000" font-family="Verdana" font-size="12" lengthAdjust="spacing" textLength="283.0781" x="582.5811" y="214.04">StripeOrderController.createCheckoutSession()</text><rect fill="#FFFFFF" height="33.9688" rx="12.5" ry="12.5" style="stroke:#000000;stroke-width:1;" width="298.1211" x="575.0596" y="246.8701"/><text fill="#000000" font-family="Verdana" font-size="12" lengthAdjust="spacing" textLength="278.1211" x="585.0596" y="268.0088">Dispatch StripeCheckoutSessionRequestEvent</text><rect fill="#FFFFFF" height="47.9375" rx="12.5" ry="12.5" style="stroke:#000000;stroke-width:1;" width="205.4961" x="621.3721" y="300.8389"/><text fill="#000000" font-family="Verdana" font-size="12" lengthAdjust="spacing" textLength="185.4961" x="631.3721" y="321.9775">StripeContractCreationHandler</text><text fill="#000000" font-family="Verdana" font-size="12" font-weight="bold" lengthAdjust="spacing" textLength="174.3691" x="631.3721" y="335.9463">Creates Contract (DRAFT)</text><rect fill="#C8E6C9" height="47.9375" rx="12.5" ry="12.5" style="stroke:#000000;stroke-width:1;" width="155.4863" x="646.377" y="368.7764"/><text fill="#000000" font-family="Verdana" font-size="12" lengthAdjust="spacing" textLength="135.4863" x="656.377" y="389.915">osc_payment_contract</text><text fill="#000000" font-family="Verdana" font-size="12" lengthAdjust="spacing" textLength="88.1016" x="656.377" y="403.8838">state = DRAFT</text><rect fill="#FFFFFF" height="47.9375" rx="12.5" ry="12.5" style="stroke:#000000;stroke-width:1;" width="205.1914" x="621.5244" y="436.7139"/><text fill="#000000" font-family="Verdana" font-size="12" lengthAdjust="spacing" textLength="185.1914" x="631.5244" y="457.8525">StripeCheckoutSessionHandler</text><text fill="#000000" font-family="Verdana" font-size="12" font-weight="bold" lengthAdjust="spacing" textLength="135.6328" x="631.5244" y="471.8213">Stores provider info</text><rect fill="#C8E6C9" height="47.9375" rx="12.5" ry="12.5" style="stroke:#000000;stroke-width:1;" width="217.8535" x="615.1934" y="504.6514"/><text fill="#000000" font-family="Verdana" font-size="12" lengthAdjust="spacing" textLength="135.4863" x="625.1934" y="525.79">osc_payment_contract</text><text fill="#000000" font-family="Verdana" font-size="12" lengthAdjust="spacing" textLength="197.8535" x="625.1934" y="539.7588">OXPROVIDERORDERID = 'pi_xxx'</text><rect fill="#FFFFFF" height="33.9688" rx="12.5" ry="12.5" style="stroke:#000000;stroke-width:1;" width="185.9375" x="631.1514" y="572.5889"/><text fill="#000000" font-family="Verdana" font-size="12" lengthAdjust="spacing" textLength="165.9375" x="641.1514" y="593.7275">Redirect to Stripe Checkout</text><rect fill="#FFFFFF" height="33.9688" rx="12.5" ry="12.5" style="stroke:#000000;stroke-width:1;" width="168.5938" x="639.8232" y="626.5576"/><text fill="#000000" font-family="Verdana" font-size="12" lengthAdjust="spacing" textLength="148.5938" x="649.8232" y="647.6963">Customer pays on Stripe</text><rect fill="#FFFFFF" height="33.9688" rx="12.5" ry="12.5" style="stroke:#000000;stroke-width:1;" width="109.0625" x="669.5889" y="680.5264"/><text fill="#000000" font-family="Verdana" font-size="12" lengthAdjust="spacing" textLength="89.0625" x="679.5889" y="701.665">Return to shop</text><rect fill="#FFFFFF" height="47.9375" rx="12.5" ry="12.5" style="stroke:#000000;stroke-width:1;" width="199.9766" x="624.1318" y="734.4951"/><text fill="#000000" font-family="Verdana" font-size="12" lengthAdjust="spacing" textLength="179.9766" x="634.1318" y="755.6338">StripeCheckoutReturnHandler</text><text fill="#000000" font-family="Verdana" font-size="12" font-weight="bold" lengthAdjust="spacing" textLength="126.9258" x="634.1318" y="769.6025">Validates payment</text><rect fill="#FFFFFF" height="47.9375" rx="12.5" ry="12.5" style="stroke:#000000;stroke-width:1;" width="219.7344" x="614.2529" y="802.4326"/><text fill="#000000" font-family="Verdana" font-size="12" lengthAdjust="spacing" textLength="199.7344" x="624.2529" y="823.5713">PaymentAuthorizedEventHandler</text><text fill="#000000" font-family="Verdana" font-size="12" font-weight="bold" lengthAdjust="spacing" textLength="159.4688" x="624.2529" y="837.54">Transitions to PENDING</text><rect fill="#C8E6C9" height="47.9375" rx="12.5" ry="12.5" style="stroke:#000000;stroke-width:1;" width="155.4863" x="646.377" y="870.3701"/><text fill="#000000" font-family="Verdana" font-size="12" lengthAdjust="spacing" textLength="135.4863" x="656.377" y="891.5088">osc_payment_contract</text><text fill="#000000" font-family="Verdana" font-size="12" lengthAdjust="spacing" textLength="102.9316" x="656.377" y="905.4775">state = PENDING</text><rect fill="#FFFFFF" height="47.9375" rx="12.5" ry="12.5" style="stroke:#000000;stroke-width:1;" width="246.248" x="600.9961" y="938.3076"/><text fill="#000000" font-family="Verdana" font-size="12" lengthAdjust="spacing" textLength="226.248" x="610.9961" y="959.4463">fulfillCondition('payment_authorized')</text><text fill="#000000" font-family="Verdana" font-size="12" font-weight="bold" lengthAdjust="spacing" textLength="122.6309" x="610.9961" y="973.415">All conditions met</text><rect fill="#C8E6C9" height="47.9375" rx="12.5" ry="12.5" style="stroke:#000000;stroke-width:1;" width="186.957" x="630.6416" y="1006.2451"/><text fill="#000000" font-family="Verdana" font-size="12" lengthAdjust="spacing" textLength="135.4863" x="640.6416" y="1027.3838">osc_payment_contract</text><text fill="#000000" font-family="Verdana" font-size="12" lengthAdjust="spacing" textLength="166.957" x="640.6416" y="1041.3525">state = READY_TO_COMMIT</text><rect fill="#FFFFFF" height="47.9375" rx="12.5" ry="12.5" style="stroke:#000000;stroke-width:1;" width="188.1875" x="630.0264" y="1074.1826"/><text fill="#000000" font-family="Verdana" font-size="12" lengthAdjust="spacing" textLength="168.1875" x="640.0264" y="1095.3213">StripeOrderCreationHandler</text><text fill="#000000" font-family="Verdana" font-size="12" font-weight="bold" lengthAdjust="spacing" textLength="132.9785" x="640.0264" y="1109.29">Creates OXID Order</text><rect fill="#FFF3E0" height="47.9375" rx="12.5" ry="12.5" style="stroke:#000000;stroke-width:1;" width="153.4531" x="647.3936" y="1142.1201"/><text fill="#000000" font-family="Verdana" font-size="12" lengthAdjust="spacing" textLength="46.6523" x="657.3936" y="1163.2588">oxorder</text><text fill="#000000" font-family="Verdana" font-size="12" lengthAdjust="spacing" textLength="133.4531" x="657.3936" y="1177.2275">OXTRANSID = 'pi_xxx'</text><rect fill="#C8E6C9" height="61.9063" rx="12.5" ry="12.5" style="stroke:#000000;stroke-width:1;" width="172.7832" x="637.7285" y="1210.0576"/><text fill="#000000" font-family="Verdana" font-size="12" lengthAdjust="spacing" textLength="135.4863" x="647.7285" y="1231.1963">osc_payment_contract</text><text fill="#000000" font-family="Verdana" font-size="12" lengthAdjust="spacing" textLength="121.6348" x="647.7285" y="1245.165">state = COMMITTED</text><text fill="#000000" font-family="Verdana" font-size="12" lengthAdjust="spacing" textLength="152.7832" x="647.7285" y="1259.1338">OXORDERID = 'order123'</text><path d="M849.0742,1281.9639 L849.0742,1305.6631 L829.0742,1309.6631 L849.0742,1313.6631 L849.0742,1337.3623 A0,0 0 0 0 849.0742,1337.3623 L1173.4033,1337.3623 A0,0 0 0 0 1173.4033,1337.3623 L1173.4033,1291.9639 L1163.4033,1281.9639 L849.0742,1281.9639 A0,0 0 0 0 849.0742,1281.9639" fill="#FFFFFF" style="stroke:#000000;stroke-width:1;"/><path d="M1163.4033,1281.9639 L1163.4033,1291.9639 L1173.4033,1291.9639 L1163.4033,1281.9639" fill="#FFFFFF" style="stroke:#000000;stroke-width:1;"/><text fill="#2E7D32" font-family="Verdana" font-size="13" font-weight="bold" lengthAdjust="spacing" textLength="205.3848" x="855.0742" y="1299.0308">Contract State: COMMITTED</text><text fill="#000000" font-family="Verdana" font-size="13" lengthAdjust="spacing" textLength="303.3291" x="855.0742" y="1314.1636">Order created, awaiting payment confirmation</text><text fill="#000000" font-family="Verdana" font-size="13" lengthAdjust="spacing" textLength="158.1836" x="855.0742" y="1329.2964">Contract knows order ID</text><rect fill="#FFFFFF" height="33.9688" rx="12.5" ry="12.5" style="stroke:#000000;stroke-width:1;" width="209.9082" x="619.166" y="1292.6787"/><text fill="#000000" font-family="Verdana" font-size="12" lengthAdjust="spacing" textLength="189.9082" x="629.166" y="1313.8174">Customer sees Thank You page</text><path d="M755.1201,2188.6436 L755.1201,2288.0068 L735.1201,2292.0068 L755.1201,2296.0068 L755.1201,2395.3701 A0,0 0 0 0 755.1201,2395.3701 L1030.3057,2395.3701 A0,0 0 0 0 1030.3057,2395.3701 L1030.3057,2198.6436 L1020.3057,2188.6436 L755.1201,2188.6436 A0,0 0 0 0 755.1201,2188.6436" fill="#FFFFFF" style="stroke:#000000;stroke-width:1;"/><path d="M1020.3057,2188.6436 L1020.3057,2198.6436 L1030.3057,2198.6436 L1020.3057,2188.6436" fill="#FFFFFF" style="stroke:#000000;stroke-width:1;"/><text fill="#C62828" font-family="Verdana" font-size="13" font-weight="bold" lengthAdjust="spacing" textLength="76.5273" x="761.1201" y="2205.7104">PROBLEM!</text><text fill="#000000" font-family="Verdana" font-size="13" lengthAdjust="spacing" textLength="235.4536" x="761.1201" y="2220.8433">Contract state: COMMITTED (stuck!)</text><text fill="#000000" font-family="Verdana" font-size="13" lengthAdjust="spacing" textLength="215.8203" x="761.1201" y="2235.9761">Order state: paid (via direct SQL)</text><text fill="#000000" font-family="Verdana" font-size="13" lengthAdjust="spacing" textLength="4.1323" x="761.1201" y="2251.1089">&#160;</text><text fill="#000000" font-family="Verdana" font-size="13" font-weight="bold" lengthAdjust="spacing" textLength="119.7295" x="761.1201" y="2266.2417">State Mismatch:</text><text fill="#000000" font-family="Verdana" font-size="13" lengthAdjust="spacing" textLength="254.1855" x="761.1201" y="2281.3745">- Contract thinks: "awaiting fulfillment"</text><text fill="#000000" font-family="Verdana" font-size="13" lengthAdjust="spacing" textLength="138.1694" x="761.1201" y="2296.5073">- Order thinks: "paid"</text><text fill="#000000" font-family="Verdana" font-size="13" lengthAdjust="spacing" textLength="224.4849" x="761.1201" y="2311.6401">- osc_payment_order_state: "paid"</text><text fill="#000000" font-family="Verdana" font-size="13" lengthAdjust="spacing" textLength="4.1323" x="761.1201" y="2326.7729">&#160;</text><text fill="#000000" font-family="Verdana" font-size="13" font-weight="bold" lengthAdjust="spacing" textLength="194.689" x="761.1201" y="2341.9058">No ContractFulfilledEvent!</text><text fill="#000000" font-family="Verdana" font-size="13" lengthAdjust="spacing" textLength="147.7227" x="761.1201" y="2357.0386">- Subscribers don't fire</text><text fill="#000000" font-family="Verdana" font-size="13" lengthAdjust="spacing" textLength="149.3857" x="761.1201" y="2372.1714">- Audit trail incomplete</text><text fill="#000000" font-family="Verdana" font-size="13" lengthAdjust="spacing" textLength="152.6802" x="761.1201" y="2387.3042">- State machine broken</text><line style="stroke:#000000;stroke-width:1;" x1="566.5811" x2="566.5811" y1="72.9795" y2="2395.3701"/><rect fill="#FFFFFF" height="47.9375" rx="12.5" ry="12.5" style="stroke:#000000;stroke-width:1;" width="183.043" x="1232.3506" y="1357.3623"/><text fill="#000000" font-family="Verdana" font-size="12" lengthAdjust="spacing" textLength="132.3809" x="1242.3506" y="1378.501">Stripe sends webhook</text><text fill="#000000" font-family="Verdana" font-size="12" lengthAdjust="spacing" textLength="163.043" x="1242.3506" y="1392.4697">payment_intent.succeeded</text><rect fill="#FFFFFF" height="33.9688" rx="12.5" ry="12.5" style="stroke:#000000;stroke-width:1;" width="189.5762" x="1229.084" y="1425.2998"/><text fill="#000000" font-family="Verdana" font-size="12" lengthAdjust="spacing" textLength="169.5762" x="1239.084" y="1446.4385">WebhookController receives</text><rect fill="#FFFFFF" height="33.9688" rx="12.5" ry="12.5" style="stroke:#000000;stroke-width:1;" width="278.9375" x="1184.4033" y="1479.2686"/><text fill="#000000" font-family="Verdana" font-size="12" lengthAdjust="spacing" textLength="258.9375" x="1194.4033" y="1500.4072">WebhookProcessingService.processEvent()</text><rect fill="#FFCDD2" height="33.9688" rx="12.5" ry="12.5" style="stroke:#000000;stroke-width:1;" width="187.8477" x="1229.9482" y="1533.2373"/><text fill="#000000" font-family="Verdana" font-size="12" lengthAdjust="spacing" textLength="167.8477" x="1239.9482" y="1554.376">Does NOT look up Contract!</text><rect fill="#FFFFFF" height="47.9375" rx="12.5" ry="12.5" style="stroke:#000000;stroke-width:1;" width="201.5645" x="1223.0898" y="1587.2061"/><text fill="#000000" font-family="Verdana" font-size="12" lengthAdjust="spacing" textLength="181.5645" x="1233.0898" y="1608.3447">findOrderByPaymentIntentId()</text><text fill="#000000" font-family="Verdana" font-size="12" font-weight="bold" lengthAdjust="spacing" textLength="114.1582" x="1233.0898" y="1622.3135">Direct DB lookup</text><rect fill="#FFF3E0" height="47.9375" rx="12.5" ry="12.5" style="stroke:#000000;stroke-width:1;" width="201.6582" x="1223.043" y="1655.1436"/><text fill="#000000" font-family="Verdana" font-size="12" lengthAdjust="spacing" textLength="134.4961" x="1233.043" y="1676.2822">SELECT FROM oxorder</text><text fill="#000000" font-family="Verdana" font-size="12" lengthAdjust="spacing" textLength="181.6582" x="1233.043" y="1690.251">WHERE OXTRANSID = 'pi_xxx'</text><rect fill="#FFFFFF" height="47.9375" rx="12.5" ry="12.5" style="stroke:#000000;stroke-width:1;" width="190.7949" x="1228.4746" y="1723.0811"/><text fill="#000000" font-family="Verdana" font-size="12" lengthAdjust="spacing" textLength="170.7949" x="1238.4746" y="1744.2197">updateOrderPaymentState()</text><text fill="#000000" font-family="Verdana" font-size="12" font-weight="bold" lengthAdjust="spacing" textLength="71.6484" x="1238.4746" y="1758.1885">Direct SQL</text><rect fill="#FFEBEE" height="47.9375" rx="12.5" ry="12.5" style="stroke:#000000;stroke-width:1;" width="226.4492" x="1210.6475" y="1791.0186"/><text fill="#000000" font-family="Verdana" font-size="12" lengthAdjust="spacing" textLength="206.4492" x="1220.6475" y="1812.1572">UPDATE osc_payment_order_state</text><text fill="#000000" font-family="Verdana" font-size="12" lengthAdjust="spacing" textLength="189.2988" x="1220.6475" y="1826.126">SET OXPAYMENTSTATE = 'paid'</text><rect fill="#FFFFFF" height="47.9375" rx="12.5" ry="12.5" style="stroke:#000000;stroke-width:1;" width="198.8516" x="1224.4463" y="1858.9561"/><text fill="#000000" font-family="Verdana" font-size="12" lengthAdjust="spacing" textLength="178.8516" x="1234.4463" y="1880.0947">updateOrderPaidTimestamp()</text><text fill="#000000" font-family="Verdana" font-size="12" font-weight="bold" lengthAdjust="spacing" textLength="71.6484" x="1234.4463" y="1894.0635">Direct SQL</text><rect fill="#FFF3E0" height="47.9375" rx="12.5" ry="12.5" style="stroke:#000000;stroke-width:1;" width="149.5684" x="1249.0879" y="1926.8936"/><text fill="#000000" font-family="Verdana" font-size="12" lengthAdjust="spacing" textLength="98.8477" x="1259.0879" y="1948.0322">UPDATE oxorder</text><text fill="#000000" font-family="Verdana" font-size="12" lengthAdjust="spacing" textLength="129.5684" x="1259.0879" y="1962.001">SET OXPAID = NOW()</text><rect fill="#FFFFFF" height="47.9375" rx="12.5" ry="12.5" style="stroke:#000000;stroke-width:1;" width="177.6699" x="1235.0371" y="1994.8311"/><text fill="#000000" font-family="Verdana" font-size="12" lengthAdjust="spacing" textLength="157.6699" x="1245.0371" y="2015.9697">updateOrderTransStatus()</text><text fill="#000000" font-family="Verdana" font-size="12" font-weight="bold" lengthAdjust="spacing" textLength="71.6484" x="1245.0371" y="2029.9385">Direct SQL</text><rect fill="#FFF3E0" height="47.9375" rx="12.5" ry="12.5" style="stroke:#000000;stroke-width:1;" width="192.9629" x="1227.3906" y="2062.7686"/><text fill="#000000" font-family="Verdana" font-size="12" lengthAdjust="spacing" textLength="98.8477" x="1237.3906" y="2083.9072">UPDATE oxorder</text><text fill="#000000" font-family="Verdana" font-size="12" lengthAdjust="spacing" textLength="172.9629" x="1237.3906" y="2097.876">SET OXTRANSSTATUS = 'OK'</text><rect fill="#FFCDD2" height="47.9375" rx="12.5" ry="12.5" style="stroke:#000000;stroke-width:1;" width="214.4434" x="1216.6504" y="2130.7061"/><text fill="#000000" font-family="Verdana" font-size="12" lengthAdjust="spacing" textLength="169.4707" x="1226.6504" y="2151.8447">Contract STILL COMMITTED!</text><text fill="#000000" font-family="Verdana" font-size="12" lengthAdjust="spacing" textLength="194.4434" x="1226.6504" y="2165.8135">Never transitioned to FULFILLED</text><ellipse cx="1323.8721" cy="2292.0068" fill="none" rx="11" ry="11" style="stroke:#000000;stroke-width:1;"/><ellipse cx="1323.8721" cy="2292.0068" fill="#FFFFFF" rx="6" ry="6" style="stroke:#000000;stroke-width:1;"/><line style="stroke:#000000;stroke-width:1;" x1="1178.4033" x2="1178.4033" y1="72.9795" y2="2395.3701"/><line style="stroke:#000000;stroke-width:1;" x1="1467.3408" x2="1467.3408" y1="72.9795" y2="2395.3701"/><line style="stroke:#000000;stroke-width:1;" x1="724.1201" x2="724.1201" y1="118.9326" y2="138.9326"/><polygon fill="#000000" points="720.1201,128.9326,724.1201,138.9326,728.1201,128.9326,724.1201,132.9326" style="stroke:#000000;stroke-width:1;"/><line style="stroke:#000000;stroke-width:1;" x1="724.1201" x2="724.1201" y1="172.9014" y2="192.9014"/><polygon fill="#000000" points="720.1201,182.9014,724.1201,192.9014,728.1201,182.9014,724.1201,186.9014" style="stroke:#000000;stroke-width:1;"/><line style="stroke:#000000;stroke-width:1;" x1="724.1201" x2="724.1201" y1="226.8701" y2="246.8701"/><polygon fill="#000000" points="720.1201,236.8701,724.1201,246.8701,728.1201,236.8701,724.1201,240.8701" style="stroke:#000000;stroke-width:1;"/><line style="stroke:#000000;stroke-width:1;" x1="724.1201" x2="724.1201" y1="280.8389" y2="300.8389"/><polygon fill="#000000" points="720.1201,290.8389,724.1201,300.8389,728.1201,290.8389,724.1201,294.8389" style="stroke:#000000;stroke-width:1;"/><line style="stroke:#000000;stroke-width:1;" x1="724.1201" x2="724.1201" y1="348.7764" y2="368.7764"/><polygon fill="#000000" points="720.1201,358.7764,724.1201,368.7764,728.1201,358.7764,724.1201,362.7764" style="stroke:#000000;stroke-width:1;"/><line style="stroke:#000000;stroke-width:1;" x1="724.1201" x2="724.1201" y1="416.7139" y2="436.7139"/><polygon fill="#000000" points="720.1201,426.7139,724.1201,436.7139,728.1201,426.7139,724.1201,430.7139" style="stroke:#000000;stroke-width:1;"/><line style="stroke:#000000;stroke-width:1;" x1="724.1201" x2="724.1201" y1="484.6514" y2="504.6514"/><polygon fill="#000000" points="720.1201,494.6514,724.1201,504.6514,728.1201,494.6514,724.1201,498.6514" style="stroke:#000000;stroke-width:1;"/><line style="stroke:#000000;stroke-width:1;" x1="724.1201" x2="724.1201" y1="552.5889" y2="572.5889"/><polygon fill="#000000" points="720.1201,562.5889,724.1201,572.5889,728.1201,562.5889,724.1201,566.5889" style="stroke:#000000;stroke-width:1;"/><line style="stroke:#000000;stroke-width:1;" x1="724.1201" x2="724.1201" y1="606.5576" y2="626.5576"/><polygon fill="#000000" points="720.1201,616.5576,724.1201,626.5576,728.1201,616.5576,724.1201,620.5576" style="stroke:#000000;stroke-width:1;"/><line style="stroke:#000000;stroke-width:1;" x1="724.1201" x2="724.1201" y1="660.5264" y2="680.5264"/><polygon fill="#000000" points="720.1201,670.5264,724.1201,680.5264,728.1201,670.5264,724.1201,674.5264" style="stroke:#000000;stroke-width:1;"/><line style="stroke:#000000;stroke-width:1;" x1="724.1201" x2="724.1201" y1="714.4951" y2="734.4951"/><polygon fill="#000000" points="720.1201,724.4951,724.1201,734.4951,728.1201,724.4951,724.1201,728.4951" style="stroke:#000000;stroke-width:1;"/><line style="stroke:#000000;stroke-width:1;" x1="724.1201" x2="724.1201" y1="782.4326" y2="802.4326"/><polygon fill="#000000" points="720.1201,792.4326,724.1201,802.4326,728.1201,792.4326,724.1201,796.4326" style="stroke:#000000;stroke-width:1;"/><line style="stroke:#000000;stroke-width:1;" x1="724.1201" x2="724.1201" y1="850.3701" y2="870.3701"/><polygon fill="#000000" points="720.1201,860.3701,724.1201,870.3701,728.1201,860.3701,724.1201,864.3701" style="stroke:#000000;stroke-width:1;"/><line style="stroke:#000000;stroke-width:1;" x1="724.1201" x2="724.1201" y1="918.3076" y2="938.3076"/><polygon fill="#000000" points="720.1201,928.3076,724.1201,938.3076,728.1201,928.3076,724.1201,932.3076" style="stroke:#000000;stroke-width:1;"/><line style="stroke:#000000;stroke-width:1;" x1="724.1201" x2="724.1201" y1="986.2451" y2="1006.2451"/><polygon fill="#000000" points="720.1201,996.2451,724.1201,1006.2451,728.1201,996.2451,724.1201,1000.2451" style="stroke:#000000;stroke-width:1;"/><line style="stroke:#000000;stroke-width:1;" x1="724.1201" x2="724.1201" y1="1054.1826" y2="1074.1826"/><polygon fill="#000000" points="720.1201,1064.1826,724.1201,1074.1826,728.1201,1064.1826,724.1201,1068.1826" style="stroke:#000000;stroke-width:1;"/><line style="stroke:#000000;stroke-width:1;" x1="724.1201" x2="724.1201" y1="1122.1201" y2="1142.1201"/><polygon fill="#000000" points="720.1201,1132.1201,724.1201,1142.1201,728.1201,1132.1201,724.1201,1136.1201" style="stroke:#000000;stroke-width:1;"/><line style="stroke:#000000;stroke-width:1;" x1="724.1201" x2="724.1201" y1="1190.0576" y2="1210.0576"/><polygon fill="#000000" points="720.1201,1200.0576,724.1201,1210.0576,728.1201,1200.0576,724.1201,1204.0576" style="stroke:#000000;stroke-width:1;"/><line style="stroke:#000000;stroke-width:1;" x1="724.1201" x2="724.1201" y1="1271.9639" y2="1292.6787"/><polygon fill="#000000" points="720.1201,1282.6787,724.1201,1292.6787,728.1201,1282.6787,724.1201,1286.6787" style="stroke:#000000;stroke-width:1;"/><line style="stroke:#000000;stroke-width:1;" x1="1323.8721" x2="1323.8721" y1="1405.2998" y2="1425.2998"/><polygon fill="#000000" points="1319.8721,1415.2998,1323.8721,1425.2998,1327.8721,1415.2998,1323.8721,1419.2998" style="stroke:#000000;stroke-width:1;"/><line style="stroke:#000000;stroke-width:1;" x1="1323.8721" x2="1323.8721" y1="1459.2686" y2="1479.2686"/><polygon fill="#000000" points="1319.8721,1469.2686,1323.8721,1479.2686,1327.8721,1469.2686,1323.8721,1473.2686" style="stroke:#000000;stroke-width:1;"/><line style="stroke:#000000;stroke-width:1;" x1="1323.8721" x2="1323.8721" y1="1513.2373" y2="1533.2373"/><polygon fill="#000000" points="1319.8721,1523.2373,1323.8721,1533.2373,1327.8721,1523.2373,1323.8721,1527.2373" style="stroke:#000000;stroke-width:1;"/><line style="stroke:#000000;stroke-width:1;" x1="1323.8721" x2="1323.8721" y1="1567.2061" y2="1587.2061"/><polygon fill="#000000" points="1319.8721,1577.2061,1323.8721,1587.2061,1327.8721,1577.2061,1323.8721,1581.2061" style="stroke:#000000;stroke-width:1;"/><line style="stroke:#000000;stroke-width:1;" x1="1323.8721" x2="1323.8721" y1="1635.1436" y2="1655.1436"/><polygon fill="#000000" points="1319.8721,1645.1436,1323.8721,1655.1436,1327.8721,1645.1436,1323.8721,1649.1436" style="stroke:#000000;stroke-width:1;"/><line style="stroke:#000000;stroke-width:1;" x1="1323.8721" x2="1323.8721" y1="1703.0811" y2="1723.0811"/><polygon fill="#000000" points="1319.8721,1713.0811,1323.8721,1723.0811,1327.8721,1713.0811,1323.8721,1717.0811" style="stroke:#000000;stroke-width:1;"/><line style="stroke:#000000;stroke-width:1;" x1="1323.8721" x2="1323.8721" y1="1771.0186" y2="1791.0186"/><polygon fill="#000000" points="1319.8721,1781.0186,1323.8721,1791.0186,1327.8721,1781.0186,1323.8721,1785.0186" style="stroke:#000000;stroke-width:1;"/><line style="stroke:#000000;stroke-width:1;" x1="1323.8721" x2="1323.8721" y1="1838.9561" y2="1858.9561"/><polygon fill="#000000" points="1319.8721,1848.9561,1323.8721,1858.9561,1327.8721,1848.9561,1323.8721,1852.9561" style="stroke:#000000;stroke-width:1;"/><line style="stroke:#000000;stroke-width:1;" x1="1323.8721" x2="1323.8721" y1="1906.8936" y2="1926.8936"/><polygon fill="#000000" points="1319.8721,1916.8936,1323.8721,1926.8936,1327.8721,1916.8936,1323.8721,1920.8936" style="stroke:#000000;stroke-width:1;"/><line style="stroke:#000000;stroke-width:1;" x1="1323.8721" x2="1323.8721" y1="1974.8311" y2="1994.8311"/><polygon fill="#000000" points="1319.8721,1984.8311,1323.8721,1994.8311,1327.8721,1984.8311,1323.8721,1988.8311" style="stroke:#000000;stroke-width:1;"/><line style="stroke:#000000;stroke-width:1;" x1="1323.8721" x2="1323.8721" y1="2042.7686" y2="2062.7686"/><polygon fill="#000000" points="1319.8721,2052.7686,1323.8721,2062.7686,1327.8721,2052.7686,1323.8721,2056.7686" style="stroke:#000000;stroke-width:1;"/><line style="stroke:#000000;stroke-width:1;" x1="1323.8721" x2="1323.8721" y1="2110.7061" y2="2130.7061"/><polygon fill="#000000" points="1319.8721,2120.7061,1323.8721,2130.7061,1327.8721,2120.7061,1323.8721,2124.7061" style="stroke:#000000;stroke-width:1;"/><line style="stroke:#000000;stroke-width:1;" x1="1323.8721" x2="1323.8721" y1="2178.6436" y2="2281.0068"/><polygon fill="#000000" points="1319.8721,2271.0068,1323.8721,2281.0068,1327.8721,2271.0068,1323.8721,2275.0068" style="stroke:#000000;stroke-width:1;"/><line style="stroke:#000000;stroke-width:1;" x1="724.1201" x2="724.1201" y1="1326.6475" y2="1342.3623"/><line style="stroke:#000000;stroke-width:1;" x1="724.1201" x2="1323.8721" y1="1342.3623" y2="1342.3623"/><line style="stroke:#000000;stroke-width:1;" x1="1323.8721" x2="1323.8721" y1="1342.3623" y2="1357.3623"/><polygon fill="#000000" points="1319.8721,1347.3623,1323.8721,1357.3623,1327.8721,1347.3623,1323.8721,1351.3623" style="stroke:#000000;stroke-width:1;"/><text fill="#000000" font-family="Verdana" font-size="18" lengthAdjust="spacing" textLength="288.1846" x="20.7217" y="89.6875">Frontend Flow (Contract-Aware)</text><text fill="#000000" font-family="Verdana" font-size="18" lengthAdjust="spacing" textLength="236.9531" x="324.6279" y="89.6875">Webhook Flow (Direct DB)</text><text fill="#000000" font-family="Verdana" font-size="18" lengthAdjust="spacing" textLength="288.1846" x="728.3999" y="89.6875">Frontend Flow (Contract-Aware)</text><text fill="#000000" font-family="Verdana" font-size="18" lengthAdjust="spacing" textLength="236.9531" x="1204.3955" y="89.6875">Webhook Flow (Direct DB)</text><g class="legend" data-source-line="121"><rect fill="none" height="242.1563" rx="7.5" ry="7.5" style="stroke:#000000;stroke-width:1;" width="394.4941" x="542.3538" y="2400.3701"/><text fill="#000000" font-family="Verdana" font-size="14" font-weight="bold" lengthAdjust="spacing" textLength="74.7168" x="552.2278" y="2420.3652">Workflow</text><text fill="#000000" font-family="Verdana" font-size="14" font-weight="bold" lengthAdjust="spacing" textLength="41.2139" x="636.6926" y="2420.3652">Color</text><text fill="#000000" font-family="Verdana" font-size="14" font-weight="bold" lengthAdjust="spacing" textLength="128.167" x="688.2971" y="2420.3652">What it Updates</text><rect fill="#E8F5E9" height="16.2969" style="stroke:none;stroke-width:1;" width="84.4648" x="547.3538" y="2423.667"/><text fill="#000000" font-family="Verdana" font-size="14" lengthAdjust="spacing" textLength="63.1094" x="551.804" y="2436.6621">Frontend</text><text fill="#000000" font-family="Verdana" font-size="14" lengthAdjust="spacing" textLength="42.7041" x="636.2688" y="2436.6621">Green</text><text fill="#000000" font-family="Verdana" font-size="14" lengthAdjust="spacing" textLength="185.835" x="687.8733" y="2436.6621">Contract + Order (correct)</text><rect fill="#FFEBEE" height="16.2969" style="stroke:none;stroke-width:1;" width="84.4648" x="547.3538" y="2439.9639"/><text fill="#000000" font-family="Verdana" font-size="14" lengthAdjust="spacing" textLength="65.4541" x="551.804" y="2452.959">Webhook</text><text fill="#000000" font-family="Verdana" font-size="14" lengthAdjust="spacing" textLength="27.2275" x="636.2688" y="2452.959">Red</text><text fill="#000000" font-family="Verdana" font-size="14" lengthAdjust="spacing" textLength="217.1982" x="687.8733" y="2452.959">Order only (bypasses contract)</text><line style="stroke:#000000;stroke-width:1;" x1="547.3538" x2="909.5217" y1="2407.3701" y2="2407.3701"/><line style="stroke:#000000;stroke-width:1;" x1="547.3538" x2="909.5217" y1="2423.667" y2="2423.667"/><line style="stroke:#000000;stroke-width:1;" x1="547.3538" x2="909.5217" y1="2439.9639" y2="2439.9639"/><line style="stroke:#000000;stroke-width:1;" x1="547.3538" x2="909.5217" y1="2456.2607" y2="2456.2607"/><line style="stroke:#000000;stroke-width:1;" x1="547.3538" x2="547.3538" y1="2407.3701" y2="2456.2607"/><line style="stroke:#000000;stroke-width:1;" x1="631.8186" x2="631.8186" y1="2407.3701" y2="2456.2607"/><line style="stroke:#000000;stroke-width:1;" x1="683.4231" x2="683.4231" y1="2407.3701" y2="2456.2607"/><line style="stroke:#000000;stroke-width:1;" x1="909.5217" x2="909.5217" y1="2407.3701" y2="2456.2607"/><text fill="#000000" font-family="Verdana" font-size="14" lengthAdjust="spacing" textLength="4.4502" x="547.3538" y="2471.2559">&#160;</text><text fill="#000000" font-family="Verdana" font-size="14" font-weight="bold" lengthAdjust="spacing" textLength="129.7051" x="547.3538" y="2487.5527">THE AMBIGUITY:</text><text fill="#000000" font-family="Verdana" font-size="14" lengthAdjust="spacing" textLength="384.4941" x="547.3538" y="2503.8496">Two different workflows update order state differently:</text><text fill="#000000" font-family="Verdana" font-size="14" lengthAdjust="spacing" textLength="280.8477" x="547.3538" y="2520.1465">1. Frontend: Contract-first, event-driven</text><text fill="#000000" font-family="Verdana" font-size="14" lengthAdjust="spacing" textLength="296.1191" x="547.3538" y="2536.4434">2. Webhook: Direct DB, bypasses contract</text><text fill="#000000" font-family="Verdana" font-size="14" lengthAdjust="spacing" textLength="4.4502" x="547.3538" y="2552.7402">&#160;</text><text fill="#000000" font-family="Verdana" font-size="14" font-weight="bold" lengthAdjust="spacing" textLength="65.8643" x="547.3538" y="2569.0371">RESULT:</text><text fill="#000000" font-family="Verdana" font-size="14" lengthAdjust="spacing" textLength="274.0801" x="547.3538" y="2585.334">- Contract stuck in COMMITTED forever</text><text fill="#000000" font-family="Verdana" font-size="14" lengthAdjust="spacing" textLength="162.5791" x="547.3538" y="2601.6309">- Order marked as paid</text><text fill="#000000" font-family="Verdana" font-size="14" lengthAdjust="spacing" textLength="200.4639" x="547.3538" y="2617.9277">- State machine inconsistent</text><text fill="#000000" font-family="Verdana" font-size="14" lengthAdjust="spacing" textLength="324.7549" x="547.3538" y="2634.2246">- Tests verify the broken behavior as "correct"</text></g><!--SRC=[bLPjK-984FwUNz7Y1y1RtPMzTTsiKeKaA7My7SHrhRegQqW6cI9aSZCJaJlklr_FJ0XHrpsF3mf9Tp_zylGpiwVcT4aXZGbB7CLKJE5inXC5alr5pnk_GiXZBiuh-yUVJZwrFrIQPzFcSEpvOvW4hS27VgjzrHtuqEfVT2-lky7jsVjfy-oz3j7y8oc5EYw5-lBvn6jKci6AmuW84iSqXXik5hEOhoIq1IMA9VVGviaiaumdUJp7aGkMfEYnX2a95_U2PqdKrb5XlsC-9Ok8paWMgmvwvYOVpASSHQxOCYO9XRyTmCy55n4LJwt_SPpDld_Q-UH_sK17O3IQHD31JA662If1GdNOMX51wsZOwVWNlh-16pgTSxx8xJmcQAZ0kwXZi9_7s3XI4Q4Sjvr9nPTKG1YpS26nKUklZkDEb60f7TeyqPDZyyHHg5j6stCQBdYc9bJghjNgsi5ZCYKgd8FrV6OpfdzcL2h_WIPg5twRavq4Jwv84Y6CSt1Wdb09MmkiRTpg1FM3Ww_EVllKFsb_SRaCxrAoNcB8kp2tqrKf2kTWp4j8JzFP0KqK5uYJ2lx0i5PWoOp_9yZm-sWy_DP5TXgATZq4hARixl7niQennpIoar0yRmTi4z2lYvPZO0ayoMsifyf4eltadASlyxVlT-b_8p6BJAVo97NkZZkoFrgPcdE1Mn6Pnk_S0a4IoNJBfSOQ-GElExXyStDpUuqqo-8PYsESKsJYrQfRBrA0L-i8sOfZNCpSIiAIgZV3ZVsMTtiN3E_Qmtw_6podvwla6Nx7oHWR0uLh-z7_uF97itqun63S6aoU3-zD6Tb40j_3A2KAcC37ZO_L9rEM57C9vYHPm2tFS53tUjG9nqY2tSyLIeBLhwrkDVpFtiU6aS22_nEDxEw0I_A7_gP8iDiPlGEo8imeMrw0RloCYQNf4veNKHU95aAJDdGzHwk5pWlLupLXsHJDnxgIICBA6ZhRNZ4jEkf8Pc58QKGZtOeys4v80CDHza1bwUr8y51lPt8_eUA1XVGejKyCTut8u0ZRdjTmFOuT7Gm3Y7MAMLeKj6SeoPB8DEHYdUz1r-JKZMgQY4KjnZjBozoO-3s_7K1dFEp3bYStL_xOXrVOucQfNZy3buEPIPMH9h_tSWojsUxroDC7MfbV1kZEaCkP-062ZLgtVNyGsBDF8n8MlSHZKS2MAAjacVuOq1Ir1SphsGAOKWR36olVfRX677GLcVo_KKsFTDBN4vtryBTgQMexBWVTNcz7vJrdG1-G4weG9HffLUfSzpfew7iO0rSfVSEPzfEbQfyqJXkdPgbGl2zwVd_lwGuLwSbdgmOrgR9miLSl5Ystq4E1sWCZ41KjmfCNG1yhMYZwJ2xrcUWU7E3Jmns4chDa8Lse59kQwwYcGyNOMgJ2K6FP5wyGfx0n-0DUW7LivFmCsCjJcMHJ6GesfK92n9Eg0XG8QbwrCXHfFGqMut4OycKQKsLVsRAM9CIqA4m5Nz2af1enlTS_fboXyg73vhouRkdlziAZ7yw90iIuJktPjT6sS9PVVvgxwyy6BWMb2VulMlTBtfbQo8LkUhtmjllLBEv46y1p6FzQUvx4QwXDrocH4Y6tagxTJSU2gzBbqWvCtniZDfjHeJLqLLmSxQxaiccFXC8iNhleUNnKrE0MgHzYXwLw1rJFuJ0Ig7zQZ1j7sunTABJf7Rp8rAOvzYVNlU05eGn3SLebrixmOeDhLIBJaeW5TeH8mzmV35HF6rTGQhKqhmCK5maOXStMoCNjo65Av-I1uJ0nLYKVH4KJmJB0-HS0]--></g></svg>