<svg xmlns="http://www.w3.org/2000/svg" xmlns:xlink="http://www.w3.org/1999/xlink" contentStyleType="text/css" data-diagram-type="SEQUENCE" height="1216px" preserveAspectRatio="none" style="width:1350px;height:1216px;background:#FFFFFF;" version="1.1" viewBox="0 0 1350 1216" width="1350px" zoomAndPan="magnify"><title>Customer Journey: Button Click to Thank You Page</title><defs/><g><text fill="#000000" font-family="sans-serif" font-size="14" font-weight="bold" lengthAdjust="spacing" textLength="400.4629" x="474.0115" y="27.9951">Customer Journey: Button Click to Thank You Page</text><g><title>Checkout Page</title><rect fill="#FFFFFF" height="333.4609" style="stroke:#181818;stroke-width:1;" width="10" x="201.2852" y="149.7266"/></g><g><title>JavaScript</title><rect fill="#FFFFFF" height="304.3281" style="stroke:#181818;stroke-width:1;" width="10" x="320.7075" y="178.8594"/></g><g><title>OXID Shop</title><rect fill="#FFFFFF" height="203.9297" style="stroke:#181818;stroke-width:1;" width="10" x="540.5371" y="207.9922"/></g><g><title>OXID Shop</title><rect fill="#FFFFFF" height="417.7266" style="stroke:#181818;stroke-width:1;" width="10" x="540.5371" y="641.8516"/></g><g><title>Event Handlers</title><rect fill="#FFFFFF" height="145.6641" style="stroke:#181818;stroke-width:1;" width="10" x="809.6055" y="237.125"/></g><g><title>Event Handlers</title><rect fill="#FFFFFF" height="317.3281" style="stroke:#181818;stroke-width:1;" width="10" x="809.6055" y="670.9844"/></g><g><title>Contract DB</title><rect fill="#FFFFFF" height="29.1328" style="stroke:#181818;stroke-width:1;" width="10" x="1047.126" y="266.2578"/></g><g><title>Contract DB</title><rect fill="#FFFFFF" height="29.1328" style="stroke:#181818;stroke-width:1;" width="10" x="1047.126" y="758.3828"/></g><g><title>Contract DB</title><rect fill="#FFFFFF" height="29.1328" style="stroke:#181818;stroke-width:1;" width="10" x="1047.126" y="930.0469"/></g><g><title>Stripe</title><rect fill="#FFFFFF" height="29.1328" style="stroke:#181818;stroke-width:1;" width="10" x="1130.4165" y="324.5234"/></g><g><title>Stripe</title><rect fill="#FFFFFF" height="100.3984" style="stroke:#181818;stroke-width:1;" width="10" x="1130.4165" y="512.3203"/></g><g><title>Stripe</title><rect fill="#FFFFFF" height="29.1328" style="stroke:#181818;stroke-width:1;" width="10" x="1130.4165" y="700.1172"/></g><g><title>Thank You Page</title><rect fill="#FFFFFF" height="29.1328" style="stroke:#181818;stroke-width:1;" width="10" x="1276.2876" y="1088.7109"/></g><g><title>Customer</title><rect fill="#000000" fill-opacity="0.00000" height="1017.25" width="8" x="38.002" y="118.5938"/><line style="stroke:#181818;stroke-width:0.5;stroke-dasharray:5,5;" x1="42" x2="42" y1="118.5938" y2="1135.8438"/></g><g><title>Checkout Page</title><rect fill="#000000" fill-opacity="0.00000" height="1017.25" width="8" x="202.2852" y="118.5938"/><line style="stroke:#181818;stroke-width:0.5;stroke-dasharray:5,5;" x1="205.8022" x2="205.8022" y1="118.5938" y2="1135.8438"/></g><g><title>JavaScript</title><rect fill="#000000" fill-opacity="0.00000" height="1017.25" width="8" x="321.7075" y="118.5938"/><line style="stroke:#181818;stroke-width:0.5;stroke-dasharray:5,5;" x1="325.6187" x2="325.6187" y1="118.5938" y2="1135.8438"/></g><g><title>OXID Shop</title><rect fill="#000000" fill-opacity="0.00000" height="1017.25" width="8" x="541.5371" y="118.5938"/><line style="stroke:#181818;stroke-width:0.5;stroke-dasharray:5,5;" x1="544.9463" x2="544.9463" y1="118.5938" y2="1135.8438"/></g><g><title>Event Handlers</title><rect fill="#000000" fill-opacity="0.00000" height="1017.25" width="8" x="810.6055" y="118.5938"/><line style="stroke:#181818;stroke-width:0.5;stroke-dasharray:5,5;" x1="814.1177" x2="814.1177" y1="118.5938" y2="1135.8438"/></g><g><title>Contract DB</title><rect fill="#000000" fill-opacity="0.00000" height="1017.25" width="8" x="1048.126" y="118.5938"/><line style="stroke:#181818;stroke-width:0.5;stroke-dasharray:5,5;" x1="1051.5962" x2="1051.5962" y1="118.5938" y2="1135.8438"/></g><g><title>Stripe</title><rect fill="#000000" fill-opacity="0.00000" height="1017.25" width="8" x="1131.4165" y="118.5938"/><line style="stroke:#181818;stroke-width:0.5;stroke-dasharray:5,5;" x1="1134.6558" x2="1134.6558" y1="118.5938" y2="1135.8438"/></g><g><title>Thank You Page</title><rect fill="#000000" fill-opacity="0.00000" height="1017.25" width="8" x="1277.2876" y="118.5938"/><line style="stroke:#181818;stroke-width:0.5;stroke-dasharray:5,5;" x1="1281.0894" x2="1281.0894" y1="118.5938" y2="1135.8438"/></g><g class="participant participant-head" data-participant="C"><text fill="#000000" font-family="sans-serif" font-size="14" lengthAdjust="spacing" textLength="68.0039" x="5" y="115.292">Customer</text><ellipse cx="42.002" cy="50.7969" fill="#E2E2F0" rx="8" ry="8" style="stroke:#181818;stroke-width:0.5;"/><path d="M42.002,58.7969 L42.002,85.7969 M29.002,66.7969 L55.002,66.7969 M42.002,85.7969 L29.002,100.7969 M42.002,85.7969 L55.002,100.7969" fill="none" style="stroke:#181818;stroke-width:0.5;"/></g><g class="participant participant-tail" data-participant="C"><text fill="#000000" font-family="sans-serif" font-size="14" lengthAdjust="spacing" textLength="68.0039" x="5" y="1147.8389">Customer</text><ellipse cx="42.002" cy="1159.6406" fill="#E2E2F0" rx="8" ry="8" style="stroke:#181818;stroke-width:0.5;"/><path d="M42.002,1167.6406 L42.002,1194.6406 M29.002,1175.6406 L55.002,1175.6406 M42.002,1194.6406 L29.002,1209.6406 M42.002,1194.6406 L55.002,1209.6406" fill="none" style="stroke:#181818;stroke-width:0.5;"/></g><g class="participant participant-head" data-participant="CP"><rect fill="#E2E2F0" height="30.2969" rx="2.5" ry="2.5" style="stroke:#181818;stroke-width:0.5;" width="118.9658" x="146.8022" y="87.2969"/><text fill="#000000" font-family="sans-serif" font-size="14" lengthAdjust="spacing" textLength="104.9658" x="153.8022" y="107.292">Checkout Page</text></g><g class="participant participant-tail" data-participant="CP"><rect fill="#E2E2F0" height="30.2969" rx="2.5" ry="2.5" style="stroke:#181818;stroke-width:0.5;" width="118.9658" x="146.8022" y="1134.8438"/><text fill="#000000" font-family="sans-serif" font-size="14" lengthAdjust="spacing" textLength="104.9658" x="153.8022" y="1154.8389">Checkout Page</text></g><g class="participant participant-head" data-participant="JS"><rect fill="#E2E2F0" height="30.2969" rx="2.5" ry="2.5" style="stroke:#181818;stroke-width:0.5;" width="84.1777" x="283.6187" y="87.2969"/><text fill="#000000" font-family="sans-serif" font-size="14" lengthAdjust="spacing" textLength="70.1777" x="290.6187" y="107.292">JavaScript</text></g><g class="participant participant-tail" data-participant="JS"><rect fill="#E2E2F0" height="30.2969" rx="2.5" ry="2.5" style="stroke:#181818;stroke-width:0.5;" width="84.1777" x="283.6187" y="1134.8438"/><text fill="#000000" font-family="sans-serif" font-size="14" lengthAdjust="spacing" textLength="70.1777" x="290.6187" y="1154.8389">JavaScript</text></g><g class="participant participant-head" data-participant="OXID"><rect fill="#E2E2F0" height="30.2969" rx="2.5" ry="2.5" style="stroke:#181818;stroke-width:0.5;" width="89.1816" x="500.9463" y="87.2969"/><text fill="#000000" font-family="sans-serif" font-size="14" lengthAdjust="spacing" textLength="75.1816" x="507.9463" y="107.292">OXID Shop</text></g><g class="participant participant-tail" data-participant="OXID"><rect fill="#E2E2F0" height="30.2969" rx="2.5" ry="2.5" style="stroke:#181818;stroke-width:0.5;" width="89.1816" x="500.9463" y="1134.8438"/><text fill="#000000" font-family="sans-serif" font-size="14" lengthAdjust="spacing" textLength="75.1816" x="507.9463" y="1154.8389">OXID Shop</text></g><g class="participant participant-head" data-participant="EH"><rect fill="#E2E2F0" height="30.2969" rx="2.5" ry="2.5" style="stroke:#181818;stroke-width:0.5;" width="120.9756" x="754.1177" y="87.2969"/><text fill="#000000" font-family="sans-serif" font-size="14" lengthAdjust="spacing" textLength="106.9756" x="761.1177" y="107.292">Event Handlers</text></g><g class="participant participant-tail" data-participant="EH"><rect fill="#E2E2F0" height="30.2969" rx="2.5" ry="2.5" style="stroke:#181818;stroke-width:0.5;" width="120.9756" x="754.1177" y="1134.8438"/><text fill="#000000" font-family="sans-serif" font-size="14" lengthAdjust="spacing" textLength="106.9756" x="761.1177" y="1154.8389">Event Handlers</text></g><g class="participant participant-head" data-participant="DB"><text fill="#000000" font-family="sans-serif" font-size="14" lengthAdjust="spacing" textLength="85.0596" x="1006.5962" y="115.292">Contract DB</text><path d="M1034.126,66.2969 C1034.126,56.2969 1052.126,56.2969 1052.126,56.2969 C1052.126,56.2969 1070.126,56.2969 1070.126,66.2969 L1070.126,92.2969 C1070.126,102.2969 1052.126,102.2969 1052.126,102.2969 C1052.126,102.2969 1034.126,102.2969 1034.126,92.2969 L1034.126,66.2969" fill="#E2E2F0" style="stroke:#181818;stroke-width:0.5;"/><path d="M1034.126,66.2969 C1034.126,76.2969 1052.126,76.2969 1052.126,76.2969 C1052.126,76.2969 1070.126,76.2969 1070.126,66.2969" fill="none" style="stroke:#181818;stroke-width:0.5;"/></g><g class="participant participant-tail" data-participant="DB"><text fill="#000000" font-family="sans-serif" font-size="14" lengthAdjust="spacing" textLength="85.0596" x="1006.5962" y="1147.8389">Contract DB</text><path d="M1034.126,1161.1406 C1034.126,1151.1406 1052.126,1151.1406 1052.126,1151.1406 C1052.126,1151.1406 1070.126,1151.1406 1070.126,1161.1406 L1070.126,1187.1406 C1070.126,1197.1406 1052.126,1197.1406 1052.126,1197.1406 C1052.126,1197.1406 1034.126,1197.1406 1034.126,1187.1406 L1034.126,1161.1406" fill="#E2E2F0" style="stroke:#181818;stroke-width:0.5;"/><path d="M1034.126,1161.1406 C1034.126,1171.1406 1052.126,1171.1406 1052.126,1171.1406 C1052.126,1171.1406 1070.126,1171.1406 1070.126,1161.1406" fill="none" style="stroke:#181818;stroke-width:0.5;"/></g><g class="participant participant-head" data-participant="S"><rect fill="#E2E2F0" height="30.2969" rx="2.5" ry="2.5" style="stroke:#181818;stroke-width:0.5;" width="55.5215" x="1107.6558" y="87.2969"/><text fill="#000000" font-family="sans-serif" font-size="14" lengthAdjust="spacing" textLength="41.5215" x="1114.6558" y="107.292">Stripe</text></g><g class="participant participant-tail" data-participant="S"><rect fill="#E2E2F0" height="30.2969" rx="2.5" ry="2.5" style="stroke:#181818;stroke-width:0.5;" width="55.5215" x="1107.6558" y="1134.8438"/><text fill="#000000" font-family="sans-serif" font-size="14" lengthAdjust="spacing" textLength="41.5215" x="1114.6558" y="1154.8389">Stripe</text></g><g class="participant participant-head" data-participant="TY"><rect fill="#E2E2F0" height="30.2969" rx="2.5" ry="2.5" style="stroke:#181818;stroke-width:0.5;" width="126.3965" x="1218.0894" y="87.2969"/><text fill="#000000" font-family="sans-serif" font-size="14" lengthAdjust="spacing" textLength="112.3965" x="1225.0894" y="107.292">Thank You Page</text></g><g class="participant participant-tail" data-participant="TY"><rect fill="#E2E2F0" height="30.2969" rx="2.5" ry="2.5" style="stroke:#181818;stroke-width:0.5;" width="126.3965" x="1218.0894" y="1134.8438"/><text fill="#000000" font-family="sans-serif" font-size="14" lengthAdjust="spacing" textLength="112.3965" x="1225.0894" y="1154.8389">Thank You Page</text></g><g><title>Checkout Page</title><rect fill="#FFFFFF" height="333.4609" style="stroke:#181818;stroke-width:1;" width="10" x="201.2852" y="149.7266"/></g><g><title>JavaScript</title><rect fill="#FFFFFF" height="304.3281" style="stroke:#181818;stroke-width:1;" width="10" x="320.7075" y="178.8594"/></g><g><title>OXID Shop</title><rect fill="#FFFFFF" height="203.9297" style="stroke:#181818;stroke-width:1;" width="10" x="540.5371" y="207.9922"/></g><g><title>OXID Shop</title><rect fill="#FFFFFF" height="417.7266" style="stroke:#181818;stroke-width:1;" width="10" x="540.5371" y="641.8516"/></g><g><title>Event Handlers</title><rect fill="#FFFFFF" height="145.6641" style="stroke:#181818;stroke-width:1;" width="10" x="809.6055" y="237.125"/></g><g><title>Event Handlers</title><rect fill="#FFFFFF" height="317.3281" style="stroke:#181818;stroke-width:1;" width="10" x="809.6055" y="670.9844"/></g><g><title>Contract DB</title><rect fill="#FFFFFF" height="29.1328" style="stroke:#181818;stroke-width:1;" width="10" x="1047.126" y="266.2578"/></g><g><title>Contract DB</title><rect fill="#FFFFFF" height="29.1328" style="stroke:#181818;stroke-width:1;" width="10" x="1047.126" y="758.3828"/></g><g><title>Contract DB</title><rect fill="#FFFFFF" height="29.1328" style="stroke:#181818;stroke-width:1;" width="10" x="1047.126" y="930.0469"/></g><g><title>Stripe</title><rect fill="#FFFFFF" height="29.1328" style="stroke:#181818;stroke-width:1;" width="10" x="1130.4165" y="324.5234"/></g><g><title>Stripe</title><rect fill="#FFFFFF" height="100.3984" style="stroke:#181818;stroke-width:1;" width="10" x="1130.4165" y="512.3203"/></g><g><title>Stripe</title><rect fill="#FFFFFF" height="29.1328" style="stroke:#181818;stroke-width:1;" width="10" x="1130.4165" y="700.1172"/></g><g><title>Thank You Page</title><rect fill="#FFFFFF" height="29.1328" style="stroke:#181818;stroke-width:1;" width="10" x="1276.2876" y="1088.7109"/></g><g class="message" data-participant-1="C" data-participant-2="CP"><polygon fill="#181818" points="189.2852,145.7266,199.2852,149.7266,189.2852,153.7266,193.2852,149.7266" style="stroke:#181818;stroke-width:1;"/><line style="stroke:#181818;stroke-width:1;" x1="42.002" x2="195.2852" y1="149.7266" y2="149.7266"/><text fill="#000000" font-family="sans-serif" font-size="13" lengthAdjust="spacing" textLength="140.2832" x="49.002" y="144.6606">Click Payment Button</text></g><g class="message" data-participant-1="CP" data-participant-2="JS"><polygon fill="#181818" points="308.7075,174.8594,318.7075,178.8594,308.7075,182.8594,312.7075,178.8594" style="stroke:#181818;stroke-width:1;"/><line style="stroke:#181818;stroke-width:1;" x1="211.2852" x2="314.7075" y1="178.8594" y2="178.8594"/><text fill="#000000" font-family="sans-serif" font-size="13" lengthAdjust="spacing" textLength="90.4224" x="218.2852" y="173.7935">handleSubmit</text></g><g class="message" data-participant-1="JS" data-participant-2="OXID"><polygon fill="#181818" points="528.5371,203.9922,538.5371,207.9922,528.5371,211.9922,532.5371,207.9922" style="stroke:#181818;stroke-width:1;"/><line style="stroke:#181818;stroke-width:1;" x1="330.7075" x2="534.5371" y1="207.9922" y2="207.9922"/><text fill="#000000" font-family="sans-serif" font-size="13" lengthAdjust="spacing" textLength="190.8296" x="337.7075" y="202.9263">POST createCheckoutSession</text></g><g class="message" data-participant-1="OXID" data-participant-2="EH"><polygon fill="#181818" points="797.6055,233.125,807.6055,237.125,797.6055,241.125,801.6055,237.125" style="stroke:#181818;stroke-width:1;"/><line style="stroke:#181818;stroke-width:1;" x1="550.5371" x2="803.6055" y1="237.125" y2="237.125"/><text fill="#000000" font-family="sans-serif" font-size="13" lengthAdjust="spacing" textLength="240.0684" x="557.5371" y="232.0591">StripeCheckoutSessionRequestEvent</text></g><g class="message" data-participant-1="EH" data-participant-2="DB"><polygon fill="#181818" points="1035.126,262.2578,1045.126,266.2578,1035.126,270.2578,1039.126,266.2578" style="stroke:#181818;stroke-width:1;"/><line style="stroke:#181818;stroke-width:1;" x1="819.6055" x2="1041.126" y1="266.2578" y2="266.2578"/><text fill="#000000" font-family="sans-serif" font-size="13" lengthAdjust="spacing" textLength="208.5205" x="826.6055" y="261.1919">Create PaymentContract DRAFT</text></g><g class="message" data-participant-1="DB" data-participant-2="EH"><polygon fill="#181818" points="830.6055,291.3906,820.6055,295.3906,830.6055,299.3906,826.6055,295.3906" style="stroke:#181818;stroke-width:1;"/><line style="stroke:#181818;stroke-width:1;stroke-dasharray:2,2;" x1="824.6055" x2="1051.126" y1="295.3906" y2="295.3906"/><text fill="#000000" font-family="sans-serif" font-size="13" lengthAdjust="spacing" textLength="96.8081" x="836.6055" y="290.3247">contract saved</text></g><g class="message" data-participant-1="EH" data-participant-2="S"><polygon fill="#181818" points="1118.4165,320.5234,1128.4165,324.5234,1118.4165,328.5234,1122.4165,324.5234" style="stroke:#181818;stroke-width:1;"/><line style="stroke:#181818;stroke-width:1;" x1="819.6055" x2="1124.4165" y1="324.5234" y2="324.5234"/><text fill="#000000" font-family="sans-serif" font-size="13" lengthAdjust="spacing" textLength="156.7744" x="826.6055" y="319.4575">POST checkout sessions</text></g><g class="message" data-participant-1="S" data-participant-2="EH"><polygon fill="#181818" points="830.6055,349.6563,820.6055,353.6563,830.6055,357.6563,826.6055,353.6563" style="stroke:#181818;stroke-width:1;"/><line style="stroke:#181818;stroke-width:1;stroke-dasharray:2,2;" x1="824.6055" x2="1134.4165" y1="353.6563" y2="353.6563"/><text fill="#000000" font-family="sans-serif" font-size="13" lengthAdjust="spacing" textLength="114.0356" x="836.6055" y="348.5903">session id and url</text></g><g class="message" data-participant-1="EH" data-participant-2="OXID"><polygon fill="#181818" points="561.5371,378.7891,551.5371,382.7891,561.5371,386.7891,557.5371,382.7891" style="stroke:#181818;stroke-width:1;"/><line style="stroke:#181818;stroke-width:1;stroke-dasharray:2,2;" x1="555.5371" x2="813.6055" y1="382.7891" y2="382.7891"/><text fill="#000000" font-family="sans-serif" font-size="13" lengthAdjust="spacing" textLength="107.6499" x="567.5371" y="377.7231">event processed</text></g><g class="message" data-participant-1="OXID" data-participant-2="JS"><polygon fill="#181818" points="341.7075,407.9219,331.7075,411.9219,341.7075,415.9219,337.7075,411.9219" style="stroke:#181818;stroke-width:1;"/><line style="stroke:#181818;stroke-width:1;stroke-dasharray:2,2;" x1="335.7075" x2="544.5371" y1="411.9219" y2="411.9219"/><text fill="#000000" font-family="sans-serif" font-size="13" lengthAdjust="spacing" textLength="95.5068" x="347.7075" y="406.856">JSON response</text></g><g class="message" data-participant-1="JS" data-participant-2="JS"><line style="stroke:#181818;stroke-width:1;" x1="330.7075" x2="372.7075" y1="441.0547" y2="441.0547"/><line style="stroke:#181818;stroke-width:1;" x1="372.7075" x2="372.7075" y1="441.0547" y2="454.0547"/><line style="stroke:#181818;stroke-width:1;" x1="331.7075" x2="372.7075" y1="454.0547" y2="454.0547"/><polygon fill="#181818" points="341.7075,450.0547,331.7075,454.0547,341.7075,458.0547,337.7075,454.0547" style="stroke:#181818;stroke-width:1;"/><text fill="#000000" font-family="sans-serif" font-size="13" lengthAdjust="spacing" textLength="110.665" x="337.7075" y="435.9888">redirect to Stripe</text></g><g class="message" data-participant-1="JS" data-participant-2="C"><polygon fill="#181818" points="53.002,479.1875,43.002,483.1875,53.002,487.1875,49.002,483.1875" style="stroke:#181818;stroke-width:1;"/><line style="stroke:#181818;stroke-width:1;stroke-dasharray:2,2;" x1="47.002" x2="324.7075" y1="483.1875" y2="483.1875"/><text fill="#000000" font-family="sans-serif" font-size="13" lengthAdjust="spacing" textLength="114.6641" x="59.002" y="478.1216">Browser redirects</text></g><g class="message" data-participant-1="C" data-participant-2="S"><polygon fill="#181818" points="1118.4165,508.3203,1128.4165,512.3203,1118.4165,516.3203,1122.4165,512.3203" style="stroke:#181818;stroke-width:1;"/><line style="stroke:#181818;stroke-width:1;" x1="42.002" x2="1124.4165" y1="512.3203" y2="512.3203"/><text fill="#000000" font-family="sans-serif" font-size="13" lengthAdjust="spacing" textLength="183.5933" x="49.002" y="507.2544">Navigate to Stripe Checkout</text></g><g class="message" data-participant-1="C" data-participant-2="S"><polygon fill="#181818" points="1118.4165,537.4531,1128.4165,541.4531,1118.4165,545.4531,1122.4165,541.4531" style="stroke:#181818;stroke-width:1;"/><line style="stroke:#181818;stroke-width:1;" x1="42.002" x2="1124.4165" y1="541.4531" y2="541.4531"/><text fill="#000000" font-family="sans-serif" font-size="13" lengthAdjust="spacing" textLength="153.5688" x="49.002" y="536.3872">Enter payment and pay</text></g><g class="message" data-participant-1="S" data-participant-2="S"><line style="stroke:#181818;stroke-width:1;" x1="1140.4165" x2="1182.4165" y1="570.5859" y2="570.5859"/><line style="stroke:#181818;stroke-width:1;" x1="1182.4165" x2="1182.4165" y1="570.5859" y2="583.5859"/><line style="stroke:#181818;stroke-width:1;" x1="1141.4165" x2="1182.4165" y1="583.5859" y2="583.5859"/><polygon fill="#181818" points="1151.4165,579.5859,1141.4165,583.5859,1151.4165,587.5859,1147.4165,583.5859" style="stroke:#181818;stroke-width:1;"/><text fill="#000000" font-family="sans-serif" font-size="13" lengthAdjust="spacing" textLength="111.8711" x="1147.4165" y="565.52">Process payment</text></g><g class="message" data-participant-1="S" data-participant-2="C"><polygon fill="#181818" points="53.002,608.7188,43.002,612.7188,53.002,616.7188,49.002,612.7188" style="stroke:#181818;stroke-width:1;"/><line style="stroke:#181818;stroke-width:1;stroke-dasharray:2,2;" x1="47.002" x2="1134.4165" y1="612.7188" y2="612.7188"/><text fill="#000000" font-family="sans-serif" font-size="13" lengthAdjust="spacing" textLength="147.9766" x="59.002" y="607.6528">Redirect to success url</text></g><g class="message" data-participant-1="C" data-participant-2="OXID"><polygon fill="#181818" points="528.5371,637.8516,538.5371,641.8516,528.5371,645.8516,532.5371,641.8516" style="stroke:#181818;stroke-width:1;"/><line style="stroke:#181818;stroke-width:1;" x1="42.002" x2="534.5371" y1="641.8516" y2="641.8516"/><text fill="#000000" font-family="sans-serif" font-size="13" lengthAdjust="spacing" textLength="142.0415" x="49.002" y="636.7856">GET checkoutSuccess</text></g><g class="message" data-participant-1="OXID" data-participant-2="EH"><polygon fill="#181818" points="797.6055,666.9844,807.6055,670.9844,797.6055,674.9844,801.6055,670.9844" style="stroke:#181818;stroke-width:1;"/><line style="stroke:#181818;stroke-width:1;" x1="550.5371" x2="803.6055" y1="670.9844" y2="670.9844"/><text fill="#000000" font-family="sans-serif" font-size="13" lengthAdjust="spacing" textLength="181.0288" x="557.5371" y="665.9185">StripeCheckoutReturnEvent</text></g><g class="message" data-participant-1="EH" data-participant-2="S"><polygon fill="#181818" points="1118.4165,696.1172,1128.4165,700.1172,1118.4165,704.1172,1122.4165,700.1172" style="stroke:#181818;stroke-width:1;"/><line style="stroke:#181818;stroke-width:1;" x1="819.6055" x2="1124.4165" y1="700.1172" y2="700.1172"/><text fill="#000000" font-family="sans-serif" font-size="13" lengthAdjust="spacing" textLength="141.9653" x="826.6055" y="695.0513">GET checkout session</text></g><g class="message" data-participant-1="S" data-participant-2="EH"><polygon fill="#181818" points="830.6055,725.25,820.6055,729.25,830.6055,733.25,826.6055,729.25" style="stroke:#181818;stroke-width:1;"/><line style="stroke:#181818;stroke-width:1;stroke-dasharray:2,2;" x1="824.6055" x2="1134.4165" y1="729.25" y2="729.25"/><text fill="#000000" font-family="sans-serif" font-size="13" lengthAdjust="spacing" textLength="134.2021" x="836.6055" y="724.1841">payment status paid</text></g><g class="message" data-participant-1="EH" data-participant-2="DB"><polygon fill="#181818" points="1035.126,754.3828,1045.126,758.3828,1035.126,762.3828,1039.126,758.3828" style="stroke:#181818;stroke-width:1;"/><line style="stroke:#181818;stroke-width:1;" x1="819.6055" x2="1041.126" y1="758.3828" y2="758.3828"/><text fill="#000000" font-family="sans-serif" font-size="13" lengthAdjust="spacing" textLength="127.5942" x="826.6055" y="753.3169">Load contract by ID</text></g><g class="message" data-participant-1="DB" data-participant-2="EH"><polygon fill="#181818" points="830.6055,783.5156,820.6055,787.5156,830.6055,791.5156,826.6055,787.5156" style="stroke:#181818;stroke-width:1;"/><line style="stroke:#181818;stroke-width:1;stroke-dasharray:2,2;" x1="824.6055" x2="1051.126" y1="787.5156" y2="787.5156"/><text fill="#000000" font-family="sans-serif" font-size="13" lengthAdjust="spacing" textLength="113.4199" x="836.6055" y="782.4497">PaymentContract</text></g><g class="message" data-participant-1="EH" data-participant-2="EH"><line style="stroke:#181818;stroke-width:1;" x1="819.6055" x2="861.6055" y1="816.6484" y2="816.6484"/><line style="stroke:#181818;stroke-width:1;" x1="861.6055" x2="861.6055" y1="816.6484" y2="829.6484"/><line style="stroke:#181818;stroke-width:1;" x1="820.6055" x2="861.6055" y1="829.6484" y2="829.6484"/><polygon fill="#181818" points="830.6055,825.6484,820.6055,829.6484,830.6055,833.6484,826.6055,829.6484" style="stroke:#181818;stroke-width:1;"/><text fill="#000000" font-family="sans-serif" font-size="13" lengthAdjust="spacing" textLength="165.1914" x="826.6055" y="811.5825">PaymentAuthorizedEvent</text></g><g class="message" data-participant-1="EH" data-participant-2="EH"><line style="stroke:#181818;stroke-width:1;" x1="819.6055" x2="861.6055" y1="858.7813" y2="858.7813"/><line style="stroke:#181818;stroke-width:1;" x1="861.6055" x2="861.6055" y1="858.7813" y2="871.7813"/><line style="stroke:#181818;stroke-width:1;" x1="820.6055" x2="861.6055" y1="871.7813" y2="871.7813"/><polygon fill="#181818" points="830.6055,867.7813,820.6055,871.7813,830.6055,875.7813,826.6055,871.7813" style="stroke:#181818;stroke-width:1;"/><text fill="#000000" font-family="sans-serif" font-size="13" lengthAdjust="spacing" textLength="201.0684" x="826.6055" y="853.7153">ContractReadyToCommitEvent</text></g><g class="message" data-participant-1="EH" data-participant-2="OXID"><polygon fill="#181818" points="561.5371,896.9141,551.5371,900.9141,561.5371,904.9141,557.5371,900.9141" style="stroke:#181818;stroke-width:1;"/><line style="stroke:#181818;stroke-width:1;" x1="555.5371" x2="808.6055" y1="900.9141" y2="900.9141"/><text fill="#000000" font-family="sans-serif" font-size="13" lengthAdjust="spacing" textLength="78.7236" x="567.5371" y="895.8481">createOrder</text></g><g class="message" data-participant-1="EH" data-participant-2="DB"><polygon fill="#181818" points="1035.126,926.0469,1045.126,930.0469,1035.126,934.0469,1039.126,930.0469" style="stroke:#181818;stroke-width:1;"/><line style="stroke:#181818;stroke-width:1;" x1="819.6055" x2="1041.126" y1="930.0469" y2="930.0469"/><text fill="#000000" font-family="sans-serif" font-size="13" lengthAdjust="spacing" textLength="139.7373" x="826.6055" y="924.981">Contract COMMITTED</text></g><g class="message" data-participant-1="DB" data-participant-2="EH"><polygon fill="#181818" points="830.6055,955.1797,820.6055,959.1797,830.6055,963.1797,826.6055,959.1797" style="stroke:#181818;stroke-width:1;"/><line style="stroke:#181818;stroke-width:1;stroke-dasharray:2,2;" x1="824.6055" x2="1051.126" y1="959.1797" y2="959.1797"/><text fill="#000000" font-family="sans-serif" font-size="13" lengthAdjust="spacing" textLength="38.6826" x="836.6055" y="954.1138">saved</text></g><g class="message" data-participant-1="EH" data-participant-2="OXID"><polygon fill="#181818" points="561.5371,984.3125,551.5371,988.3125,561.5371,992.3125,557.5371,988.3125" style="stroke:#181818;stroke-width:1;"/><line style="stroke:#181818;stroke-width:1;stroke-dasharray:2,2;" x1="555.5371" x2="813.6055" y1="988.3125" y2="988.3125"/><text fill="#000000" font-family="sans-serif" font-size="13" lengthAdjust="spacing" textLength="70.9795" x="567.5371" y="983.2466">orderId set</text></g><g class="message" data-participant-1="OXID" data-participant-2="OXID"><line style="stroke:#181818;stroke-width:1;" x1="550.5371" x2="592.5371" y1="1017.4453" y2="1017.4453"/><line style="stroke:#181818;stroke-width:1;" x1="592.5371" x2="592.5371" y1="1017.4453" y2="1030.4453"/><line style="stroke:#181818;stroke-width:1;" x1="551.5371" x2="592.5371" y1="1030.4453" y2="1030.4453"/><polygon fill="#181818" points="561.5371,1026.4453,551.5371,1030.4453,561.5371,1034.4453,557.5371,1030.4453" style="stroke:#181818;stroke-width:1;"/><text fill="#000000" font-family="sans-serif" font-size="13" lengthAdjust="spacing" textLength="153.9941" x="557.5371" y="1012.3794">Store orderId in session</text></g><g class="message" data-participant-1="OXID" data-participant-2="C"><polygon fill="#181818" points="53.002,1055.5781,43.002,1059.5781,53.002,1063.5781,49.002,1059.5781" style="stroke:#181818;stroke-width:1;"/><line style="stroke:#181818;stroke-width:1;stroke-dasharray:2,2;" x1="47.002" x2="544.5371" y1="1059.5781" y2="1059.5781"/><text fill="#000000" font-family="sans-serif" font-size="13" lengthAdjust="spacing" textLength="136.7539" x="59.002" y="1054.5122">Redirect to thankyou</text></g><g class="message" data-participant-1="C" data-participant-2="TY"><polygon fill="#181818" points="1264.2876,1084.7109,1274.2876,1088.7109,1264.2876,1092.7109,1268.2876,1088.7109" style="stroke:#181818;stroke-width:1;"/><line style="stroke:#181818;stroke-width:1;" x1="42.002" x2="1270.2876" y1="1088.7109" y2="1088.7109"/><text fill="#000000" font-family="sans-serif" font-size="13" lengthAdjust="spacing" textLength="134.4561" x="49.002" y="1083.645">Display confirmation</text></g><g class="message" data-participant-1="TY" data-participant-2="C"><polygon fill="#181818" points="53.002,1113.8438,43.002,1117.8438,53.002,1121.8438,49.002,1117.8438" style="stroke:#181818;stroke-width:1;"/><line style="stroke:#181818;stroke-width:1;stroke-dasharray:2,2;" x1="47.002" x2="1280.2876" y1="1117.8438" y2="1117.8438"/><text fill="#000000" font-family="sans-serif" font-size="13" lengthAdjust="spacing" textLength="90.0605" x="59.002" y="1112.7778">Show success</text></g><!--SRC=[bLJBajem4BphArHxtn_WaAh5E04gkr38Xt0KzcHH0POZZTWYNv-HP5asknnouZ4zZ-xf4Iey0o-SHNq1mzVQcHPkCpvtYBhbnLdL9uwQLqVPdlXUExwLxy2Oh56Rd2SjBrWd3QfQTR95_bGSeJvfXm7_503R2M8jhrBKHdNeWsinJT_yMYsuEEekfFfVqtXv1VfOohOvWx41L2vP8r4Uf0LghriqD2HVp4DmCP_a2wJ6u0DtVQSyGsgrPwpWpz-809_rYcpbxU87Y39vDTHL8dYEZ604NWi27yDymXqk2ZE8k38A4oYmdF7jHbIyDa3199i0QzMuSf20XGHAB9UK5adSPUpWZmEBGP-SJTemog7CnToJ2BqIYwpLxkLxbPD8Cq8_ftPrWbbvXOOrC0RsrSN09gtVnh5iBYkOo4NxC5SD9wsuC-TnOH7hPgKWhBqpkgQywH2UOfGdgRyMcpTkm7RK7iRGg6LSGK0QQ9G1eaPEZwg6gDyvHUT6VrWoUKBPSIrQvkXNs7yIuarUrRl_TwZAqxB6QkI4iaLgq_NUydhGToO6OIFj160iZxWR4R2k3h3FMXOZp_qeyv94pFWFi-q0wQ5uQ39nro2j-O494cEB4ftdfvelND1xzwUMJVRYuSPfr4UMlJFurvuT8ryS7hLHVw69t4Q8L6G7ihbLkj0NEkg8wc6zil6GDwO1CxcvD7AnUNrTLLNvUEo71vQRQ5z-rP2m-FKH34X13pKCUDKEknYEvTv0wD_0ctQVJoOOgDeJVg5iTvOtluZVobmaJhPBJoQXKcrwnZ-IAySr2VKF]--></g></svg>