<svg xmlns="http://www.w3.org/2000/svg" xmlns:xlink="http://www.w3.org/1999/xlink" contentStyleType="text/css" data-diagram-type="STATE" height="1253px" preserveAspectRatio="none" style="width:1169px;height:1253px;background:#FFFFFF;" version="1.1" viewBox="0 0 1169 1253" width="1169px" zoomAndPan="magnify"><title>&lt;font size=20&gt;&lt;b&gt;Payment Contract State Machine&lt;/b&gt;&lt;/font&gt;</title><defs/><g><g class="title" data-source-line="2"><text fill="#000000" font-family="Verdana" font-size="20" font-weight="bold" lengthAdjust="spacing" textLength="372.0117" x="394.418" y="33.5645">Payment Contract State Machine</text></g><path d="M80.7,150.2813 L199.8895,150.2813 A12.5,12.5 0 0 1 212.3895,162.7813 L212.3895,174.25 L68.2,174.25 L68.2,162.7813 A12.5,12.5 0 0 1 80.7,150.2813" fill="#2196F3"/><path d="M68.2,174.25 L212.3895,174.25 L212.3895,233.75 A12.5,12.5 0 0 1 199.8895,246.25 L80.7,246.25 A12.5,12.5 0 0 1 68.2,233.75 L68.2,174.25" fill="#FFFFFF"/><rect fill="none" height="95.9688" rx="12.5" ry="12.5" style="stroke:#000000;stroke-width:2;" width="144.1895" x="68.2" y="150.2813"/><line style="stroke:#000000;stroke-width:2;" x1="68.2" x2="212.3895" y1="174.25" y2="174.25"/><text fill="#FFFFFF" font-family="Verdana" font-size="12" font-weight="bold" lengthAdjust="spacing" textLength="44.8711" x="117.8592" y="166.4199">DRAFT</text><g id="draft.draft_created"><rect fill="#FFFFFF" height="50" rx="12.5" ry="12.5" style="stroke:#000000;stroke-width:2;" width="123.1895" x="80.2" y="186.25"/><line style="stroke:#000000;stroke-width:2;" x1="80.2" x2="203.3895" y1="210.2188" y2="210.2188"/><text fill="#000000" font-family="Verdana" font-size="12" lengthAdjust="spacing" textLength="103.1895" x="90.2" y="202.3887">Contract Created</text></g><path d="M292.64,335.2513 L427.9427,335.2513 A12.5,12.5 0 0 1 440.4427,347.7513 L440.4427,359.22 L280.14,359.22 L280.14,347.7513 A12.5,12.5 0 0 1 292.64,335.2513" fill="#FF9800"/><path d="M280.14,359.22 L440.4427,359.22 L440.4427,418.72 A12.5,12.5 0 0 1 427.9427,431.22 L292.64,431.22 A12.5,12.5 0 0 1 280.14,418.72 L280.14,359.22" fill="#FFFFFF"/><rect fill="none" height="95.9688" rx="12.5" ry="12.5" style="stroke:#000000;stroke-width:2;" width="160.3027" x="280.14" y="335.2513"/><line style="stroke:#000000;stroke-width:2;" x1="280.14" x2="440.4427" y1="359.22" y2="359.22"/><text fill="#000000" font-family="Verdana" font-size="12" font-weight="bold" lengthAdjust="spacing" textLength="61.3535" x="329.6146" y="351.3899">PENDING</text><g id="pending.pending_await"><rect fill="#FFFFFF" height="50" rx="12.5" ry="12.5" style="stroke:#000000;stroke-width:2;" width="139.3027" x="292.14" y="371.22"/><line style="stroke:#000000;stroke-width:2;" x1="292.14" x2="431.4427" y1="395.1888" y2="395.1888"/><text fill="#000000" font-family="Verdana" font-size="12" lengthAdjust="spacing" textLength="119.3027" x="302.14" y="387.3587">Awaiting Conditions</text></g><path d="M599.14,520.2113 L725.4427,520.2113 A12.5,12.5 0 0 1 737.9427,532.7113 L737.9427,544.18 L586.64,544.18 L586.64,532.7113 A12.5,12.5 0 0 1 599.14,520.2113" fill="#4CAF50"/><path d="M586.64,544.18 L737.9427,544.18 L737.9427,603.68 A12.5,12.5 0 0 1 725.4427,616.18 L599.14,616.18 A12.5,12.5 0 0 1 586.64,603.68 L586.64,544.18" fill="#FFFFFF"/><rect fill="none" height="95.9688" rx="12.5" ry="12.5" style="stroke:#000000;stroke-width:2;" width="151.3027" x="586.64" y="520.2113"/><line style="stroke:#000000;stroke-width:2;" x1="586.64" x2="737.9427" y1="544.18" y2="544.18"/><text fill="#FFFFFF" font-family="Verdana" font-size="12" font-weight="bold" lengthAdjust="spacing" textLength="131.3027" x="596.64" y="536.3499">READY_TO_COMMIT</text><g id="ready.ready_met"><rect fill="#FFFFFF" height="50" rx="12.5" ry="12.5" style="stroke:#000000;stroke-width:2;" width="128.4629" x="598.64" y="556.18"/><line style="stroke:#000000;stroke-width:2;" x1="598.64" x2="727.1029" y1="580.1488" y2="580.1488"/><text fill="#000000" font-family="Verdana" font-size="12" lengthAdjust="spacing" textLength="108.4629" x="608.64" y="572.3187">All Conditions Met</text></g><path d="M500.36,705.1813 L602.2409,705.1813 A12.5,12.5 0 0 1 614.7409,717.6813 L614.7409,729.15 L487.86,729.15 L487.86,717.6813 A12.5,12.5 0 0 1 500.36,705.1813" fill="#8BC34A"/><path d="M487.86,729.15 L614.7409,729.15 L614.7409,788.65 A12.5,12.5 0 0 1 602.2409,801.15 L500.36,801.15 A12.5,12.5 0 0 1 487.86,788.65 L487.86,729.15" fill="#FFFFFF"/><rect fill="none" height="95.9688" rx="12.5" ry="12.5" style="stroke:#000000;stroke-width:2;" width="126.8809" x="487.86" y="705.1813"/><line style="stroke:#000000;stroke-width:2;" x1="487.86" x2="614.7409" y1="729.15" y2="729.15"/><text fill="#000000" font-family="Verdana" font-size="12" font-weight="bold" lengthAdjust="spacing" textLength="81.8848" x="510.358" y="721.3199">COMMITTED</text><g id="committed.committed_order"><rect fill="#FFFFFF" height="50" rx="12.5" ry="12.5" style="stroke:#000000;stroke-width:2;" width="105.8809" x="499.86" y="741.15"/><line style="stroke:#000000;stroke-width:2;" x1="499.86" x2="605.7409" y1="765.1188" y2="765.1188"/><text fill="#000000" font-family="Verdana" font-size="12" lengthAdjust="spacing" textLength="85.8809" x="509.86" y="757.2887">Order Created</text></g><path d="M453.32,890.1513 L565.279,890.1513 A12.5,12.5 0 0 1 577.779,902.6513 L577.779,914.12 L440.82,914.12 L440.82,902.6513 A12.5,12.5 0 0 1 453.32,890.1513" fill="#009688"/><path d="M440.82,914.12 L577.779,914.12 L577.779,973.62 A12.5,12.5 0 0 1 565.279,986.12 L453.32,986.12 A12.5,12.5 0 0 1 440.82,973.62 L440.82,914.12" fill="#FFFFFF"/><rect fill="none" height="95.9688" rx="12.5" ry="12.5" style="stroke:#000000;stroke-width:2;" width="136.959" x="440.82" y="890.1513"/><line style="stroke:#000000;stroke-width:2;" x1="440.82" x2="577.779" y1="914.12" y2="914.12"/><text fill="#FFFFFF" font-family="Verdana" font-size="12" font-weight="bold" lengthAdjust="spacing" textLength="71.7012" x="473.4489" y="906.2899">FULFILLED</text><g id="fulfilled.fulfilled_complete"><rect fill="#FFFFFF" height="50" rx="12.5" ry="12.5" style="stroke:#000000;stroke-width:2;" width="115.959" x="452.82" y="926.12"/><line style="stroke:#000000;stroke-width:2;" x1="452.82" x2="568.779" y1="950.0888" y2="950.0888"/><text fill="#000000" font-family="Verdana" font-size="12" lengthAdjust="spacing" textLength="95.959" x="462.82" y="942.2587">Order Complete</text></g><g id="cancelled"><rect fill="#F44336" height="50" rx="12.5" ry="12.5" style="stroke:#000000;stroke-width:2;" width="98.5918" x="12" y="913.1413"/><line style="stroke:#000000;stroke-width:2;" x1="12" x2="110.5918" y1="937.11" y2="937.11"/><text fill="#FFFFFF" font-family="Verdana" font-size="12" font-weight="bold" lengthAdjust="spacing" textLength="78.5918" x="22" y="929.2799">CANCELLED</text></g><g id="expired"><rect fill="#9E9E9E" height="50" rx="12.5" ry="12.5" style="stroke:#000000;stroke-width:2;" width="78.1074" x="234.24" y="543.2013"/><line style="stroke:#000000;stroke-width:2;" x1="234.24" x2="312.3474" y1="567.17" y2="567.17"/><text fill="#FFFFFF" font-family="Verdana" font-size="12" font-weight="bold" lengthAdjust="spacing" textLength="58.1074" x="244.24" y="559.3399">EXPIRED</text></g><g id="failed"><rect fill="#E91E63" height="50" rx="12.5" ry="12.5" style="stroke:#000000;stroke-width:2;" width="67.7539" x="881.42" y="913.1413"/><line style="stroke:#000000;stroke-width:2;" x1="881.42" x2="949.1739" y1="937.11" y2="937.11"/><text fill="#FFFFFF" font-family="Verdana" font-size="12" font-weight="bold" lengthAdjust="spacing" textLength="47.7539" x="891.42" y="929.2799">FAILED</text></g><ellipse cx="140.3" cy="65.2813" fill="#FFFFFF" rx="10" ry="10" style="stroke:#000000;stroke-width:1;"/><ellipse cx="403.3" cy="1058.1213" fill="none" rx="11" ry="11" style="stroke:#000000;stroke-width:1;"/><ellipse cx="403.3" cy="1058.1213" fill="#FFFFFF" rx="6" ry="6" style="stroke:#000000;stroke-width:1;"/><g class="entity" data-entity="GMN2" data-source-line="47" data-uid="ent0003" id="entity_GMN2"><path d="M247.42,158.3413 L247.42,194.2613 L212.59,198.2613 L247.42,202.2613 L247.42,238.185 A0,0 0 0 0 247.42,238.185 L431.1641,238.185 A0,0 0 0 0 431.1641,238.185 L431.1641,168.3413 L421.1641,158.3413 L247.42,158.3413 A0,0 0 0 0 247.42,158.3413" fill="#FFFACD" style="stroke:#000000;stroke-width:1;"/><path d="M421.1641,158.3413 L421.1641,168.3413 L431.1641,168.3413 L421.1641,158.3413" fill="#FFFACD" style="stroke:#000000;stroke-width:1;"/><text fill="#000000" font-family="Verdana" font-size="12" font-weight="bold" lengthAdjust="spacing" textLength="79.7109" x="253.42" y="174.4799">Initial State</text><text fill="#000000" font-family="Verdana" font-size="12" lengthAdjust="spacing" textLength="162.7441" x="253.42" y="188.4487">- BasketSnapshot captured</text><text fill="#000000" font-family="Verdana" font-size="12" lengthAdjust="spacing" textLength="133.1074" x="253.42" y="202.4174">- Conditions initialized</text><text fill="#000000" font-family="Verdana" font-size="12" lengthAdjust="spacing" textLength="107.0156" x="253.42" y="216.3862">- Metadata stored</text><text fill="#000000" font-family="Verdana" font-size="12" lengthAdjust="spacing" textLength="126.6563" x="253.42" y="230.3549">- Provider info empty</text></g><g class="entity" data-entity="GMN5" data-source-line="59" data-uid="ent0006" id="entity_GMN5"><path d="M475.93,336.3213 L475.93,379.2313 L440.63,383.2313 L475.93,387.2313 L475.93,430.1338 A0,0 0 0 0 475.93,430.1338 L696.6644,430.1338 A0,0 0 0 0 696.6644,430.1338 L696.6644,346.3213 L686.6644,336.3213 L475.93,336.3213 A0,0 0 0 0 475.93,336.3213" fill="#FFFACD" style="stroke:#000000;stroke-width:1;"/><path d="M686.6644,336.3213 L686.6644,346.3213 L696.6644,346.3213 L686.6644,336.3213" fill="#FFFACD" style="stroke:#000000;stroke-width:1;"/><text fill="#000000" font-family="Verdana" font-size="12" font-weight="bold" lengthAdjust="spacing" textLength="134.6484" x="481.93" y="352.4599">Conditions to fulfill:</text><text fill="#000000" font-family="Verdana" font-size="12" lengthAdjust="spacing" textLength="131.7773" x="481.93" y="366.4287">- payment_authorized</text><text fill="#000000" font-family="Verdana" font-size="12" lengthAdjust="spacing" textLength="153.8555" x="481.93" y="380.3974">- fraud_check (if enabled)</text><text fill="#000000" font-family="Verdana" font-size="12" lengthAdjust="spacing" textLength="3.8145" x="481.93" y="394.3662">&#160;</text><text fill="#000000" font-family="Verdana" font-size="12" font-weight="bold" lengthAdjust="spacing" textLength="80.5313" x="481.93" y="408.3349">Fulfilled by:</text><text fill="#000000" font-family="Verdana" font-size="12" lengthAdjust="spacing" textLength="199.7344" x="481.93" y="422.3037">PaymentAuthorizedEventHandler</text></g><g class="entity" data-entity="GMN8" data-source-line="72" data-uid="ent0009" id="entity_GMN8"><path d="M772.82,542.2513 L772.82,564.2013 L738.08,568.2013 L772.82,572.2013 L772.82,594.1575 A0,0 0 0 0 772.82,594.1575 L987.777,594.1575 A0,0 0 0 0 987.777,594.1575 L987.777,552.2513 L977.777,542.2513 L772.82,542.2513 A0,0 0 0 0 772.82,542.2513" fill="#FFFACD" style="stroke:#000000;stroke-width:1;"/><path d="M977.777,542.2513 L977.777,552.2513 L987.777,552.2513 L977.777,542.2513" fill="#FFFACD" style="stroke:#000000;stroke-width:1;"/><text fill="#000000" font-family="Verdana" font-size="12" lengthAdjust="spacing" textLength="169.2598" x="778.82" y="558.3899">- All conditions = FULFILLED</text><text fill="#000000" font-family="Verdana" font-size="12" lengthAdjust="spacing" textLength="155.3438" x="778.82" y="572.3587">- Ready for order creation</text><text fill="#000000" font-family="Verdana" font-size="12" lengthAdjust="spacing" textLength="193.957" x="778.82" y="586.3274">- Triggers OrderCreationHandler</text></g><g class="entity" data-entity="GMN11" data-source-line="82" data-uid="ent0012" id="entity_GMN11"><path d="M649.26,727.2113 L649.26,749.1713 L615.21,753.1713 L649.26,757.1713 L649.26,779.1175 A0,0 0 0 0 649.26,779.1175 L857.3264,779.1175 A0,0 0 0 0 857.3264,779.1175 L857.3264,737.2113 L847.3264,727.2113 L649.26,727.2113 A0,0 0 0 0 649.26,727.2113" fill="#FFFACD" style="stroke:#000000;stroke-width:1;"/><path d="M847.3264,727.2113 L847.3264,737.2113 L857.3264,737.2113 L847.3264,727.2113" fill="#FFFACD" style="stroke:#000000;stroke-width:1;"/><text fill="#000000" font-family="Verdana" font-size="12" lengthAdjust="spacing" textLength="161.9648" x="655.26" y="743.3499">- orderId stored in contract</text><text fill="#000000" font-family="Verdana" font-size="12" lengthAdjust="spacing" textLength="151.5996" x="655.26" y="757.3187">- OXID Order exists in DB</text><text fill="#000000" font-family="Verdana" font-size="12" lengthAdjust="spacing" textLength="187.0664" x="655.26" y="771.2874">- Payment captured/authorized</text></g><g class="entity" data-entity="GMN14" data-source-line="92" data-uid="ent0015" id="entity_GMN14"><path d="M613.07,912.1813 L613.07,934.1413 L578,938.1413 L613.07,942.1413 L613.07,964.0875 A0,0 0 0 0 613.07,964.0875 L807.5309,964.0875 A0,0 0 0 0 807.5309,964.0875 L807.5309,922.1813 L797.5309,912.1813 L613.07,912.1813 A0,0 0 0 0 613.07,912.1813" fill="#FFFACD" style="stroke:#000000;stroke-width:1;"/><path d="M797.5309,912.1813 L797.5309,922.1813 L807.5309,922.1813 L797.5309,912.1813" fill="#FFFACD" style="stroke:#000000;stroke-width:1;"/><text fill="#000000" font-family="Verdana" font-size="12" font-weight="bold" lengthAdjust="spacing" textLength="173.4609" x="619.07" y="928.3199">Terminal state - SUCCESS</text><text fill="#000000" font-family="Verdana" font-size="12" lengthAdjust="spacing" textLength="118.8457" x="619.07" y="942.2887">- Payment captured</text><text fill="#000000" font-family="Verdana" font-size="12" lengthAdjust="spacing" textLength="128.7891" x="619.07" y="956.2574">- Webhook confirmed</text></g><g class="entity" data-entity="GMN17" data-source-line="100" data-uid="ent0018" id="entity_GMN17"><path d="M145.88,912.1813 L145.88,934.1413 L111.08,938.1413 L145.88,942.1413 L145.88,964.0875 A0,0 0 0 0 145.88,964.0875 L330.7198,964.0875 A0,0 0 0 0 330.7198,964.0875 L330.7198,922.1813 L320.7198,912.1813 L145.88,912.1813 A0,0 0 0 0 145.88,912.1813" fill="#FFFACD" style="stroke:#000000;stroke-width:1;"/><path d="M320.7198,912.1813 L320.7198,922.1813 L330.7198,922.1813 L320.7198,912.1813" fill="#FFFACD" style="stroke:#000000;stroke-width:1;"/><text fill="#000000" font-family="Verdana" font-size="12" font-weight="bold" lengthAdjust="spacing" textLength="98.6426" x="151.88" y="928.3199">Terminal state</text><text fill="#000000" font-family="Verdana" font-size="12" lengthAdjust="spacing" textLength="155.1152" x="151.88" y="942.2887">- User cancelled checkout</text><text fill="#000000" font-family="Verdana" font-size="12" lengthAdjust="spacing" textLength="163.8398" x="151.88" y="956.2574">- Payment voided/refunded</text></g><g class="entity" data-entity="GMN20" data-source-line="108" data-uid="ent0021" id="entity_GMN20"><path d="M347.17,542.2513 L347.17,564.2013 L312.83,568.2013 L347.17,572.2013 L347.17,594.1575 A0,0 0 0 0 347.17,594.1575 L551.4278,594.1575 A0,0 0 0 0 551.4278,594.1575 L551.4278,552.2513 L541.4278,542.2513 L347.17,542.2513 A0,0 0 0 0 347.17,542.2513" fill="#FFFACD" style="stroke:#000000;stroke-width:1;"/><path d="M541.4278,542.2513 L541.4278,552.2513 L551.4278,552.2513 L541.4278,542.2513" fill="#FFFACD" style="stroke:#000000;stroke-width:1;"/><text fill="#000000" font-family="Verdana" font-size="12" font-weight="bold" lengthAdjust="spacing" textLength="98.6426" x="353.17" y="558.3899">Terminal state</text><text fill="#000000" font-family="Verdana" font-size="12" lengthAdjust="spacing" textLength="183.2578" x="353.17" y="572.3587">- Contract TTL exceeded (24h)</text><text fill="#000000" font-family="Verdana" font-size="12" lengthAdjust="spacing" textLength="104.5078" x="353.17" y="586.3274">- Session timeout</text></g><g class="entity" data-entity="GMN23" data-source-line="116" data-uid="ent0024" id="entity_GMN23"><path d="M983.75,905.2013 L983.75,934.1413 L949.55,938.1413 L983.75,942.1413 L983.75,971.0763 A0,0 0 0 0 983.75,971.0763 L1162.8477,971.0763 A0,0 0 0 0 1162.8477,971.0763 L1162.8477,915.2013 L1152.8477,905.2013 L983.75,905.2013 A0,0 0 0 0 983.75,905.2013" fill="#FFFACD" style="stroke:#000000;stroke-width:1;"/><path d="M1152.8477,905.2013 L1152.8477,915.2013 L1162.8477,915.2013 L1152.8477,905.2013" fill="#FFFACD" style="stroke:#000000;stroke-width:1;"/><text fill="#000000" font-family="Verdana" font-size="12" font-weight="bold" lengthAdjust="spacing" textLength="158.0977" x="989.75" y="921.3399">Terminal state - ERROR</text><text fill="#000000" font-family="Verdana" font-size="12" lengthAdjust="spacing" textLength="98.2793" x="989.75" y="935.3087">- Payment failed</text><text fill="#000000" font-family="Verdana" font-size="12" lengthAdjust="spacing" textLength="99.7617" x="989.75" y="949.2774">- Fraud detected</text><text fill="#000000" font-family="Verdana" font-size="12" lengthAdjust="spacing" textLength="86.2324" x="989.75" y="963.2462">- System error</text></g><!--link *start* to draft--><g class="link" data-entity-1=".start." data-entity-2="draft" data-source-line="122" data-uid="lnk3" id="link_.start._draft"><path d="M140.3,75.7013 C140.3,91.1213 140.3,116.7813 140.3,143.9213" fill="none" id="*start*-to-draft" style="stroke:#333333;stroke-width:1;"/><polygon fill="#333333" points="140.3,149.9213,144.3,140.9213,140.3,144.9213,136.3,140.9213,140.3,149.9213" style="stroke:#333333;stroke-width:1;"/><text fill="#000000" font-family="Verdana" font-size="12" font-weight="bold" lengthAdjust="spacing" textLength="229.9863" x="141.3" y="117.4199">ContractService::createContract()</text></g><!--link draft to pending--><g class="link" data-entity-1="draft" data-entity-2="pending" data-source-line="124" data-uid="lnk4" id="link_draft_pending"><path d="M197.24,246.6213 C229.83,273.7213 265.9763,303.7954 298.5963,330.9154" fill="none" id="draft-to-pending" style="stroke:#333333;stroke-width:1;"/><polygon fill="#333333" points="303.21,334.7513,298.8466,325.9217,299.3652,331.5547,293.7322,332.0733,303.21,334.7513" style="stroke:#333333;stroke-width:1;"/><text fill="#000000" font-family="Verdana" font-size="12" font-weight="bold" lengthAdjust="spacing" textLength="148.8984" x="308.3128" y="288.3899">transitionToPending()</text><text fill="#000000" font-family="Verdana" font-size="12" font-weight="bold" lengthAdjust="spacing" textLength="236.584" x="264.47" y="302.3587">[PaymentAuthorizedEventHandler]</text></g><!--link draft to cancelled--><g class="link" data-entity-1="draft" data-entity-2="cancelled" data-source-line="125" data-uid="lnk5" id="link_draft_cancelled"><path d="M103.23,246.3913 C79.18,281.7113 52.3,332.3513 52.3,382.2313 C139.3,1069.1213 139.3,1069.1213 52.3,754.1713 C52.3,811.1013 56.249,871.8882 58.889,906.9082" fill="none" id="draft-to-cancelled" style="stroke:#333333;stroke-width:1;"/><polygon fill="#333333" points="59.34,912.8913,62.6521,903.616,58.9641,907.9054,54.6748,904.2174,59.34,912.8913" style="stroke:#333333;stroke-width:1;"/><text fill="#000000" font-family="Verdana" font-size="12" font-weight="bold" lengthAdjust="spacing" textLength="54.0879" x="53.3" y="572.8399">cancel()</text></g><!--link draft to expired--><g class="link" data-entity-1="draft" data-entity-2="expired" data-source-line="126" data-uid="lnk6" id="link_draft_expired"><path d="M135.38,246.5413 C132.24,294.8413 132.6,371.0813 157.3,431.2113 C175.98,476.7113 211.5288,514.0002 239.2988,538.8502" fill="none" id="draft-to-expired" style="stroke:#333333;stroke-width:1;"/><polygon fill="#333333" points="243.77,542.8513,239.7306,533.8689,240.044,539.517,234.3958,539.8305,243.77,542.8513" style="stroke:#333333;stroke-width:1;"/><text fill="#000000" font-family="Verdana" font-size="12" font-weight="bold" lengthAdjust="spacing" textLength="53.6074" x="183.3723" y="380.8699">expire()</text><text fill="#000000" font-family="Verdana" font-size="12" font-weight="bold" lengthAdjust="spacing" textLength="103.752" x="158.3" y="394.8387">[TTL exceeded]</text></g><!--link pending to ready--><g class="link" data-entity-1="pending" data-entity-2="ready" data-source-line="128" data-uid="lnk7" id="link_pending_ready"><path d="M438.46,431.5913 C483.99,459.1713 535.9986,490.6817 581.1486,518.0417" fill="none" id="pending-to-ready" style="stroke:#333333;stroke-width:1;"/><polygon fill="#333333" points="586.28,521.1513,580.656,513.0661,582.0039,518.56,576.5099,519.9079,586.28,521.1513" style="stroke:#333333;stroke-width:1;"/><text fill="#000000" font-family="Verdana" font-size="12" font-weight="bold" lengthAdjust="spacing" textLength="111.3398" x="554.4034" y="473.3499">fulfillCondition()</text><text fill="#000000" font-family="Verdana" font-size="12" font-weight="bold" lengthAdjust="spacing" textLength="159.3867" x="530.38" y="487.3187">[All conditions fulfilled]</text></g><!--link pending to cancelled--><g class="link" data-entity-1="pending" data-entity-2="cancelled" data-source-line="129" data-uid="lnk8" id="link_pending_cancelled"><path d="M298.32,431.6113 C270.22,455.6513 238.42,486.8213 216.3,520.2113 C127.6,654.1313 81.9738,839.8059 67.5138,906.9159" fill="none" id="pending-to-cancelled" style="stroke:#333333;stroke-width:1;"/><polygon fill="#333333" points="66.25,912.7813,72.056,904.8257,67.3032,907.8934,64.2354,903.1406,66.25,912.7813" style="stroke:#333333;stroke-width:1;"/><text fill="#000000" font-family="Verdana" font-size="12" font-weight="bold" lengthAdjust="spacing" textLength="54.0879" x="149.77" y="665.3199">cancel()</text></g><!--link pending to expired--><g class="link" data-entity-1="pending" data-entity-2="expired" data-source-line="130" data-uid="lnk9" id="link_pending_expired"><path d="M337.89,431.3513 C320.92,467.0313 300.8872,509.183 287.4072,537.523" fill="none" id="pending-to-expired" style="stroke:#333333;stroke-width:1;"/><polygon fill="#333333" points="284.83,542.9413,292.308,536.532,286.9777,538.426,285.0836,533.0957,284.83,542.9413" style="stroke:#333333;stroke-width:1;"/><text fill="#000000" font-family="Verdana" font-size="12" font-weight="bold" lengthAdjust="spacing" textLength="53.6074" x="323" y="480.3499">expire()</text></g><!--link pending to failed--><g class="link" data-entity-1="pending" data-entity-2="failed" data-source-line="131" data-uid="lnk10" id="link_pending_failed"><path d="M440.78,425.2913 C446.63,427.5013 452.5,429.5113 458.3,431.2113 C576.46,465.9213 926.86,425.2713 1005.3,520.2113 C1104.1,639.8113 984.3201,837.9376 936.3001,907.7576" fill="none" id="pending-to-failed" style="stroke:#333333;stroke-width:1;"/><polygon fill="#333333" points="932.9,912.7013,941.2959,907.5525,935.7334,908.5816,934.7044,903.0191,932.9,912.7013" style="stroke:#333333;stroke-width:1;"/><text fill="#000000" font-family="Verdana" font-size="12" font-weight="bold" lengthAdjust="spacing" textLength="32.5137" x="1043.03" y="665.3199">fail()</text></g><!--link ready to committed--><g class="link" data-entity-1="ready" data-entity-2="committed" data-source-line="133" data-uid="lnk11" id="link_ready_committed"><path d="M633.71,616.3213 C617.2,643.5313 599.6113,672.521 583.0913,699.761" fill="none" id="ready-to-committed" style="stroke:#333333;stroke-width:1;"/><polygon fill="#333333" points="579.98,704.8913,588.0672,699.27,582.5728,700.616,581.2268,695.1216,579.98,704.8913" style="stroke:#333333;stroke-width:1;"/><text fill="#000000" font-family="Verdana" font-size="12" font-weight="bold" lengthAdjust="spacing" textLength="166.2422" x="632.2759" y="658.3199">commitToOrder(orderId)</text><text fill="#000000" font-family="Verdana" font-size="12" font-weight="bold" lengthAdjust="spacing" textLength="201.9141" x="614.44" y="672.2887">[StripeOrderCreationHandler]</text></g><!--link ready to cancelled--><g class="link" data-entity-1="ready" data-entity-2="cancelled" data-source-line="134" data-uid="lnk12" id="link_ready_cancelled"><path d="M586.36,607.2813 C536.44,633.1713 470.24,669.1613 414.3,705.1813 C317.67,767.4013 308,804.7713 207.3,860.1513 C174.39,878.2513 161.48,872.5713 128.3,890.1513 C116.12,896.6013 108.4245,901.4128 97.5145,909.2428" fill="none" id="ready-to-cancelled" style="stroke:#333333;stroke-width:1;"/><polygon fill="#333333" points="92.64,912.7413,102.2841,910.7433,96.7021,909.8259,97.6195,904.2439,92.64,912.7413" style="stroke:#333333;stroke-width:1;"/><text fill="#000000" font-family="Verdana" font-size="12" font-weight="bold" lengthAdjust="spacing" textLength="54.0879" x="415.3" y="757.8099">cancel()</text></g><!--link ready to failed--><g class="link" data-entity-1="ready" data-entity-2="failed" data-source-line="135" data-uid="lnk13" id="link_ready_failed"><path d="M738.25,608.0213 C744,610.8213 749.73,613.5713 755.3,616.1813 C785.57,630.3913 797.36,626.3713 824.3,646.1813 C852.22,666.7213 856.72,675.9213 875.3,705.1813 C914.54,767.0113 938.79,787.3013 931.3,860.1513 C929.47,877.9413 926.7204,891.847 923.1104,906.887" fill="none" id="ready-to-failed" style="stroke:#333333;stroke-width:1;"/><polygon fill="#333333" points="921.71,912.7213,927.7001,904.9034,922.877,907.8593,919.9211,903.0362,921.71,912.7213" style="stroke:#333333;stroke-width:1;"/><text fill="#000000" font-family="Verdana" font-size="12" font-weight="bold" lengthAdjust="spacing" textLength="32.5137" x="929.42" y="757.8099">fail()</text></g><!--link committed to fulfilled--><g class="link" data-entity-1="committed" data-entity-2="fulfilled" data-source-line="137" data-uid="lnk14" id="link_committed_fulfilled"><path d="M522.55,801.2713 C517.94,810.8413 513.86,821.0813 511.3,831.1513 C506.51,849.9713 505.2426,865.2819 505.5126,883.8219" fill="none" id="committed-to-fulfilled" style="stroke:#333333;stroke-width:1;"/><polygon fill="#333333" points="505.6,889.8213,509.4685,880.764,505.5272,884.8218,501.4694,880.8805,505.6,889.8213" style="stroke:#333333;stroke-width:1;"/><text fill="#000000" font-family="Verdana" font-size="12" font-weight="bold" lengthAdjust="spacing" textLength="46.4063" x="621.7121" y="843.2899">fulfill()</text><text fill="#000000" font-family="Verdana" font-size="12" font-weight="bold" lengthAdjust="spacing" textLength="265.2305" x="512.3" y="857.2587">[Webhook: payment_intent.succeeded]</text></g><!--link committed to cancelled--><g class="link" data-entity-1="committed" data-entity-2="cancelled" data-source-line="138" data-uid="lnk15" id="link_committed_cancelled"><path d="M487.66,779.1913 C469.19,786.3713 448.97,794.1513 430.3,801.1513 C358.16,828.2113 341.34,838.8613 267.3,860.1513 C206.56,877.6113 186.21,864.8413 128.3,890.1513 C115.15,895.9013 106.7825,900.865 95.6125,909.085" fill="none" id="committed-to-cancelled" style="stroke:#333333;stroke-width:1;"/><polygon fill="#333333" points="90.78,912.6413,100.3996,910.5286,94.8071,909.6777,95.6579,904.0852,90.78,912.6413" style="stroke:#333333;stroke-width:1;"/><text fill="#000000" font-family="Verdana" font-size="12" font-weight="bold" lengthAdjust="spacing" textLength="54.0879" x="392.3448" y="843.2899">cancel()</text><text fill="#000000" font-family="Verdana" font-size="12" font-weight="bold" lengthAdjust="spacing" textLength="132.3574" x="353.21" y="857.2587">[Refund requested]</text></g><!--link committed to failed--><g class="link" data-entity-1="committed" data-entity-2="failed" data-source-line="139" data-uid="lnk16" id="link_committed_failed"><path d="M614.99,794.0613 C620.4,796.6813 625.88,799.0913 631.3,801.1513 C695.25,825.4813 720.31,802.1913 782.3,831.1513 C800.91,839.8513 802.25,847.3213 818.3,860.1513 C840.46,877.8713 860.8559,894.0668 879.9659,909.1968" fill="none" id="committed-to-failed" style="stroke:#333333;stroke-width:1;"/><polygon fill="#333333" points="884.67,912.9213,880.0968,904.1986,880.7499,909.8176,875.1309,910.4707,884.67,912.9213" style="stroke:#333333;stroke-width:1;"/><text fill="#000000" font-family="Verdana" font-size="12" font-weight="bold" lengthAdjust="spacing" textLength="32.5137" x="856.6682" y="843.2899">fail()</text><text fill="#000000" font-family="Verdana" font-size="12" font-weight="bold" lengthAdjust="spacing" textLength="107.25" x="819.3" y="857.2587">[Capture failed]</text></g><!--link fulfilled to *end*--><g class="link" data-entity-1="fulfilled" data-entity-2=".end." data-source-line="141" data-uid="lnk18" id="link_fulfilled_.end."><path d="M466.79,986.4413 C445.37,1010.2913 425.5701,1032.3382 414.1501,1045.0482" fill="none" id="fulfilled-to-*end*" style="stroke:#333333;stroke-width:1;"/><polygon fill="#333333" points="410.14,1049.5113,419.1305,1045.49,413.4818,1045.792,413.1798,1040.1432,410.14,1049.5113" style="stroke:#333333;stroke-width:1;"/></g><!--link cancelled to *end*--><g class="link" data-entity-1="cancelled" data-entity-2=".end." data-source-line="142" data-uid="lnk19" id="link_cancelled_.end."><path d="M91.24,963.5913 C102.35,971.7013 115.39,980.1713 128.3,986.1213 C224.79,1030.6213 347.7539,1049.7085 386.1239,1054.8885" fill="none" id="cancelled-to-*end*" style="stroke:#333333;stroke-width:1;"/><polygon fill="#333333" points="392.07,1055.6913,383.6861,1050.5231,387.1149,1055.0223,382.6158,1058.4512,392.07,1055.6913" style="stroke:#333333;stroke-width:1;"/></g><!--link expired to *end*--><g class="link" data-entity-1="expired" data-entity-2=".end." data-source-line="143" data-uid="lnk20" id="link_expired_.end."><path d="M269.45,593.5413 C262.4,646.3513 252.52,773.6313 304.3,860.1513 C316.45,880.4613 334.06,871.2413 348.3,890.1513 C386.48,940.8713 398.2028,1013.4443 401.5328,1041.1043" fill="none" id="expired-to-*end*" style="stroke:#333333;stroke-width:1;"/><polygon fill="#333333" points="402.25,1047.0613,405.1456,1037.6477,401.6524,1042.0971,397.2029,1038.6039,402.25,1047.0613" style="stroke:#333333;stroke-width:1;"/></g><!--link failed to *end*--><g class="link" data-entity-1="failed" data-entity-2=".end." data-source-line="144" data-uid="lnk21" id="link_failed_.end."><path d="M880.95,960.3213 C864.63,969.5313 844.51,979.6713 825.3,986.1213 C667.88,1038.9713 469.6699,1053.3127 420.3499,1056.1827" fill="none" id="failed-to-*end*" style="stroke:#333333;stroke-width:1;"/><polygon fill="#333333" points="414.36,1056.5313,423.5772,1060.0017,419.3516,1056.2408,423.1124,1052.0152,414.36,1056.5313" style="stroke:#333333;stroke-width:1;"/></g><g class="legend" data-source-line="146"><rect fill="none" height="160.6719" rx="7.5" ry="7.5" style="stroke:#000000;stroke-width:1;" width="354.5586" x="796.2891" y="1080.1213"/><text fill="#000000" font-family="Verdana" font-size="14" font-weight="bold" lengthAdjust="spacing" textLength="42.4102" x="806.1631" y="1100.1164">State</text><text fill="#000000" font-family="Verdana" font-size="14" font-weight="bold" lengthAdjust="spacing" textLength="41.2139" x="953.751" y="1100.1164">Color</text><text fill="#000000" font-family="Verdana" font-size="14" font-weight="bold" lengthAdjust="spacing" textLength="90.5488" x="1004.7129" y="1100.1164">Description</text><text fill="#000000" font-family="Verdana" font-size="14" lengthAdjust="spacing" textLength="46.6895" x="805.7393" y="1116.4132">DRAFT</text><rect fill="#2196F3" height="16.2969" style="stroke:none;stroke-width:1;" width="50.9619" x="948.877" y="1103.4181"/><text fill="#000000" font-family="Verdana" font-size="14" lengthAdjust="spacing" textLength="4.4502" x="948.877" y="1116.4132">&#160;</text><text fill="#000000" font-family="Verdana" font-size="14" lengthAdjust="spacing" textLength="78.6543" x="1004.2891" y="1116.4132">Initial state</text><text fill="#000000" font-family="Verdana" font-size="14" lengthAdjust="spacing" textLength="63.9912" x="805.7393" y="1132.7101">PENDING</text><rect fill="#FF9800" height="16.2969" style="stroke:none;stroke-width:1;" width="50.9619" x="948.877" y="1119.715"/><text fill="#000000" font-family="Verdana" font-size="14" lengthAdjust="spacing" textLength="4.4502" x="948.877" y="1132.7101">&#160;</text><text fill="#000000" font-family="Verdana" font-size="14" lengthAdjust="spacing" textLength="137.1084" x="1004.2891" y="1132.7101">Awaiting conditions</text><text fill="#000000" font-family="Verdana" font-size="14" lengthAdjust="spacing" textLength="138.6875" x="805.7393" y="1149.007">READY_TO_COMMIT</text><rect fill="#4CAF50" height="16.2969" style="stroke:none;stroke-width:1;" width="50.9619" x="948.877" y="1136.0119"/><text fill="#000000" font-family="Verdana" font-size="14" lengthAdjust="spacing" textLength="4.4502" x="948.877" y="1149.007">&#160;</text><text fill="#000000" font-family="Verdana" font-size="14" lengthAdjust="spacing" textLength="109.8193" x="1004.2891" y="1149.007">Ready for order</text><text fill="#000000" font-family="Verdana" font-size="14" lengthAdjust="spacing" textLength="85.8115" x="805.7393" y="1165.3039">COMMITTED</text><rect fill="#8BC34A" height="16.2969" style="stroke:none;stroke-width:1;" width="50.9619" x="948.877" y="1152.3088"/><text fill="#000000" font-family="Verdana" font-size="14" lengthAdjust="spacing" textLength="4.4502" x="948.877" y="1165.3039">&#160;</text><text fill="#000000" font-family="Verdana" font-size="14" lengthAdjust="spacing" textLength="98.1162" x="1004.2891" y="1165.3039">Order created</text><text fill="#000000" font-family="Verdana" font-size="14" lengthAdjust="spacing" textLength="73.5068" x="805.7393" y="1181.6007">FULFILLED</text><rect fill="#009688" height="16.2969" style="stroke:none;stroke-width:1;" width="50.9619" x="948.877" y="1168.6056"/><text fill="#000000" font-family="Verdana" font-size="14" lengthAdjust="spacing" textLength="4.4502" x="948.877" y="1181.6007">&#160;</text><text fill="#000000" font-family="Verdana" font-size="14" lengthAdjust="spacing" textLength="56.3555" x="1004.2891" y="1181.6007">Success</text><text fill="#000000" font-family="Verdana" font-size="14" lengthAdjust="spacing" textLength="83.6719" x="805.7393" y="1197.8976">CANCELLED</text><rect fill="#F44336" height="16.2969" style="stroke:none;stroke-width:1;" width="50.9619" x="948.877" y="1184.9025"/><text fill="#000000" font-family="Verdana" font-size="14" lengthAdjust="spacing" textLength="4.4502" x="948.877" y="1197.8976">&#160;</text><text fill="#000000" font-family="Verdana" font-size="14" lengthAdjust="spacing" textLength="103.0996" x="1004.2891" y="1197.8976">User cancelled</text><text fill="#000000" font-family="Verdana" font-size="14" lengthAdjust="spacing" textLength="60.3613" x="805.7393" y="1214.1945">EXPIRED</text><rect fill="#9E9E9E" height="16.2969" style="stroke:none;stroke-width:1;" width="50.9619" x="948.877" y="1201.1994"/><text fill="#000000" font-family="Verdana" font-size="14" lengthAdjust="spacing" textLength="4.4502" x="948.877" y="1214.1945">&#160;</text><text fill="#000000" font-family="Verdana" font-size="14" lengthAdjust="spacing" textLength="57.6201" x="1004.2891" y="1214.1945">Timeout</text><text fill="#000000" font-family="Verdana" font-size="14" lengthAdjust="spacing" textLength="49.1846" x="805.7393" y="1230.4914">FAILED</text><rect fill="#E91E63" height="16.2969" style="stroke:none;stroke-width:1;" width="50.9619" x="948.877" y="1217.4963"/><text fill="#000000" font-family="Verdana" font-size="14" lengthAdjust="spacing" textLength="4.4502" x="948.877" y="1230.4914">&#160;</text><text fill="#000000" font-family="Verdana" font-size="14" lengthAdjust="spacing" textLength="34.6787" x="1004.2891" y="1230.4914">Error</text><line style="stroke:#000000;stroke-width:1;" x1="801.2891" x2="1145.8477" y1="1087.1213" y2="1087.1213"/><line style="stroke:#000000;stroke-width:1;" x1="801.2891" x2="1145.8477" y1="1103.4181" y2="1103.4181"/><line style="stroke:#000000;stroke-width:1;" x1="801.2891" x2="1145.8477" y1="1119.715" y2="1119.715"/><line style="stroke:#000000;stroke-width:1;" x1="801.2891" x2="1145.8477" y1="1136.0119" y2="1136.0119"/><line style="stroke:#000000;stroke-width:1;" x1="801.2891" x2="1145.8477" y1="1152.3088" y2="1152.3088"/><line style="stroke:#000000;stroke-width:1;" x1="801.2891" x2="1145.8477" y1="1168.6056" y2="1168.6056"/><line style="stroke:#000000;stroke-width:1;" x1="801.2891" x2="1145.8477" y1="1184.9025" y2="1184.9025"/><line style="stroke:#000000;stroke-width:1;" x1="801.2891" x2="1145.8477" y1="1201.1994" y2="1201.1994"/><line style="stroke:#000000;stroke-width:1;" x1="801.2891" x2="1145.8477" y1="1217.4963" y2="1217.4963"/><line style="stroke:#000000;stroke-width:1;" x1="801.2891" x2="1145.8477" y1="1233.7931" y2="1233.7931"/><line style="stroke:#000000;stroke-width:1;" x1="801.2891" x2="801.2891" y1="1087.1213" y2="1233.7931"/><line style="stroke:#000000;stroke-width:1;" x1="948.877" x2="948.877" y1="1087.1213" y2="1233.7931"/><line style="stroke:#000000;stroke-width:1;" x1="999.8389" x2="999.8389" y1="1087.1213" y2="1233.7931"/><line style="stroke:#000000;stroke-width:1;" x1="1145.8477" x2="1145.8477" y1="1087.1213" y2="1233.7931"/></g><!--SRC=[VLVRRkCs47tNLx2xBra3QJQN1adW671akJMGn87je5ji0uEMg9Y897ebEhjkj__UuV0YofRjF4JYd1cUuToeN-IIvOoiCigBG7APCT9DHI59nVzXjsUVUzr5xubkSWPB8QoND9PaAgbav876IrwmxicYrprHEhqWgDvuiQ8bpSc2nc-lfLWNIIWoKPAFG_nvY8IbT9t98MWQo6VyjKEcm8USdkqHoWqGNuWiyIbKIFFVWC3lhacdsqrAcifUZtmyExs-79uZo57nn8PsguqLAn9Ul6hOzHLGtxBY0OnlhNPAHfED0bs4_U5lErQS-12NMEGvbv8b2dXr5vvVzBVjD227-AJhBELPPe7NbrTNsxOQa8EyQ14p1xouE3-_tE7LW1omnNwiUAbXrv7wsxRa0GxPIIatkqNNfz7bJl1hkMz5b0ahcvbQhy-MF7uhM5MHi-0_FmaBiIy7qNe_71oqlbiT3UkqBCLtOzx0pl6tHzckUWMZx66XVEXq1fF-SDRfV22q8bW1fAu4lOc1kbOGGd92HjKQyrYlABleUybVbvA8L8l1IASpAhZaDDDzfDE1jMCudEgDoMb1LzLII1BJbLn3A546koMW8OgASAqApK2B7fYa2PKKY0aBVoh5EuVJ170g2CjNSXD08M8eF6UVeiV1wF5tuwufLU8NRSFb_dSAMmEYPkChpgcIxtfjnEYtvuSKn9JGZJc0bUwoSxgMIr4w1zEIhfDvl6Jn6pdYAM45NK1oVWhGuj2M8Lbij27JhFlEIlGEht_G8ibOsNOCawW_-6i-6y_3ySF3o4OVUmwfUq_pABBCZmd4eDQPvwpb5524_YZTkDQz9SFd- -7e_ZuQe7Y2-wQGibWG1BC9a2YSWRrNLbPaZCLYH0TyqoxDee7nodL0qko63U_GU2En7NIEf7RTSm2aYQ1HOb8Iib0vZEM2ul6NqK1xGDWFNacLr6HmfrFNZ5gR_YTUDhJuvyxE-EUwCcbsw3R_HBxAc6HDlNbibdTzT1XCl1ahSrv03MkZnsJw78RHT6gIUTiFNFoJBPP2lAdJI7cPjxiKzX_3o7F93GVI61Gx4R2Y5dQ6qtEbyicPmv8IQzdW-owWSIGd9KkXIxSJZBuyZIQEdfaun9izszICO3ynrqnditj0nup1rkJex6Bv2ULJ62kGvqJod2d2ROdG7tbPWEEBr7Di9vIutXx7Q38PJxQYwF37PAZQ4Loz98jjkaytbMGvOJ2A_2BysdaXnySzCqTk25mahQDJLhxpcDtSw5bXbuy-gRja46WDfMkRCce3fgYmRSp4anPeZR-BhmUxtejdiOu_sjIlPkCQPQEA6FtYjlA3z184bg9IqqqJbKork2xfrBVwdwkgbuQbGpHzt5wY3PH924qCdkr1QxwudskCUZzydGbi5KUcdraFfhBaAzRMWbzyYmSyg57xcDLy4ENQcd-sxaXDNxbn8vGN4lxzMgrZ6wQclGFSmDm4Yn-2-MtD8BDtjDivWsAecvq1G6xKl9KU54HGxsnNR0Jjkx5kNuEClQgQmjg5SljvQxw-u45VxU1XmAeOOg8YGNug4C6B7Fplci-R7ZpRMvUkT8qpTo14wayOXNHN7IzHDNxhie1w-gD5wMqFRwtZXZ2YzQU9Ge_h0GyEQwmRQ8ZLdnuAErMXh2mBDoCqR_oeKAYj3g_1fbyZL7yrAEXCzrAxBRPFXEWl0WM9L4C305EvhO8G_0y0]--></g></svg>