<svg xmlns="http://www.w3.org/2000/svg" xmlns:xlink="http://www.w3.org/1999/xlink" contentStyleType="text/css" data-diagram-type="DESCRIPTION" height="435px" preserveAspectRatio="none" style="width:5570px;height:435px;background:#FEFEFE;" version="1.1" viewBox="0 0 5570 435" width="5570px" zoomAndPan="magnify"><title>Session State Dependencies for finalizeOrder()</title><defs/><g><rect fill="#FEFEFE" height="435" style="stroke:none;stroke-width:1;" width="5570" x="0" y="0"/><g class="title" data-source-line="2"><text fill="#000000" font-family="Verdana" font-size="22" font-weight="bold" lengthAdjust="spacing" textLength="584.1387" x="2488.4307" y="35.4209">Session State Dependencies for finalizeOrder()</text></g><!--cluster Session Variables Required--><g class="cluster" data-entity="Session Variables Required" data-source-line="7" data-uid="ent0002" id="cluster_Session Variables Required"><rect fill="#E3F2FD" height="180.59" rx="2.5" ry="2.5" style="stroke:#000000;stroke-width:1;" width="3786" x="12" y="100.4094"/><path d="M237.9404,100.4094 L237.9404,109.7063 L227.9404,119.7063 L12,119.7063" fill="none" style="stroke:#000000;stroke-width:1;"/><text fill="#000000" font-family="Verdana" font-size="14" font-weight="bold" lengthAdjust="spacing" textLength="215.9404" x="15" y="114.4045">Session Variables Required</text></g><!--cluster Order Identification--><g class="cluster" data-entity="Order Identification" data-source-line="9" data-uid="ent0003" id="cluster_Order Identification"><rect fill="#E8F5E9" height="106.39" rx="2.5" ry="2.5" style="stroke:#000000;stroke-width:1;" width="443" x="36" y="147.0094"/><path d="M201.9961,147.0094 L201.9961,156.3063 L191.9961,166.3063 L36,166.3063" fill="none" style="stroke:#000000;stroke-width:1;"/><text fill="#000000" font-family="Verdana" font-size="14" font-weight="bold" lengthAdjust="spacing" textLength="155.9961" x="39" y="161.0045">Order Identification</text></g><!--cluster Address Validation--><g class="cluster" data-entity="Address Validation" data-source-line="18" data-uid="ent0008" id="cluster_Address Validation"><rect fill="#FFF3E0" height="113.59" rx="2.5" ry="2.5" style="stroke:#000000;stroke-width:1;" width="1327" x="503" y="143.4094"/><path d="M662.2422,143.4094 L662.2422,152.7063 L652.2422,162.7063 L503,162.7063" fill="none" style="stroke:#000000;stroke-width:1;"/><text fill="#000000" font-family="Verdana" font-size="14" font-weight="bold" lengthAdjust="spacing" textLength="149.2422" x="506" y="157.4045">Address Validation</text></g><!--cluster Basket State--><g class="cluster" data-entity="Basket State" data-source-line="40" data-uid="ent0021" id="cluster_Basket State"><rect fill="#FCE4EC" height="106.39" rx="2.5" ry="2.5" style="stroke:#000000;stroke-width:1;" width="1169" x="1854" y="147.0094"/><path d="M1965.2334,147.0094 L1965.2334,156.3063 L1955.2334,166.3063 L1854,166.3063" fill="none" style="stroke:#000000;stroke-width:1;"/><text fill="#000000" font-family="Verdana" font-size="14" font-weight="bold" lengthAdjust="spacing" textLength="101.2334" x="1857" y="161.0045">Basket State</text></g><!--cluster User State--><g class="cluster" data-entity="User State" data-source-line="61" data-uid="ent0034" id="cluster_User State"><rect fill="#F3E5F5" height="97.29" rx="2.5" ry="2.5" style="stroke:#000000;stroke-width:1;" width="727" x="3047" y="151.5594"/><path d="M3140.3848,151.5594 L3140.3848,160.8563 L3130.3848,170.8563 L3047,170.8563" fill="none" style="stroke:#000000;stroke-width:1;"/><text fill="#000000" font-family="Verdana" font-size="14" font-weight="bold" lengthAdjust="spacing" textLength="83.3848" x="3050" y="165.5545">User State</text></g><!--cluster PROBLEM: State Sources--><g class="cluster" data-entity="PROBLEM. State Sources" data-source-line="76" data-uid="ent0043" id="cluster_PROBLEM. State Sources"><rect fill="#FFCDD2" height="264.19" rx="2.5" ry="2.5" style="stroke:#000000;stroke-width:1;" width="592" x="4972" y="58.6094"/><path d="M5178.4854,58.6094 L5178.4854,67.9063 L5168.4854,77.9063 L4972,77.9063" fill="none" style="stroke:#000000;stroke-width:1;"/><text fill="#000000" font-family="Verdana" font-size="14" font-weight="bold" lengthAdjust="spacing" textLength="196.4854" x="4975" y="72.6045">PROBLEM: State Sources</text></g><!--cluster Standard Checkout--><g class="cluster" data-entity="Standard Checkout" data-source-line="78" data-uid="ent0044" id="cluster_Standard Checkout"><rect fill="#FFFFFF" height="166.93" rx="2.5" ry="2.5" style="stroke:#000000;stroke-width:1;" width="258" x="4996" y="116.7394"/><path d="M5157.0811,116.7394 L5157.0811,126.0363 L5147.0811,136.0363 L4996,136.0363" fill="none" style="stroke:#000000;stroke-width:1;"/><text fill="#000000" font-family="Verdana" font-size="14" font-weight="bold" lengthAdjust="spacing" textLength="151.0811" x="4999" y="130.7345">Standard Checkout</text></g><!--cluster Stripe Checkout Return--><g class="cluster" data-entity="Stripe Checkout Return" data-source-line="90" data-uid="ent0046" id="cluster_Stripe Checkout Return"><rect fill="#FFFFFF" height="197.19" rx="2.5" ry="2.5" style="stroke:#000000;stroke-width:1;" width="262" x="5278" y="101.6094"/><path d="M5473.1719,101.6094 L5473.1719,110.9063 L5463.1719,120.9063 L5278,120.9063" fill="none" style="stroke:#000000;stroke-width:1;"/><text fill="#000000" font-family="Verdana" font-size="14" font-weight="bold" lengthAdjust="spacing" textLength="185.1719" x="5281" y="115.6045">Stripe Checkout Return</text></g><!--cluster SOLUTION: Contract as State Store--><g class="cluster" data-entity="SOLUTION. Contract as State Store" data-source-line="105" data-uid="ent0048" id="cluster_SOLUTION. Contract as State Store"><rect fill="#C8E6C9" height="327.49" rx="2.5" ry="2.5" style="stroke:#000000;stroke-width:1;" width="1126" x="3822" y="101.6094"/><path d="M4108.623,101.6094 L4108.623,110.9063 L4098.623,120.9063 L3822,120.9063" fill="none" style="stroke:#000000;stroke-width:1;"/><text fill="#000000" font-family="Verdana" font-size="14" font-weight="bold" lengthAdjust="spacing" textLength="276.623" x="3825" y="115.6045">SOLUTION: Contract as State Store</text></g><!--cluster Contract Metadata--><g class="cluster" data-entity="Contract Metadata" data-source-line="107" data-uid="ent0049" id="cluster_Contract Metadata"><rect fill="#E8F5E9" height="253.54" rx="2.5" ry="2.5" style="stroke:#000000;stroke-width:1;" width="825" x="3846" y="151.5594"/><path d="M4003.9434,151.5594 L4003.9434,160.8563 L3993.9434,170.8563 L3846,170.8563" fill="none" style="stroke:#000000;stroke-width:1;"/><text fill="#000000" font-family="Verdana" font-size="14" font-weight="bold" lengthAdjust="spacing" textLength="147.9434" x="3849" y="165.5545">Contract Metadata</text></g><!--entity SC--><g class="entity" data-entity="SC" data-source-line="10" data-uid="ent0004" id="entity_SC"><rect fill="#FFFFFF" height="46.2969" rx="2.5" ry="2.5" style="stroke:#000000;stroke-width:1;" width="145.4102" x="52.29" y="186.5594"/><rect fill="#FFFFFF" height="10" style="stroke:#000000;stroke-width:1;" width="15" x="177.7002" y="191.5594"/><rect fill="#FFFFFF" height="2" style="stroke:#000000;stroke-width:1;" width="4" x="175.7002" y="193.5594"/><rect fill="#FFFFFF" height="2" style="stroke:#000000;stroke-width:1;" width="4" x="175.7002" y="197.5594"/><text fill="#000000" font-family="Verdana" font-size="14" lengthAdjust="spacing" textLength="105.4102" x="67.29" y="219.5545">sess_challenge</text></g><g class="entity" data-entity="GMN5" data-source-line="12" data-uid="ent0006" id="entity_GMN5"><path d="M232.98,182.0094 L232.98,205.7094 L198.17,209.7094 L232.98,213.7094 L232.98,237.4078 A0,0 0 0 0 232.98,237.4078 L463.021,237.4078 A0,0 0 0 0 463.021,237.4078 L463.021,192.0094 L453.021,182.0094 L232.98,182.0094 A0,0 0 0 0 232.98,182.0094" fill="#FFFFFF" style="stroke:#000000;stroke-width:1;"/><path d="M453.021,182.0094 L453.021,192.0094 L463.021,192.0094 L453.021,182.0094" fill="#FFFFFF" style="stroke:#000000;stroke-width:1;"/><text fill="#000000" font-family="Verdana" font-size="13" lengthAdjust="spacing" textLength="55.1484" x="238.98" y="199.0763">Order ID</text><text fill="#000000" font-family="Verdana" font-size="13" lengthAdjust="spacing" textLength="185.7769" x="238.98" y="214.2091">Used for idempotency check</text><text fill="#000000" font-family="Verdana" font-size="13" lengthAdjust="spacing" textLength="209.041" x="238.98" y="229.3419">Set by OrderController::render()</text></g><!--entity DAM--><g class="entity" data-entity="DAM" data-source-line="19" data-uid="ent0009" id="entity_DAM"><rect fill="#FFFFFF" height="62.5938" rx="2.5" ry="2.5" style="stroke:#000000;stroke-width:1;" width="193.4805" x="519.26" y="178.4094"/><rect fill="#FFFFFF" height="10" style="stroke:#000000;stroke-width:1;" width="15" x="692.7405" y="183.4094"/><rect fill="#FFFFFF" height="2" style="stroke:#000000;stroke-width:1;" width="4" x="690.7405" y="185.4094"/><rect fill="#FFFFFF" height="2" style="stroke:#000000;stroke-width:1;" width="4" x="690.7405" y="189.4094"/><text fill="#000000" font-family="Verdana" font-size="14" lengthAdjust="spacing" textLength="153.4805" x="534.26" y="211.4045">sDeliveryAddressMD5</text><text fill="#000000" font-family="Verdana" font-size="14" lengthAdjust="spacing" textLength="118.3096" x="534.26" y="227.7014">(Request param)</text></g><g class="entity" data-entity="GMN10" data-source-line="21" data-uid="ent0011" id="entity_GMN10"><path d="M748.21,182.0094 L748.21,205.7094 L713,209.7094 L748.21,213.7094 L748.21,237.4078 A0,0 0 0 0 748.21,237.4078 L995.7896,237.4078 A0,0 0 0 0 995.7896,237.4078 L995.7896,192.0094 L985.7896,182.0094 L748.21,182.0094 A0,0 0 0 0 748.21,182.0094" fill="#FFFFFF" style="stroke:#000000;stroke-width:1;"/><path d="M985.7896,182.0094 L985.7896,192.0094 L995.7896,192.0094 L985.7896,182.0094" fill="#FFFFFF" style="stroke:#000000;stroke-width:1;"/><text fill="#000000" font-family="Verdana" font-size="13" lengthAdjust="spacing" textLength="161.2432" x="754.21" y="199.0763">Hash of delivery address</text><text fill="#000000" font-family="Verdana" font-size="13" lengthAdjust="spacing" textLength="226.5796" x="754.21" y="214.2091">Compared against current address</text><text fill="#000000" font-family="Verdana" font-size="13" lengthAdjust="spacing" textLength="216.1567" x="754.21" y="229.3419">Prevents address change attacks</text></g><!--entity SAM--><g class="entity" data-entity="SAM" data-source-line="26" data-uid="ent0013" id="entity_SAM"><rect fill="#FFFFFF" height="62.5938" rx="2.5" ry="2.5" style="stroke:#000000;stroke-width:1;" width="135.4502" x="1031.27" y="178.4094"/><rect fill="#FFFFFF" height="10" style="stroke:#000000;stroke-width:1;" width="15" x="1146.7202" y="183.4094"/><rect fill="#FFFFFF" height="2" style="stroke:#000000;stroke-width:1;" width="4" x="1144.7202" y="185.4094"/><rect fill="#FFFFFF" height="2" style="stroke:#000000;stroke-width:1;" width="4" x="1144.7202" y="189.4094"/><text fill="#000000" font-family="Verdana" font-size="14" lengthAdjust="spacing" textLength="95.4502" x="1046.27" y="211.4045">sDelAddrMD5</text><text fill="#000000" font-family="Verdana" font-size="14" lengthAdjust="spacing" textLength="91.4102" x="1046.27" y="227.7014">(Session var)</text></g><g class="entity" data-entity="GMN14" data-source-line="28" data-uid="ent0015" id="entity_GMN14"><path d="M1201.31,182.0094 L1201.31,205.7094 L1167.07,209.7094 L1201.31,213.7094 L1201.31,237.4078 A0,0 0 0 0 1201.31,237.4078 L1440.6948,237.4078 A0,0 0 0 0 1440.6948,237.4078 L1440.6948,192.0094 L1430.6948,182.0094 L1201.31,182.0094 A0,0 0 0 0 1201.31,182.0094" fill="#FFFFFF" style="stroke:#000000;stroke-width:1;"/><path d="M1430.6948,182.0094 L1430.6948,192.0094 L1440.6948,192.0094 L1430.6948,182.0094" fill="#FFFFFF" style="stroke:#000000;stroke-width:1;"/><text fill="#000000" font-family="Verdana" font-size="13" font-weight="bold" lengthAdjust="spacing" textLength="110.0874" x="1207.31" y="199.0763">Stripe Fallback</text><text fill="#000000" font-family="Verdana" font-size="13" lengthAdjust="spacing" textLength="192.2642" x="1207.31" y="214.2091">Used when no request param</text><text fill="#000000" font-family="Verdana" font-size="13" lengthAdjust="spacing" textLength="218.3848" x="1207.31" y="229.3419">Restored from contract metadata</text></g><!--entity DAI--><g class="entity" data-entity="DAI" data-source-line="33" data-uid="ent0017" id="entity_DAI"><rect fill="#FFFFFF" height="46.2969" rx="2.5" ry="2.5" style="stroke:#000000;stroke-width:1;" width="97.3877" x="1475.31" y="186.5594"/><rect fill="#FFFFFF" height="10" style="stroke:#000000;stroke-width:1;" width="15" x="1552.6977" y="191.5594"/><rect fill="#FFFFFF" height="2" style="stroke:#000000;stroke-width:1;" width="4" x="1550.6977" y="193.5594"/><rect fill="#FFFFFF" height="2" style="stroke:#000000;stroke-width:1;" width="4" x="1550.6977" y="197.5594"/><text fill="#000000" font-family="Verdana" font-size="14" lengthAdjust="spacing" textLength="57.3877" x="1490.31" y="219.5545">deladrid</text></g><g class="entity" data-entity="GMN18" data-source-line="35" data-uid="ent0019" id="entity_GMN18"><path d="M1607.56,189.5694 L1607.56,205.7094 L1572.94,209.7094 L1607.56,213.7094 L1607.56,229.835 A0,0 0 0 0 1607.56,229.835 L1814.4321,229.835 A0,0 0 0 0 1814.4321,229.835 L1814.4321,199.5694 L1804.4321,189.5694 L1607.56,189.5694 A0,0 0 0 0 1607.56,189.5694" fill="#FFFFFF" style="stroke:#000000;stroke-width:1;"/><path d="M1804.4321,189.5694 L1804.4321,199.5694 L1814.4321,199.5694 L1804.4321,189.5694" fill="#FFFFFF" style="stroke:#000000;stroke-width:1;"/><text fill="#000000" font-family="Verdana" font-size="13" lengthAdjust="spacing" textLength="127.4292" x="1613.56" y="206.6363">Delivery address ID</text><text fill="#000000" font-family="Verdana" font-size="13" lengthAdjust="spacing" textLength="185.8721" x="1613.56" y="221.7691">If user has separate delivery</text></g><!--entity SB--><g class="entity" data-entity="SB" data-source-line="41" data-uid="ent0022" id="entity_SB"><rect fill="#FFFFFF" height="46.2969" rx="2.5" ry="2.5" style="stroke:#000000;stroke-width:1;" width="145.5537" x="1870.22" y="186.5594"/><rect fill="#FFFFFF" height="10" style="stroke:#000000;stroke-width:1;" width="15" x="1995.7737" y="191.5594"/><rect fill="#FFFFFF" height="2" style="stroke:#000000;stroke-width:1;" width="4" x="1993.7737" y="193.5594"/><rect fill="#FFFFFF" height="2" style="stroke:#000000;stroke-width:1;" width="4" x="1993.7737" y="197.5594"/><text fill="#000000" font-family="Verdana" font-size="14" lengthAdjust="spacing" textLength="105.5537" x="1885.22" y="219.5545">Session Basket</text></g><g class="entity" data-entity="GMN23" data-source-line="43" data-uid="ent0024" id="entity_GMN23"><path d="M2050.73,182.0094 L2050.73,205.7094 L2015.99,209.7094 L2050.73,213.7094 L2050.73,237.4078 A0,0 0 0 0 2050.73,237.4078 L2239.2637,237.4078 A0,0 0 0 0 2239.2637,237.4078 L2239.2637,192.0094 L2229.2637,182.0094 L2050.73,182.0094 A0,0 0 0 0 2050.73,182.0094" fill="#FFFFFF" style="stroke:#000000;stroke-width:1;"/><path d="M2229.2637,182.0094 L2229.2637,192.0094 L2239.2637,192.0094 L2229.2637,182.0094" fill="#FFFFFF" style="stroke:#000000;stroke-width:1;"/><text fill="#000000" font-family="Verdana" font-size="13" lengthAdjust="spacing" textLength="154.5908" x="2056.73" y="199.0763">Complete basket object</text><text fill="#000000" font-family="Verdana" font-size="13" lengthAdjust="spacing" textLength="167.5337" x="2056.73" y="214.2091">Products, prices, shipping</text><text fill="#000000" font-family="Verdana" font-size="13" lengthAdjust="spacing" textLength="150.8711" x="2056.73" y="229.3419">Must exist and be valid</text></g><!--entity PI--><g class="entity" data-entity="PI" data-source-line="48" data-uid="ent0026" id="entity_PI"><rect fill="#FFFFFF" height="46.2969" rx="2.5" ry="2.5" style="stroke:#000000;stroke-width:1;" width="121.2793" x="2274.36" y="186.5594"/><rect fill="#FFFFFF" height="10" style="stroke:#000000;stroke-width:1;" width="15" x="2375.6393" y="191.5594"/><rect fill="#FFFFFF" height="2" style="stroke:#000000;stroke-width:1;" width="4" x="2373.6393" y="193.5594"/><rect fill="#FFFFFF" height="2" style="stroke:#000000;stroke-width:1;" width="4" x="2373.6393" y="197.5594"/><text fill="#000000" font-family="Verdana" font-size="14" lengthAdjust="spacing" textLength="81.2793" x="2289.36" y="219.5545">Payment ID</text></g><g class="entity" data-entity="GMN27" data-source-line="50" data-uid="ent0028" id="entity_GMN27"><path d="M2431.13,189.5694 L2431.13,205.7094 L2396.07,209.7094 L2431.13,213.7094 L2431.13,229.835 A0,0 0 0 0 2431.13,229.835 L2624.8624,229.835 A0,0 0 0 0 2624.8624,229.835 L2624.8624,199.5694 L2614.8624,189.5694 L2431.13,189.5694 A0,0 0 0 0 2431.13,189.5694" fill="#FFFFFF" style="stroke:#000000;stroke-width:1;"/><path d="M2614.8624,189.5694 L2614.8624,199.5694 L2624.8624,199.5694 L2614.8624,189.5694" fill="#FFFFFF" style="stroke:#000000;stroke-width:1;"/><text fill="#000000" font-family="Verdana" font-size="13" lengthAdjust="spacing" textLength="172.7324" x="2437.13" y="206.6363">Selected payment method</text><text fill="#000000" font-family="Verdana" font-size="13" lengthAdjust="spacing" textLength="167.2861" x="2437.13" y="221.7691">Set by PaymentController</text></g><!--entity SI--><g class="entity" data-entity="SI" data-source-line="54" data-uid="ent0030" id="entity_SI"><rect fill="#FFFFFF" height="46.2969" rx="2.5" ry="2.5" style="stroke:#000000;stroke-width:1;" width="120.4316" x="2659.78" y="186.5594"/><rect fill="#FFFFFF" height="10" style="stroke:#000000;stroke-width:1;" width="15" x="2760.2116" y="191.5594"/><rect fill="#FFFFFF" height="2" style="stroke:#000000;stroke-width:1;" width="4" x="2758.2116" y="193.5594"/><rect fill="#FFFFFF" height="2" style="stroke:#000000;stroke-width:1;" width="4" x="2758.2116" y="197.5594"/><text fill="#000000" font-family="Verdana" font-size="14" lengthAdjust="spacing" textLength="80.4316" x="2674.78" y="219.5545">Shipping ID</text></g><g class="entity" data-entity="GMN31" data-source-line="56" data-uid="ent0032" id="entity_GMN31"><path d="M2815.47,189.5694 L2815.47,205.7094 L2780.43,209.7094 L2815.47,213.7094 L2815.47,229.835 A0,0 0 0 0 2815.47,229.835 L3006.5237,229.835 A0,0 0 0 0 3006.5237,229.835 L3006.5237,199.5694 L2996.5237,189.5694 L2815.47,189.5694 A0,0 0 0 0 2815.47,189.5694" fill="#FFFFFF" style="stroke:#000000;stroke-width:1;"/><path d="M2996.5237,189.5694 L2996.5237,199.5694 L3006.5237,199.5694 L2996.5237,189.5694" fill="#FFFFFF" style="stroke:#000000;stroke-width:1;"/><text fill="#000000" font-family="Verdana" font-size="13" lengthAdjust="spacing" textLength="170.0537" x="2821.47" y="206.6363">Selected shipping method</text><text fill="#000000" font-family="Verdana" font-size="13" lengthAdjust="spacing" textLength="167.2861" x="2821.47" y="221.7691">Set by PaymentController</text></g><!--entity UO--><g class="entity" data-entity="UO" data-source-line="62" data-uid="ent0035" id="entity_UO"><rect fill="#FFFFFF" height="46.2969" rx="2.5" ry="2.5" style="stroke:#000000;stroke-width:1;" width="121.9561" x="3063.02" y="186.5594"/><rect fill="#FFFFFF" height="10" style="stroke:#000000;stroke-width:1;" width="15" x="3164.9761" y="191.5594"/><rect fill="#FFFFFF" height="2" style="stroke:#000000;stroke-width:1;" width="4" x="3162.9761" y="193.5594"/><rect fill="#FFFFFF" height="2" style="stroke:#000000;stroke-width:1;" width="4" x="3162.9761" y="197.5594"/><text fill="#000000" font-family="Verdana" font-size="14" lengthAdjust="spacing" textLength="81.9561" x="3078.02" y="219.5545">User Object</text></g><g class="entity" data-entity="GMN36" data-source-line="64" data-uid="ent0037" id="entity_GMN36"><path d="M3220.06,189.5694 L3220.06,205.7094 L3185.14,209.7094 L3220.06,213.7094 L3220.06,229.835 A0,0 0 0 0 3220.06,229.835 L3391.9311,229.835 A0,0 0 0 0 3391.9311,229.835 L3391.9311,199.5694 L3381.9311,189.5694 L3220.06,189.5694 A0,0 0 0 0 3220.06,189.5694" fill="#FFFFFF" style="stroke:#000000;stroke-width:1;"/><path d="M3381.9311,189.5694 L3381.9311,199.5694 L3391.9311,199.5694 L3381.9311,189.5694" fill="#FFFFFF" style="stroke:#000000;stroke-width:1;"/><text fill="#000000" font-family="Verdana" font-size="13" lengthAdjust="spacing" textLength="96.9795" x="3226.06" y="206.6363">Logged-in user</text><text fill="#000000" font-family="Verdana" font-size="13" lengthAdjust="spacing" textLength="150.8711" x="3226.06" y="221.7691">Must exist and be valid</text></g><!--entity DV--><g class="entity" data-entity="DV" data-source-line="68" data-uid="ent0039" id="entity_DV"><rect fill="#FFFFFF" height="46.2969" rx="2.5" ry="2.5" style="stroke:#000000;stroke-width:1;" width="104.2852" x="3426.86" y="186.5594"/><rect fill="#FFFFFF" height="10" style="stroke:#000000;stroke-width:1;" width="15" x="3511.1452" y="191.5594"/><rect fill="#FFFFFF" height="2" style="stroke:#000000;stroke-width:1;" width="4" x="3509.1452" y="193.5594"/><rect fill="#FFFFFF" height="2" style="stroke:#000000;stroke-width:1;" width="4" x="3509.1452" y="197.5594"/><text fill="#000000" font-family="Verdana" font-size="14" lengthAdjust="spacing" textLength="64.2852" x="3441.86" y="219.5545">dynvalue</text></g><g class="entity" data-entity="GMN40" data-source-line="70" data-uid="ent0041" id="entity_GMN40"><path d="M3565.73,189.5694 L3565.73,205.7094 L3531.54,209.7094 L3565.73,213.7094 L3565.73,229.835 A0,0 0 0 0 3565.73,229.835 L3758.2754,229.835 A0,0 0 0 0 3758.2754,229.835 L3758.2754,199.5694 L3748.2754,189.5694 L3565.73,189.5694 A0,0 0 0 0 3565.73,189.5694" fill="#FFFFFF" style="stroke:#000000;stroke-width:1;"/><path d="M3748.2754,189.5694 L3748.2754,199.5694 L3758.2754,199.5694 L3748.2754,189.5694" fill="#FFFFFF" style="stroke:#000000;stroke-width:1;"/><text fill="#000000" font-family="Verdana" font-size="13" lengthAdjust="spacing" textLength="152.7881" x="3571.73" y="206.6363">Dynamic payment data</text><text fill="#000000" font-family="Verdana" font-size="13" lengthAdjust="spacing" textLength="171.5454" x="3571.73" y="221.7691">e.g., bank details for SEPA</text></g><g class="entity" data-entity="N1" data-source-line="80" data-uid="ent0045" id="entity_N1"><path d="M5011.6,151.7394 L5011.6,267.6691 L5238.391,267.6691 L5238.391,161.7394 L5228.391,151.7394 L5011.6,151.7394" fill="#FFFFFF" style="stroke:#000000;stroke-width:1;"/><path d="M5228.391,151.7394 L5228.391,161.7394 L5238.391,161.7394 L5228.391,151.7394" fill="#FFFFFF" style="stroke:#000000;stroke-width:1;"/><text fill="#000000" font-family="Verdana" font-size="13" font-weight="bold" lengthAdjust="spacing" textLength="134.9131" x="5017.6" y="168.8063">State comes from:</text><text fill="#000000" font-family="Verdana" font-size="13" lengthAdjust="spacing" textLength="167.8257" x="5017.6" y="183.9391">- Form submission (POST)</text><text fill="#000000" font-family="Verdana" font-size="13" lengthAdjust="spacing" textLength="110.4175" x="5017.6" y="199.0719">- Current session</text><text fill="#000000" font-family="Verdana" font-size="13" lengthAdjust="spacing" textLength="78.0698" x="5017.6" y="214.2047">- Fresh data</text><text fill="#000000" font-family="Verdana" font-size="13" lengthAdjust="spacing" textLength="4.1323" x="5017.6" y="229.3375">&#160;</text><text fill="#000000" font-family="Verdana" font-size="13" font-weight="bold" lengthAdjust="spacing" textLength="116.2002" x="5017.6" y="244.4703">Works because:</text><text fill="#000000" font-family="Verdana" font-size="13" lengthAdjust="spacing" textLength="205.791" x="5017.6" y="259.6031">Sequential flow, no interruption</text></g><g class="entity" data-entity="N2" data-source-line="92" data-uid="ent0047" id="entity_N2"><path d="M5293.78,136.6094 L5293.78,282.8047 L5524.2273,282.8047 L5524.2273,146.6094 L5514.2273,136.6094 L5293.78,136.6094" fill="#FFFFFF" style="stroke:#000000;stroke-width:1;"/><path d="M5514.2273,136.6094 L5514.2273,146.6094 L5524.2273,146.6094 L5514.2273,136.6094" fill="#FFFFFF" style="stroke:#000000;stroke-width:1;"/><text fill="#000000" font-family="Verdana" font-size="13" font-weight="bold" lengthAdjust="spacing" textLength="134.9131" x="5299.78" y="153.6763">State comes from:</text><text fill="#000000" font-family="Verdana" font-size="13" lengthAdjust="spacing" textLength="173.272" x="5299.78" y="168.8091">- URL parameters (limited)</text><text fill="#000000" font-family="Verdana" font-size="13" lengthAdjust="spacing" textLength="187.5796" x="5299.78" y="183.9419">- Contract metadata (stored)</text><text fill="#000000" font-family="Verdana" font-size="13" lengthAdjust="spacing" textLength="209.4473" x="5299.78" y="199.0747">- Session (may be lost/changed)</text><text fill="#000000" font-family="Verdana" font-size="13" lengthAdjust="spacing" textLength="4.1323" x="5299.78" y="214.2075">&#160;</text><text fill="#000000" font-family="Verdana" font-size="13" font-weight="bold" lengthAdjust="spacing" textLength="131.1299" x="5299.78" y="229.3403">Problem because:</text><text fill="#000000" font-family="Verdana" font-size="13" lengthAdjust="spacing" textLength="151.3535" x="5299.78" y="244.4731">- User left site to Stripe</text><text fill="#000000" font-family="Verdana" font-size="13" lengthAdjust="spacing" textLength="145.6724" x="5299.78" y="259.606">- Session may timeout</text><text fill="#000000" font-family="Verdana" font-size="13" lengthAdjust="spacing" textLength="176.2617" x="5299.78" y="274.7388">- Address hash not in POST</text></g><g class="entity" data-entity="N3" data-source-line="116" data-uid="ent0055" id="entity_N3"><path d="M4690.1,136.6094 L4690.1,282.8047 L4931.8969,282.8047 L4931.8969,146.6094 L4921.8969,136.6094 L4690.1,136.6094" fill="#FFFFFF" style="stroke:#000000;stroke-width:1;"/><path d="M4921.8969,136.6094 L4921.8969,146.6094 L4931.8969,146.6094 L4921.8969,136.6094" fill="#FFFFFF" style="stroke:#000000;stroke-width:1;"/><text fill="#000000" font-family="Verdana" font-size="13" font-weight="bold" lengthAdjust="spacing" textLength="118.6187" x="4696.1" y="153.6763">Contract stores:</text><text fill="#000000" font-family="Verdana" font-size="13" lengthAdjust="spacing" textLength="203.855" x="4696.1" y="168.8091">- All state at checkout initiation</text><text fill="#000000" font-family="Verdana" font-size="13" lengthAdjust="spacing" textLength="201.7222" x="4696.1" y="183.9419">- Can restore session on return</text><text fill="#000000" font-family="Verdana" font-size="13" lengthAdjust="spacing" textLength="149.189" x="4696.1" y="199.0747">- Single source of truth</text><text fill="#000000" font-family="Verdana" font-size="13" lengthAdjust="spacing" textLength="4.1323" x="4696.1" y="214.2075">&#160;</text><text fill="#000000" font-family="Verdana" font-size="13" font-weight="bold" lengthAdjust="spacing" textLength="164.5566" x="4696.1" y="229.3403">On return from Stripe:</text><text fill="#000000" font-family="Verdana" font-size="13" lengthAdjust="spacing" textLength="144.1299" x="4696.1" y="244.4731">1. Load contract by ID</text><text fill="#000000" font-family="Verdana" font-size="13" lengthAdjust="spacing" textLength="220.7969" x="4696.1" y="259.606">2. Restore session from metadata</text><text fill="#000000" font-family="Verdana" font-size="13" lengthAdjust="spacing" textLength="181.4414" x="4696.1" y="274.7388">3. Call finalizeOrder() safely</text></g><!--entity CDH--><g class="entity" data-entity="CDH" data-source-line="108" data-uid="ent0050" id="entity_CDH"><rect fill="#FFFFFF" height="46.2969" rx="2.5" ry="2.5" style="stroke:#000000;stroke-width:1;" width="261.7441" x="3862.13" y="186.5594"/><rect fill="#FFFFFF" height="10" style="stroke:#000000;stroke-width:1;" width="15" x="4103.8741" y="191.5594"/><rect fill="#FFFFFF" height="2" style="stroke:#000000;stroke-width:1;" width="4" x="4101.8741" y="193.5594"/><rect fill="#FFFFFF" height="2" style="stroke:#000000;stroke-width:1;" width="4" x="4101.8741" y="197.5594"/><text fill="#000000" font-family="Verdana" font-size="14" lengthAdjust="spacing" textLength="221.7441" x="3877.13" y="219.5545">contract.delivery_address_hash</text></g><!--entity CDI--><g class="entity" data-entity="CDI" data-source-line="109" data-uid="ent0051" id="entity_CDI"><rect fill="#FFFFFF" height="46.2969" rx="2.5" ry="2.5" style="stroke:#000000;stroke-width:1;" width="240.9014" x="4158.55" y="186.5594"/><rect fill="#FFFFFF" height="10" style="stroke:#000000;stroke-width:1;" width="15" x="4379.4514" y="191.5594"/><rect fill="#FFFFFF" height="2" style="stroke:#000000;stroke-width:1;" width="4" x="4377.4514" y="193.5594"/><rect fill="#FFFFFF" height="2" style="stroke:#000000;stroke-width:1;" width="4" x="4377.4514" y="197.5594"/><text fill="#000000" font-family="Verdana" font-size="14" lengthAdjust="spacing" textLength="200.9014" x="4173.55" y="219.5545">contract.delivery_address_id</text></g><!--entity CBS--><g class="entity" data-entity="CBS" data-source-line="110" data-uid="ent0052" id="entity_CBS"><rect fill="#FFFFFF" height="46.2969" rx="2.5" ry="2.5" style="stroke:#000000;stroke-width:1;" width="220.4209" x="4434.79" y="186.5594"/><rect fill="#FFFFFF" height="10" style="stroke:#000000;stroke-width:1;" width="15" x="4635.2109" y="191.5594"/><rect fill="#FFFFFF" height="2" style="stroke:#000000;stroke-width:1;" width="4" x="4633.2109" y="193.5594"/><rect fill="#FFFFFF" height="2" style="stroke:#000000;stroke-width:1;" width="4" x="4633.2109" y="197.5594"/><text fill="#000000" font-family="Verdana" font-size="14" lengthAdjust="spacing" textLength="180.4209" x="4449.79" y="219.5545">contract.basket_snapshot</text></g><!--entity CUI--><g class="entity" data-entity="CUI" data-source-line="111" data-uid="ent0053" id="entity_CUI"><rect fill="#FFFFFF" height="46.2969" rx="2.5" ry="2.5" style="stroke:#000000;stroke-width:1;" width="152.9092" x="3916.55" y="342.7994"/><rect fill="#FFFFFF" height="10" style="stroke:#000000;stroke-width:1;" width="15" x="4049.4592" y="347.7994"/><rect fill="#FFFFFF" height="2" style="stroke:#000000;stroke-width:1;" width="4" x="4047.4592" y="349.7994"/><rect fill="#FFFFFF" height="2" style="stroke:#000000;stroke-width:1;" width="4" x="4047.4592" y="353.7994"/><text fill="#000000" font-family="Verdana" font-size="14" lengthAdjust="spacing" textLength="112.9092" x="3931.55" y="375.7945">contract.user_id</text></g><!--entity CSI--><g class="entity" data-entity="CSI" data-source-line="112" data-uid="ent0054" id="entity_CSI"><rect fill="#FFFFFF" height="46.2969" rx="2.5" ry="2.5" style="stroke:#000000;stroke-width:1;" width="174.1963" x="4104.9" y="342.7994"/><rect fill="#FFFFFF" height="10" style="stroke:#000000;stroke-width:1;" width="15" x="4259.0963" y="347.7994"/><rect fill="#FFFFFF" height="2" style="stroke:#000000;stroke-width:1;" width="4" x="4257.0963" y="349.7994"/><rect fill="#FFFFFF" height="2" style="stroke:#000000;stroke-width:1;" width="4" x="4257.0963" y="353.7994"/><text fill="#000000" font-family="Verdana" font-size="14" lengthAdjust="spacing" textLength="134.1963" x="4119.9" y="375.7945">contract.session_id</text></g><!--SRC=[fLTTRzis57tNh-3Q5oT8l3LUXjPlYJvG0t5jH7Nsi0q1BL4MPuhKI2gTD-I_xvAK54csWWnLW0Ibhkx7kUUUo_wWSr8GL39CkQUfPWJ5H2agE8errWG5f2Gy9JoXHA5CI9HHZXdzXwnaIkJapFFKdl8IIroWBKxsEoagdlg2WUdxA3G_7OiIBF2EnFe0WJ8u8PvNdw5tJU07B2dUCeXtJ_wgg2JfE_G-d4LNKO3-zJm4J_kDpG8j845DCvfW3GwCzSVeElm4rgX-VbFW_379CME4xyWV22iK- -rhBg1KINUvHYBhlZ1F7IFe7MuKIIqUD2L52P_pv82Id2JxdbbCDDeUd0jVS2q5923dSsb0DV0rXl1lcuKzU1vKUPEc4l87P1XDcngZA9g5F_Lg30YZJqGUQljbSFqxdnWGYTB8Tk3CLXxSB4TAxxunpsUiSdEUrfuHTgvxHhuem3dWWNT08mYLL18Ar2UDrv8ymJlLl0JGC7G4OQsXN7KCIBy-Kvghgw7B4vQkgdYqgdXGrVbvh2Kj2Og03uQrv-V7pVsM4mv-aEpYrpExXsDXwiwaA51YseiJZGgYCNG9lrOAu8bJITEw7OlHTYnw4OD16uQiN6IeKa3M7BmgOZ86RqtltiQrMwpsG5ex_OPbVlXpw7TPrk3k31tojsF0tnuHXH4msBeWOlidIVI07YAj4gqkK2bfGk2locbPKhxhcIqhw0Zvcy9l3DLi2T00PkCroDVuK1XIBWARyteCy_LYCC4CSeGcb_NtqDvSfAUcl8xmCkUlfHFNPJNvn6Fvn2FvDBXyNqAdAB0n56e9C0kle-ik0UphbMsTpNop6icyyy8yTsAt8-abvPQZtzlEzC31fd9I7ZoC3T13VtuE71SqQNlP6rCRQBgRNW0z-Hx6HcFAtDABm_ND67RFdHMslb_TteNBURqyOr59uB0LQpy8hexM5vZn5CiK-MPpY4exNU-WRSk12hzyE58m4o4HXTdBe3_pWOPTeaZ80gbgMr0ti9FrAlvwDZ3oQwbMRgg7Ba1aSeVI8FolGkuLD2h1qCnXxDX89cnap536nBSB8wEKQo9bLUfkb5TfM6jq0mt8hQua7qVewdyZjBc_Sx8EcYGLcZ1QK1Yj8uo6oeucJlY7XeqqJWfyC2HcGkaVtNu3sq5we7HmoId6CBn4TiuOoQ0va1NI0Zb4HeAQc9eM1A0QM3JNXzmiSu0BUe4C5zx2w7Xrj_cwM7sPlw1WnChHsu00_V0_Xh_udux8tNwmh64xUJ5hrkQqMLEFzMvxDEdQwVQ3ps-nhxUf7onEMBkDywWuBbKkd73vj_49IoDEhQ_DAL_rhBH6jKBN_6tvEFDUcjrYOOcZkis6_Z06vmPHhDqTqj2TSWeJr1iNe2BcS26nJfgHHS8ScT7esCMm6E2AhQm06I7KijAvryberNpbRY-EMjsyFan1iN7wSg-1XTAvRbnDc_jFcuXrT7JxcKqXQwXmy1y7f716cBkKjFnxzlu3]--></g></svg>