<svg xmlns="http://www.w3.org/2000/svg" xmlns:xlink="http://www.w3.org/1999/xlink" contentStyleType="text/css" data-diagram-type="STATE" height="3433px" preserveAspectRatio="none" style="width:888px;height:3433px;background:#FEFEFE;" version="1.1" viewBox="0 0 888 3433" width="888px" zoomAndPan="magnify"><defs/><g><rect fill="#FEFEFE" height="3433" style="stroke:none;stroke-width:1;" width="888" x="0" y="0"/><path d="M437.49,168.66 L603.4568,168.66 A12.5,12.5 0 0 1 615.9568,181.16 L615.9568,194.9569 L424.99,194.9569 L424.99,181.16 A12.5,12.5 0 0 1 437.49,168.66" fill="#BBDEFB"/><rect fill="none" height="239.2969" rx="12.5" ry="12.5" style="stroke:#2196F3;stroke-width:0.5;" width="190.9668" x="424.99" y="168.66"/><line style="stroke:#2196F3;stroke-width:0.5;" x1="424.99" x2="615.9568" y1="194.9569" y2="194.9569"/><text fill="#000000" font-family="sans-serif" font-size="14" lengthAdjust="spacing" textLength="64.3262" x="488.3103" y="186.6551">Received</text><g id="Received.Extract"><rect fill="#F1F1F1" height="50" rx="12.5" ry="12.5" style="stroke:#181818;stroke-width:0.5;" width="169.9668" x="436.99" y="261.9569"/><line style="stroke:#181818;stroke-width:0.5;" x1="436.99" x2="606.9568" y1="288.2537" y2="288.2537"/><text fill="#000000" font-family="sans-serif" font-size="14" lengthAdjust="spacing" textLength="149.9668" x="446.99" y="279.952">Extract Request Data</text></g><g id="Received.Parse"><rect fill="#F1F1F1" height="50" rx="12.5" ry="12.5" style="stroke:#181818;stroke-width:0.5;" width="157.3203" x="443.31" y="347.9569"/><line style="stroke:#181818;stroke-width:0.5;" x1="443.31" x2="600.6303" y1="374.2537" y2="374.2537"/><text fill="#000000" font-family="sans-serif" font-size="14" lengthAdjust="spacing" textLength="137.3203" x="453.31" y="365.952">Parse JSON Payload</text></g><ellipse cx="521.97" cy="215.9569" fill="#222222" rx="10" ry="10" style="stroke:#222222;stroke-width:1;"/><!--link *start*Received to Extract--><g class="link" data-entity-1=".start.Received" data-entity-2="Extract" data-source-line="17" data-uid="lnk5" id="link_.start.Received_Extract"><path d="M521.97,226.2669 C521.97,235.3069 521.97,243.4469 521.97,255.6869" fill="none" id="*start*Received-to-Extract" style="stroke:#181818;stroke-width:1;"/><polygon fill="#181818" points="521.97,261.6869,525.97,252.6869,521.97,256.6869,517.97,252.6869,521.97,261.6869" style="stroke:#181818;stroke-width:1;"/></g><!--link Extract to Parse--><g class="link" data-entity-1="Extract" data-entity-2="Parse" data-source-line="18" data-uid="lnk6" id="link_Extract_Parse"><path d="M521.97,312.2569 C521.97,323.3969 521.97,330.5769 521.97,341.7169" fill="none" id="Extract-to-Parse" style="stroke:#181818;stroke-width:1;"/><polygon fill="#181818" points="521.97,347.7169,525.97,338.7169,521.97,342.7169,517.97,338.7169,521.97,347.7169" style="stroke:#181818;stroke-width:1;"/></g><path d="M400.94,484.96 L640.0103,484.96 A12.5,12.5 0 0 1 652.5103,497.46 L652.5103,511.2569 L388.44,511.2569 L388.44,497.46 A12.5,12.5 0 0 1 400.94,484.96" fill="#BBDEFB"/><rect fill="none" height="360.2969" rx="12.5" ry="12.5" style="stroke:#2196F3;stroke-width:0.5;" width="264.0703" x="388.44" y="484.96"/><line style="stroke:#2196F3;stroke-width:0.5;" x1="388.44" x2="652.5103" y1="511.2569" y2="511.2569"/><text fill="#000000" font-family="sans-serif" font-size="14" lengthAdjust="spacing" textLength="103.0928" x="468.9288" y="502.9551">Authenticating</text><g id="Authenticating.ValidateIP"><rect fill="#F1F1F1" height="50" rx="12.5" ry="12.5" style="stroke:#181818;stroke-width:0.5;" width="160.2461" x="441.85" y="579.2569"/><line style="stroke:#181818;stroke-width:0.5;" x1="441.85" x2="602.0961" y1="605.5538" y2="605.5538"/><text fill="#000000" font-family="sans-serif" font-size="14" lengthAdjust="spacing" textLength="140.2461" x="451.85" y="597.252">Validate IP Whitelist</text></g><g id="Authenticating.ValidateFormat"><rect fill="#F1F1F1" height="50" rx="12.5" ry="12.5" style="stroke:#181818;stroke-width:0.5;" width="189.1621" x="427.39" y="682.2569"/><line style="stroke:#181818;stroke-width:0.5;" x1="427.39" x2="616.5521" y1="708.5538" y2="708.5538"/><text fill="#000000" font-family="sans-serif" font-size="14" lengthAdjust="spacing" textLength="169.1621" x="437.39" y="700.252">Validate API Key Format</text></g><g id="Authenticating.CompareKey"><rect fill="#F1F1F1" height="50" rx="12.5" ry="12.5" style="stroke:#181818;stroke-width:0.5;" width="243.0703" x="400.44" y="785.2569"/><line style="stroke:#181818;stroke-width:0.5;" x1="400.44" x2="643.5103" y1="811.5538" y2="811.5538"/><text fill="#000000" font-family="sans-serif" font-size="14" lengthAdjust="spacing" textLength="223.0703" x="410.44" y="803.252">Compare API Key (hash_equals)</text></g><ellipse cx="521.98" cy="532.2569" fill="#222222" rx="10" ry="10" style="stroke:#222222;stroke-width:1;"/><!--link *start*Authenticating to ValidateIP--><g class="link" data-entity-1=".start.Authenticating" data-entity-2="ValidateIP" data-source-line="28" data-uid="lnk9" id="link_.start.Authenticating_ValidateIP"><path d="M521.98,542.6969 C521.98,551.9569 521.98,560.4469 521.98,572.9369" fill="none" id="*start*Authenticating-to-ValidateIP" style="stroke:#181818;stroke-width:1;"/><polygon fill="#181818" points="521.98,578.9369,525.98,569.9369,521.98,573.9369,517.98,569.9369,521.98,578.9369" style="stroke:#181818;stroke-width:1;"/></g><!--link ValidateIP to ValidateFormat--><g class="link" data-entity-1="ValidateIP" data-entity-2="ValidateFormat" data-source-line="29" data-uid="lnk10" id="link_ValidateIP_ValidateFormat"><path d="M521.98,629.7069 C521.98,645.5869 521.98,660.1969 521.98,676.0369" fill="none" id="ValidateIP-to-ValidateFormat" style="stroke:#181818;stroke-width:1;"/><polygon fill="#181818" points="521.98,682.0369,525.98,673.0369,521.98,677.0369,517.98,673.0369,521.98,682.0369" style="stroke:#181818;stroke-width:1;"/><text fill="#000000" font-family="sans-serif" font-size="13" lengthAdjust="spacing" textLength="65.8315" x="522.98" y="660.3238">IP allowed</text></g><!--link ValidateFormat to CompareKey--><g class="link" data-entity-1="ValidateFormat" data-entity-2="CompareKey" data-source-line="30" data-uid="lnk11" id="link_ValidateFormat_CompareKey"><path d="M521.98,732.7069 C521.98,748.5869 521.98,763.1969 521.98,779.0369" fill="none" id="ValidateFormat-to-CompareKey" style="stroke:#181818;stroke-width:1;"/><polygon fill="#181818" points="521.98,785.0369,525.98,776.0369,521.98,780.0369,517.98,776.0369,521.98,785.0369" style="stroke:#181818;stroke-width:1;"/><text fill="#000000" font-family="sans-serif" font-size="13" lengthAdjust="spacing" textLength="81.7705" x="522.98" y="763.3238">Format valid</text></g><path d="M236.94,922.26 L440.0054,922.26 A12.5,12.5 0 0 1 452.5054,934.76 L452.5054,948.5569 L224.44,948.5569 L224.44,934.76 A12.5,12.5 0 0 1 236.94,922.26" fill="#BBDEFB"/><rect fill="none" height="566.2969" rx="12.5" ry="12.5" style="stroke:#2196F3;stroke-width:0.5;" width="228.0654" x="224.44" y="922.26"/><line style="stroke:#2196F3;stroke-width:0.5;" x1="224.44" x2="452.5054" y1="948.5569" y2="948.5569"/><text fill="#000000" font-family="sans-serif" font-size="14" lengthAdjust="spacing" textLength="51.7207" x="312.6124" y="940.2551">Parsing</text><g id="Parsing.ValidateStructure"><rect fill="#F1F1F1" height="50" rx="12.5" ry="12.5" style="stroke:#181818;stroke-width:0.5;" width="207.0654" x="236.44" y="1016.5569"/><line style="stroke:#181818;stroke-width:0.5;" x1="236.44" x2="443.5054" y1="1042.8538" y2="1042.8538"/><text fill="#000000" font-family="sans-serif" font-size="14" lengthAdjust="spacing" textLength="187.0654" x="246.44" y="1034.552">Validate Payload Structure</text></g><g id="Parsing.ExtractField"><rect fill="#F1F1F1" height="50" rx="12.5" ry="12.5" style="stroke:#181818;stroke-width:0.5;" width="143.7578" x="268.09" y="1119.5569"/><line style="stroke:#181818;stroke-width:0.5;" x1="268.09" x2="411.8478" y1="1145.8538" y2="1145.8538"/><text fill="#000000" font-family="sans-serif" font-size="14" lengthAdjust="spacing" textLength="123.7578" x="278.09" y="1137.552">Extract Field Path</text></g><g id="Parsing.ValidateIds"><rect fill="#F1F1F1" height="50" rx="12.5" ry="12.5" style="stroke:#181818;stroke-width:0.5;" width="152.3164" x="263.81" y="1222.5569"/><line style="stroke:#181818;stroke-width:0.5;" x1="263.81" x2="416.1264" y1="1248.8538" y2="1248.8538"/><text fill="#000000" font-family="sans-serif" font-size="14" lengthAdjust="spacing" textLength="132.3164" x="273.81" y="1240.552">Validate Identifiers</text></g><g id="Parsing.ExtractOp"><rect fill="#F1F1F1" height="50" rx="12.5" ry="12.5" style="stroke:#181818;stroke-width:0.5;" width="137.2568" x="271.34" y="1325.5569"/><line style="stroke:#181818;stroke-width:0.5;" x1="271.34" x2="408.5968" y1="1351.8538" y2="1351.8538"/><text fill="#000000" font-family="sans-serif" font-size="14" lengthAdjust="spacing" textLength="117.2568" x="281.34" y="1343.552">Extract Operator</text></g><g id="Parsing.ParseWhere"><rect fill="#F1F1F1" height="50" rx="12.5" ry="12.5" style="stroke:#181818;stroke-width:0.5;" width="166.3984" x="256.77" y="1428.5569"/><line style="stroke:#181818;stroke-width:0.5;" x1="256.77" x2="423.1684" y1="1454.8538" y2="1454.8538"/><text fill="#000000" font-family="sans-serif" font-size="14" lengthAdjust="spacing" textLength="146.3984" x="266.77" y="1446.552">Parse WHERE Clause</text></g><ellipse cx="339.97" cy="969.5569" fill="#222222" rx="10" ry="10" style="stroke:#222222;stroke-width:1;"/><!--link *start*Parsing to ValidateStructure--><g class="link" data-entity-1=".start.Parsing" data-entity-2="ValidateStructure" data-source-line="45" data-uid="lnk18" id="link_.start.Parsing_ValidateStructure"><path d="M339.97,979.9969 C339.97,989.2569 339.97,997.7469 339.97,1010.2369" fill="none" id="*start*Parsing-to-ValidateStructure" style="stroke:#181818;stroke-width:1;"/><polygon fill="#181818" points="339.97,1016.2369,343.97,1007.2369,339.97,1011.2369,335.97,1007.2369,339.97,1016.2369" style="stroke:#181818;stroke-width:1;"/></g><!--link ValidateStructure to ExtractField--><g class="link" data-entity-1="ValidateStructure" data-entity-2="ExtractField" data-source-line="46" data-uid="lnk19" id="link_ValidateStructure_ExtractField"><path d="M339.97,1067.0069 C339.97,1082.8869 339.97,1097.4969 339.97,1113.3369" fill="none" id="ValidateStructure-to-ExtractField" style="stroke:#181818;stroke-width:1;"/><polygon fill="#181818" points="339.97,1119.3369,343.97,1110.3369,339.97,1114.3369,335.97,1110.3369,339.97,1119.3369" style="stroke:#181818;stroke-width:1;"/><text fill="#000000" font-family="sans-serif" font-size="13" lengthAdjust="spacing" textLength="32.335" x="340.97" y="1097.6238">Valid</text></g><!--link ExtractField to ValidateIds--><g class="link" data-entity-1="ExtractField" data-entity-2="ValidateIds" data-source-line="47" data-uid="lnk20" id="link_ExtractField_ValidateIds"><path d="M339.97,1170.0069 C339.97,1185.8869 339.97,1200.4969 339.97,1216.3369" fill="none" id="ExtractField-to-ValidateIds" style="stroke:#181818;stroke-width:1;"/><polygon fill="#181818" points="339.97,1222.3369,343.97,1213.3369,339.97,1217.3369,335.97,1213.3369,339.97,1222.3369" style="stroke:#181818;stroke-width:1;"/><text fill="#000000" font-family="sans-serif" font-size="13" lengthAdjust="spacing" textLength="62.8101" x="340.97" y="1200.6238">Extracted</text></g><!--link ValidateIds to ExtractOp--><g class="link" data-entity-1="ValidateIds" data-entity-2="ExtractOp" data-source-line="48" data-uid="lnk21" id="link_ValidateIds_ExtractOp"><path d="M339.97,1273.0069 C339.97,1288.8869 339.97,1303.4969 339.97,1319.3369" fill="none" id="ValidateIds-to-ExtractOp" style="stroke:#181818;stroke-width:1;"/><polygon fill="#181818" points="339.97,1325.3369,343.97,1316.3369,339.97,1320.3369,335.97,1316.3369,339.97,1325.3369" style="stroke:#181818;stroke-width:1;"/><text fill="#000000" font-family="sans-serif" font-size="13" lengthAdjust="spacing" textLength="32.335" x="340.97" y="1303.6238">Valid</text></g><!--link ExtractOp to ParseWhere--><g class="link" data-entity-1="ExtractOp" data-entity-2="ParseWhere" data-source-line="49" data-uid="lnk22" id="link_ExtractOp_ParseWhere"><path d="M339.97,1376.0069 C339.97,1391.8869 339.97,1406.4969 339.97,1422.3369" fill="none" id="ExtractOp-to-ParseWhere" style="stroke:#181818;stroke-width:1;"/><polygon fill="#181818" points="339.97,1428.3369,343.97,1419.3369,339.97,1423.3369,335.97,1419.3369,339.97,1428.3369" style="stroke:#181818;stroke-width:1;"/><text fill="#000000" font-family="sans-serif" font-size="13" lengthAdjust="spacing" textLength="32.335" x="340.97" y="1406.6238">Valid</text></g><path d="M26.44,1598.55 L236.5185,1598.55 A12.5,12.5 0 0 1 249.0185,1611.05 L249.0185,1624.8469 L13.94,1624.8469 L13.94,1611.05 A12.5,12.5 0 0 1 26.44,1598.55" fill="#BBDEFB"/><rect fill="none" height="463.2969" rx="12.5" ry="12.5" style="stroke:#2196F3;stroke-width:0.5;" width="235.0785" x="13.94" y="1598.55"/><line style="stroke:#2196F3;stroke-width:0.5;" x1="13.94" x2="249.0185" y1="1624.8469" y2="1624.8469"/><text fill="#000000" font-family="sans-serif" font-size="14" lengthAdjust="spacing" textLength="99.3398" x="81.8093" y="1616.5451">BuildingQuery</text><g id="BuildingQuery.SelectStrategy"><rect fill="#F1F1F1" height="50" rx="12.5" ry="12.5" style="stroke:#181818;stroke-width:0.5;" width="194.7402" x="25.94" y="1692.8469"/><line style="stroke:#181818;stroke-width:0.5;" x1="25.94" x2="220.6802" y1="1719.1438" y2="1719.1438"/><text fill="#000000" font-family="sans-serif" font-size="14" lengthAdjust="spacing" textLength="174.7402" x="35.94" y="1710.842">Select Operator Strategy</text></g><g id="BuildingQuery.Sanitize"><rect fill="#F1F1F1" height="50" rx="12.5" ry="12.5" style="stroke:#181818;stroke-width:0.5;" width="150.3818" x="48.12" y="1795.8469"/><line style="stroke:#181818;stroke-width:0.5;" x1="48.12" x2="198.5018" y1="1822.1438" y2="1822.1438"/><text fill="#000000" font-family="sans-serif" font-size="14" lengthAdjust="spacing" textLength="130.3818" x="58.12" y="1813.842">Sanitize Identifiers</text></g><g id="BuildingQuery.BuildSQL"><rect fill="#F1F1F1" height="50" rx="12.5" ry="12.5" style="stroke:#181818;stroke-width:0.5;" width="134.2969" x="56.16" y="1898.8469"/><line style="stroke:#181818;stroke-width:0.5;" x1="56.16" x2="190.4569" y1="1925.1438" y2="1925.1438"/><text fill="#000000" font-family="sans-serif" font-size="14" lengthAdjust="spacing" textLength="114.2969" x="66.16" y="1916.842">Build SQL Query</text></g><g id="BuildingQuery.BindParams"><rect fill="#F1F1F1" height="50" rx="12.5" ry="12.5" style="stroke:#181818;stroke-width:0.5;" width="136.4639" x="55.08" y="2001.8469"/><line style="stroke:#181818;stroke-width:0.5;" x1="55.08" x2="191.5439" y1="2028.1438" y2="2028.1438"/><text fill="#000000" font-family="sans-serif" font-size="14" lengthAdjust="spacing" textLength="116.4639" x="65.08" y="2019.842">Bind Parameters</text></g><ellipse cx="123.31" cy="1645.8469" fill="#222222" rx="10" ry="10" style="stroke:#222222;stroke-width:1;"/><!--link *start*BuildingQuery to SelectStrategy--><g class="link" data-entity-1=".start.BuildingQuery" data-entity-2="SelectStrategy" data-source-line="63" data-uid="lnk28" id="link_.start.BuildingQuery_SelectStrategy"><path d="M123.31,1656.2869 C123.31,1665.5469 123.31,1674.0369 123.31,1686.5269" fill="none" id="*start*BuildingQuery-to-SelectStrategy" style="stroke:#181818;stroke-width:1;"/><polygon fill="#181818" points="123.31,1692.5269,127.31,1683.5269,123.31,1687.5269,119.31,1683.5269,123.31,1692.5269" style="stroke:#181818;stroke-width:1;"/></g><!--link SelectStrategy to Sanitize--><g class="link" data-entity-1="SelectStrategy" data-entity-2="Sanitize" data-source-line="64" data-uid="lnk29" id="link_SelectStrategy_Sanitize"><path d="M123.31,1743.2969 C123.31,1759.1769 123.31,1773.7869 123.31,1789.6269" fill="none" id="SelectStrategy-to-Sanitize" style="stroke:#181818;stroke-width:1;"/><polygon fill="#181818" points="123.31,1795.6269,127.31,1786.6269,123.31,1790.6269,119.31,1786.6269,123.31,1795.6269" style="stroke:#181818;stroke-width:1;"/><text fill="#000000" font-family="sans-serif" font-size="13" lengthAdjust="spacing" textLength="114.7085" x="124.31" y="1773.9138">Strategy selected</text></g><!--link Sanitize to BuildSQL--><g class="link" data-entity-1="Sanitize" data-entity-2="BuildSQL" data-source-line="65" data-uid="lnk30" id="link_Sanitize_BuildSQL"><path d="M123.31,1846.2969 C123.31,1862.1769 123.31,1876.7869 123.31,1892.6269" fill="none" id="Sanitize-to-BuildSQL" style="stroke:#181818;stroke-width:1;"/><polygon fill="#181818" points="123.31,1898.6269,127.31,1889.6269,123.31,1893.6269,119.31,1889.6269,123.31,1898.6269" style="stroke:#181818;stroke-width:1;"/><text fill="#000000" font-family="sans-serif" font-size="13" lengthAdjust="spacing" textLength="96.7827" x="124.31" y="1876.9138">Identifiers safe</text></g><!--link BuildSQL to BindParams--><g class="link" data-entity-1="BuildSQL" data-entity-2="BindParams" data-source-line="66" data-uid="lnk31" id="link_BuildSQL_BindParams"><path d="M123.31,1949.2969 C123.31,1965.1769 123.31,1979.7869 123.31,1995.6269" fill="none" id="BuildSQL-to-BindParams" style="stroke:#181818;stroke-width:1;"/><polygon fill="#181818" points="123.31,2001.6269,127.31,1992.6269,123.31,1996.6269,119.31,1992.6269,123.31,2001.6269" style="stroke:#181818;stroke-width:1;"/><text fill="#000000" font-family="sans-serif" font-size="13" lengthAdjust="spacing" textLength="58.6714" x="124.31" y="1979.9138">SQL built</text></g><path d="M49.59,2171.85 L213.3635,2171.85 A12.5,12.5 0 0 1 225.8635,2184.35 L225.8635,2198.1469 L37.09,2198.1469 L37.09,2184.35 A12.5,12.5 0 0 1 49.59,2171.85" fill="#BBDEFB"/><rect fill="none" height="257.2969" rx="12.5" ry="12.5" style="stroke:#2196F3;stroke-width:0.5;" width="188.7735" x="37.09" y="2171.85"/><line style="stroke:#2196F3;stroke-width:0.5;" x1="37.09" x2="225.8635" y1="2198.1469" y2="2198.1469"/><text fill="#000000" font-family="sans-serif" font-size="14" lengthAdjust="spacing" textLength="86.6387" x="88.1574" y="2189.8451">QueryReady</text><g id="QueryReady.ExecuteQuery"><rect fill="#F1F1F1" height="50" rx="12.5" ry="12.5" style="stroke:#181818;stroke-width:0.5;" width="123.4141" x="49.09" y="2266.1469"/><line style="stroke:#181818;stroke-width:0.5;" x1="49.09" x2="172.5041" y1="2292.4438" y2="2292.4438"/><text fill="#000000" font-family="sans-serif" font-size="14" lengthAdjust="spacing" textLength="103.4141" x="59.09" y="2284.142">Execute Query</text></g><g id="QueryReady.FetchResult"><rect fill="#F1F1F1" height="50" rx="12.5" ry="12.5" style="stroke:#181818;stroke-width:0.5;" width="107.0625" x="57.27" y="2369.1469"/><line style="stroke:#181818;stroke-width:0.5;" x1="57.27" x2="164.3325" y1="2395.4438" y2="2395.4438"/><text fill="#000000" font-family="sans-serif" font-size="14" lengthAdjust="spacing" textLength="87.0625" x="67.27" y="2387.142">Fetch Result</text></g><ellipse cx="110.8" cy="2219.1469" fill="#222222" rx="10" ry="10" style="stroke:#222222;stroke-width:1;"/><!--link *start*QueryReady to ExecuteQuery--><g class="link" data-entity-1=".start.QueryReady" data-entity-2="ExecuteQuery" data-source-line="75" data-uid="lnk34" id="link_.start.QueryReady_ExecuteQuery"><path d="M110.8,2229.5869 C110.8,2238.8469 110.8,2247.3369 110.8,2259.8269" fill="none" id="*start*QueryReady-to-ExecuteQuery" style="stroke:#181818;stroke-width:1;"/><polygon fill="#181818" points="110.8,2265.8269,114.8,2256.8269,110.8,2260.8269,106.8,2256.8269,110.8,2265.8269" style="stroke:#181818;stroke-width:1;"/></g><!--link ExecuteQuery to FetchResult--><g class="link" data-entity-1="ExecuteQuery" data-entity-2="FetchResult" data-source-line="76" data-uid="lnk35" id="link_ExecuteQuery_FetchResult"><path d="M110.8,2316.5969 C110.8,2332.4769 110.8,2347.0869 110.8,2362.9269" fill="none" id="ExecuteQuery-to-FetchResult" style="stroke:#181818;stroke-width:1;"/><polygon fill="#181818" points="110.8,2368.9269,114.8,2359.9269,110.8,2363.9269,106.8,2359.9269,110.8,2368.9269" style="stroke:#181818;stroke-width:1;"/><text fill="#000000" font-family="sans-serif" font-size="13" lengthAdjust="spacing" textLength="104.0635" x="111.8" y="2347.2138">Query executed</text></g><path d="M19.5,2506.15 L227.4502,2506.15 A12.5,12.5 0 0 1 239.9502,2518.65 L239.9502,2532.4469 L7,2532.4469 L7,2518.65 A12.5,12.5 0 0 1 19.5,2506.15" fill="#BBDEFB"/><rect fill="none" height="360.2969" rx="12.5" ry="12.5" style="stroke:#2196F3;stroke-width:0.5;" width="232.9502" x="7" y="2506.15"/><line style="stroke:#2196F3;stroke-width:0.5;" x1="7" x2="239.9502" y1="2532.4469" y2="2532.4469"/><text fill="#000000" font-family="sans-serif" font-size="14" lengthAdjust="spacing" textLength="76.8496" x="85.0503" y="2524.1451">Comparing</text><g id="Comparing.ApplyStrategy"><rect fill="#F1F1F1" height="50" rx="12.5" ry="12.5" style="stroke:#181818;stroke-width:0.5;" width="191.0762" x="19" y="2600.4469"/><line style="stroke:#181818;stroke-width:0.5;" x1="19" x2="210.0762" y1="2626.7438" y2="2626.7438"/><text fill="#000000" font-family="sans-serif" font-size="14" lengthAdjust="spacing" textLength="171.0762" x="29" y="2618.442">Apply Operator Strategy</text></g><g id="Comparing.CompareValues"><rect fill="#F1F1F1" height="50" rx="12.5" ry="12.5" style="stroke:#181818;stroke-width:0.5;" width="135.0898" x="46.99" y="2703.4469"/><line style="stroke:#181818;stroke-width:0.5;" x1="46.99" x2="182.0798" y1="2729.7438" y2="2729.7438"/><text fill="#000000" font-family="sans-serif" font-size="14" lengthAdjust="spacing" textLength="115.0898" x="56.99" y="2721.442">Compare Values</text></g><g id="Comparing.BuildResponse"><rect fill="#F1F1F1" height="50" rx="12.5" ry="12.5" style="stroke:#181818;stroke-width:0.5;" width="127.4609" x="50.81" y="2806.4469"/><line style="stroke:#181818;stroke-width:0.5;" x1="50.81" x2="178.2709" y1="2832.7438" y2="2832.7438"/><text fill="#000000" font-family="sans-serif" font-size="14" lengthAdjust="spacing" textLength="107.4609" x="60.81" y="2824.442">Build Response</text></g><ellipse cx="114.54" cy="2553.4469" fill="#222222" rx="10" ry="10" style="stroke:#222222;stroke-width:1;"/><!--link *start*Comparing to ApplyStrategy--><g class="link" data-entity-1=".start.Comparing" data-entity-2="ApplyStrategy" data-source-line="89" data-uid="lnk41" id="link_.start.Comparing_ApplyStrategy"><path d="M114.54,2563.8869 C114.54,2573.1469 114.54,2581.6369 114.54,2594.1269" fill="none" id="*start*Comparing-to-ApplyStrategy" style="stroke:#181818;stroke-width:1;"/><polygon fill="#181818" points="114.54,2600.1269,118.54,2591.1269,114.54,2595.1269,110.54,2591.1269,114.54,2600.1269" style="stroke:#181818;stroke-width:1;"/></g><!--link ApplyStrategy to CompareValues--><g class="link" data-entity-1="ApplyStrategy" data-entity-2="CompareValues" data-source-line="90" data-uid="lnk42" id="link_ApplyStrategy_CompareValues"><path d="M114.54,2650.8969 C114.54,2666.7769 114.54,2681.3869 114.54,2697.2269" fill="none" id="ApplyStrategy-to-CompareValues" style="stroke:#181818;stroke-width:1;"/><polygon fill="#181818" points="114.54,2703.2269,118.54,2694.2269,114.54,2698.2269,110.54,2694.2269,114.54,2703.2269" style="stroke:#181818;stroke-width:1;"/><text fill="#000000" font-family="sans-serif" font-size="13" lengthAdjust="spacing" textLength="107.7769" x="115.54" y="2681.5138">Strategy applied</text></g><!--link CompareValues to BuildResponse--><g class="link" data-entity-1="CompareValues" data-entity-2="BuildResponse" data-source-line="91" data-uid="lnk43" id="link_CompareValues_BuildResponse"><path d="M114.54,2753.8969 C114.54,2769.7769 114.54,2784.3869 114.54,2800.2269" fill="none" id="CompareValues-to-BuildResponse" style="stroke:#181818;stroke-width:1;"/><polygon fill="#181818" points="114.54,2806.2269,118.54,2797.2269,114.54,2801.2269,110.54,2797.2269,114.54,2806.2269" style="stroke:#181818;stroke-width:1;"/><text fill="#000000" font-family="sans-serif" font-size="13" lengthAdjust="spacing" textLength="114.4102" x="115.54" y="2784.5138">Comparison done</text></g><path d="M38.8,2976.44 L216.1555,2976.44 A12.5,12.5 0 0 1 228.6555,2988.94 L228.6555,3002.7369 L26.3,3002.7369 L26.3,2988.94 A12.5,12.5 0 0 1 38.8,2976.44" fill="#C8E6C9"/><rect fill="none" height="257.2969" rx="12.5" ry="12.5" style="stroke:#4CAF50;stroke-width:0.5;" width="202.3555" x="26.3" y="2976.44"/><line style="stroke:#4CAF50;stroke-width:0.5;" x1="26.3" x2="228.6555" y1="3002.7369" y2="3002.7369"/><text fill="#000000" font-family="sans-serif" font-size="14" lengthAdjust="spacing" textLength="111.959" x="71.4982" y="2994.4351">ResponseReady</text><g id="ResponseReady.Audit"><rect fill="#F1F1F1" height="50" rx="12.5" ry="12.5" style="stroke:#181818;stroke-width:0.5;" width="86.418" x="85.77" y="3070.7369"/><line style="stroke:#181818;stroke-width:0.5;" x1="85.77" x2="172.188" y1="3097.0338" y2="3097.0338"/><text fill="#000000" font-family="sans-serif" font-size="14" lengthAdjust="spacing" textLength="66.418" x="95.77" y="3088.732">Audit Log</text></g><g id="ResponseReady.FormatJSON"><rect fill="#F1F1F1" height="50" rx="12.5" ry="12.5" style="stroke:#181818;stroke-width:0.5;" width="181.3555" x="38.3" y="3173.7369"/><line style="stroke:#181818;stroke-width:0.5;" x1="38.3" x2="219.6555" y1="3200.0338" y2="3200.0338"/><text fill="#000000" font-family="sans-serif" font-size="14" lengthAdjust="spacing" textLength="161.3555" x="48.3" y="3191.732">Format JSON Response</text></g><ellipse cx="128.98" cy="3023.7369" fill="#222222" rx="10" ry="10" style="stroke:#222222;stroke-width:1;"/><!--link *start*ResponseReady to Audit--><g class="link" data-entity-1=".start.ResponseReady" data-entity-2="Audit" data-source-line="100" data-uid="lnk46" id="link_.start.ResponseReady_Audit"><path d="M128.98,3034.1769 C128.98,3043.4369 128.98,3051.9269 128.98,3064.4169" fill="none" id="*start*ResponseReady-to-Audit" style="stroke:#181818;stroke-width:1;"/><polygon fill="#181818" points="128.98,3070.4169,132.98,3061.4169,128.98,3065.4169,124.98,3061.4169,128.98,3070.4169" style="stroke:#181818;stroke-width:1;"/></g><!--link Audit to FormatJSON--><g class="link" data-entity-1="Audit" data-entity-2="FormatJSON" data-source-line="101" data-uid="lnk47" id="link_Audit_FormatJSON"><path d="M128.98,3121.1869 C128.98,3137.0669 128.98,3151.6769 128.98,3167.5169" fill="none" id="Audit-to-FormatJSON" style="stroke:#181818;stroke-width:1;"/><polygon fill="#181818" points="128.98,3173.5169,132.98,3164.5169,128.98,3168.5169,124.98,3164.5169,128.98,3173.5169" style="stroke:#181818;stroke-width:1;"/><text fill="#000000" font-family="sans-serif" font-size="13" lengthAdjust="spacing" textLength="47.9502" x="129.98" y="3151.8038">Logged</text></g><ellipse cx="392.48" cy="48.83" fill="#222222" rx="10" ry="10" style="stroke:#222222;stroke-width:1;"/><g id="AuthFailed"><rect fill="#FFCDD2" height="50" rx="12.5" ry="12.5" style="stroke:#F44336;stroke-width:0.5;" width="94.7236" x="656.11" y="1518.55"/><line style="stroke:#F44336;stroke-width:0.5;" x1="656.11" x2="750.8336" y1="1544.8469" y2="1544.8469"/><text fill="#000000" font-family="sans-serif" font-size="14" lengthAdjust="spacing" textLength="74.7236" x="666.11" y="1536.5451">AuthFailed</text></g><ellipse cx="428.48" cy="3368.71" fill="none" rx="11" ry="11" style="stroke:#222222;stroke-width:1;"/><ellipse cx="428.48" cy="3368.71" fill="#222222" rx="6" ry="6" style="stroke:#222222;stroke-width:1;"/><g id="ParseFailed"><rect fill="#FFCDD2" height="50" rx="12.5" ry="12.5" style="stroke:#F44336;stroke-width:0.5;" width="100.5957" x="487.18" y="2091.85"/><line style="stroke:#F44336;stroke-width:0.5;" x1="487.18" x2="587.7757" y1="2118.1469" y2="2118.1469"/><text fill="#000000" font-family="sans-serif" font-size="14" lengthAdjust="spacing" textLength="80.5957" x="497.18" y="2109.8451">ParseFailed</text></g><g id="QueryFailed"><rect fill="#FFCDD2" height="50" rx="12.5" ry="12.5" style="stroke:#F44336;stroke-width:0.5;" width="104.458" x="271.25" y="2896.44"/><line style="stroke:#F44336;stroke-width:0.5;" x1="271.25" x2="375.708" y1="2922.7369" y2="2922.7369"/><text fill="#000000" font-family="sans-serif" font-size="14" lengthAdjust="spacing" textLength="84.458" x="281.25" y="2914.4351">QueryFailed</text></g><g class="entity" data-entity="GMN2" data-source-line="107" data-uid="ent0003" id="entity_GMN2"><path d="M589.14,6 L589.14,91.6641 L709.8109,91.6641 L709.8109,16 L699.8109,6 L589.14,6" fill="#FEFFDD" style="stroke:#181818;stroke-width:0.5;"/><path d="M699.8109,6 L699.8109,16 L709.8109,16 L699.8109,6" fill="#FEFFDD" style="stroke:#181818;stroke-width:1;"/><text fill="#000000" font-family="sans-serif" font-size="13" font-weight="bold" lengthAdjust="spacing" textLength="82.145" x="595.14" y="23.0669">Entry Point</text><text fill="#000000" font-family="sans-serif" font-size="13" lengthAdjust="spacing" textLength="50.9399" x="595.14" y="38.1997">Extract:</text><text fill="#000000" font-family="sans-serif" font-size="13" lengthAdjust="spacing" textLength="65.2412" x="595.14" y="53.3325">&#8226; Client IP</text><text fill="#000000" font-family="sans-serif" font-size="13" lengthAdjust="spacing" textLength="59.7188" x="595.14" y="68.4653">&#8226; API key</text><text fill="#000000" font-family="sans-serif" font-size="13" lengthAdjust="spacing" textLength="99.6709" x="595.14" y="83.5981">&#8226; JSON payload</text></g><g class="entity" data-entity="GMN5" data-source-line="115" data-uid="ent0006" id="entity_GMN5"><path d="M687.7,637.41 L687.7,661.11 L652.99,665.11 L687.7,669.11 L687.7,692.8084 A0,0 0 0 0 687.7,692.8084 L881.242,692.8084 A0,0 0 0 0 881.242,692.8084 L881.242,647.41 L871.242,637.41 L687.7,637.41 A0,0 0 0 0 687.7,637.41" fill="#FEFFDD" style="stroke:#181818;stroke-width:0.5;"/><path d="M871.242,637.41 L871.242,647.41 L881.242,647.41 L871.242,637.41" fill="#FEFFDD" style="stroke:#181818;stroke-width:0.5;"/><text fill="#000000" font-family="sans-serif" font-size="13" font-weight="bold" lengthAdjust="spacing" textLength="99.6963" x="693.7" y="654.4769">Security Gate</text><text fill="#000000" font-family="sans-serif" font-size="13" lengthAdjust="spacing" textLength="172.542" x="693.7" y="669.6097">Constant-time comparison</text><text fill="#000000" font-family="sans-serif" font-size="13" lengthAdjust="spacing" textLength="154.7114" x="693.7" y="684.7425">prevents timing attacks</text></g><g class="entity" data-entity="GMN8" data-source-line="121" data-uid="ent0009" id="entity_GMN8"><path d="M487.98,1162.57 L487.98,1201.4 L452.62,1205.4 L487.98,1209.4 L487.98,1248.2341 A0,0 0 0 0 487.98,1248.2341 L650.9707,1248.2341 A0,0 0 0 0 650.9707,1248.2341 L650.9707,1172.57 L640.9707,1162.57 L487.98,1162.57 A0,0 0 0 0 487.98,1162.57" fill="#FEFFDD" style="stroke:#181818;stroke-width:0.5;"/><path d="M640.9707,1162.57 L640.9707,1172.57 L650.9707,1172.57 L640.9707,1162.57" fill="#FEFFDD" style="stroke:#181818;stroke-width:0.5;"/><text fill="#000000" font-family="sans-serif" font-size="13" font-weight="bold" lengthAdjust="spacing" textLength="113.6802" x="493.98" y="1179.6369">Validation Gate</text><text fill="#000000" font-family="sans-serif" font-size="13" lengthAdjust="spacing" textLength="61.3628" x="493.98" y="1194.7697">Prevents:</text><text fill="#000000" font-family="sans-serif" font-size="13" lengthAdjust="spacing" textLength="97.1699" x="493.98" y="1209.9025">&#8226; SQL injection</text><text fill="#000000" font-family="sans-serif" font-size="13" lengthAdjust="spacing" textLength="121.8242" x="493.98" y="1225.0353">&#8226; Invalid operators</text><text fill="#000000" font-family="sans-serif" font-size="13" lengthAdjust="spacing" textLength="141.9907" x="493.98" y="1240.1681">&#8226; Malformed requests</text></g><g class="entity" data-entity="GMN11" data-source-line="129" data-uid="ent0012" id="entity_GMN11"><path d="M284.19,1787.37 L284.19,1826.2 L249.08,1830.2 L284.19,1834.2 L284.19,1873.0341 A0,0 0 0 0 284.19,1873.0341 L484.7652,1873.0341 A0,0 0 0 0 484.7652,1873.0341 L484.7652,1797.37 L474.7652,1787.37 L284.19,1787.37 A0,0 0 0 0 284.19,1787.37" fill="#FEFFDD" style="stroke:#181818;stroke-width:0.5;"/><path d="M474.7652,1787.37 L474.7652,1797.37 L484.7652,1797.37 L474.7652,1787.37" fill="#FEFFDD" style="stroke:#181818;stroke-width:0.5;"/><text fill="#000000" font-family="sans-serif" font-size="13" font-weight="bold" lengthAdjust="spacing" textLength="179.5752" x="290.19" y="1804.4369">Safe Query Construction</text><text fill="#000000" font-family="sans-serif" font-size="13" lengthAdjust="spacing" textLength="35.439" x="290.19" y="1819.5697">Uses:</text><text fill="#000000" font-family="sans-serif" font-size="13" lengthAdjust="spacing" textLength="124.1411" x="290.19" y="1834.7025">&#8226; Identifier quoting</text><text fill="#000000" font-family="sans-serif" font-size="13" lengthAdjust="spacing" textLength="132.6089" x="290.19" y="1849.8353">&#8226; Parameter binding</text><text fill="#000000" font-family="sans-serif" font-size="13" lengthAdjust="spacing" textLength="119.6279" x="290.19" y="1864.9681">&#8226; Strategy pattern</text></g><g class="entity" data-entity="GMN14" data-source-line="137" data-uid="ent0015" id="entity_GMN14"><path d="M27.63,3310.74 L27.63,3426.6697 A0,0 0 0 0 27.63,3426.6697 L227.3165,3426.6697 A0,0 0 0 0 227.3165,3426.6697 L227.3165,3320.74 L217.3165,3310.74 L131.48,3310.74 L127.48,3234.22 L123.48,3310.74 L27.63,3310.74 A0,0 0 0 0 27.63,3310.74" fill="#FEFFDD" style="stroke:#181818;stroke-width:0.5;"/><path d="M217.3165,3310.74 L217.3165,3320.74 L227.3165,3320.74 L217.3165,3310.74" fill="#FEFFDD" style="stroke:#181818;stroke-width:0.5;"/><text fill="#000000" font-family="sans-serif" font-size="13" font-weight="bold" lengthAdjust="spacing" textLength="133.4595" x="33.63" y="3327.8069">Success Response</text><text fill="#000000" font-family="sans-serif" font-size="13" lengthAdjust="spacing" textLength="8.271" x="33.63" y="3342.9397">{</text><text fill="#000000" font-family="sans-serif" font-size="13" lengthAdjust="spacing" textLength="162.1572" x="50.1593" y="3358.0725">"assumption": true/false,</text><text fill="#000000" font-family="sans-serif" font-size="13" lengthAdjust="spacing" textLength="152.8833" x="50.1593" y="3373.2053">"query_time_ms": 12.5,</text><text fill="#000000" font-family="sans-serif" font-size="13" lengthAdjust="spacing" textLength="127.4419" x="50.1593" y="3388.3381">"matched_rows": 1,</text><text fill="#000000" font-family="sans-serif" font-size="13" lengthAdjust="spacing" textLength="126.8643" x="50.1593" y="3403.471">"actual_value": "..."</text><text fill="#000000" font-family="sans-serif" font-size="13" lengthAdjust="spacing" textLength="8.271" x="33.63" y="3418.6038">}</text></g><!--link *start* to Received--><g class="link" data-entity-1=".start." data-entity-2="Received" data-source-line="12" data-uid="lnk3" id="link_.start._Received"><path d="M389.98,58.77 C385.86,75.21 379.06,111.09 389.48,138.66 C397.56,160.06 406.5743,175.6511 420.9843,194.0011" fill="none" id="*start*-to-Received" style="stroke:#181818;stroke-width:1;"/><polygon fill="#181818" points="424.69,198.72,422.2774,189.1712,421.6019,194.7876,415.9856,194.1121,424.69,198.72" style="stroke:#181818;stroke-width:1;"/><text fill="#000000" font-family="sans-serif" font-size="13" lengthAdjust="spacing" textLength="232.1909" x="390.48" y="134.7269">HTTP POST /paymentwatch/assume</text></g><!--link Received to Authenticating--><g class="link" data-entity-1="Received" data-entity-2="Authenticating" data-source-line="21" data-uid="lnk7" id="link_Received_Authenticating"><path d="M520.48,408.41 C520.48,432.74 520.48,452.85 520.48,478.75" fill="none" id="Received-to-Authenticating" style="stroke:#181818;stroke-width:1;"/><polygon fill="#181818" points="520.48,484.75,524.48,475.75,520.48,479.75,516.48,475.75,520.48,484.75" style="stroke:#181818;stroke-width:1;"/><text fill="#000000" font-family="sans-serif" font-size="13" lengthAdjust="spacing" textLength="121.5132" x="521.48" y="451.0269">Client IP + API Key</text></g><!--link Authenticating to AuthFailed--><g class="link" data-entity-1="Authenticating" data-entity-2="AuthFailed" data-source-line="33" data-uid="lnk13" id="link_Authenticating_AuthFailed"><path d="M637.91,845.73 C650.09,870.65 660.8,896.54 668.48,922.26 C735.13,1145.5 714.7962,1427.6477 706.6362,1512.2277" fill="none" id="Authenticating-to-AuthFailed" style="stroke:#181818;stroke-width:1;"/><polygon fill="#181818" points="706.06,1518.2,710.9058,1509.6257,706.5402,1513.2231,702.9428,1508.8575,706.06,1518.2" style="stroke:#181818;stroke-width:1;"/><text fill="#000000" font-family="sans-serif" font-size="13" lengthAdjust="spacing" textLength="104.7935" x="658.31" y="888.3269">Invalid IP or Key</text></g><!--link AuthFailed to *end*--><g class="link" data-entity-1="AuthFailed" data-entity-2=".end." data-source-line="34" data-uid="lnk15" id="link_AuthFailed_.end."><path d="M703.48,1568.78 C703.48,1647.59 703.48,1903.84 703.48,2115.85 C543.48,3426.67 543.48,3426.67 703.48,3106.09 C703.48,3255.02 494.7616,3342.7663 444.5316,3361.7763" fill="none" id="AuthFailed-to-*end*" style="stroke:#181818;stroke-width:1;"/><polygon fill="#181818" points="438.92,3363.9,448.7532,3364.4554,443.5963,3362.1302,445.9215,3356.9733,438.92,3363.9" style="stroke:#181818;stroke-width:1;"/><text fill="#000000" font-family="sans-serif" font-size="13" lengthAdjust="spacing" textLength="116.2256" x="704.48" y="2472.2169">401 Unauthorized</text></g><!--link Authenticating to Parsing--><g class="link" data-entity-1="Authenticating" data-entity-2="Parsing" data-source-line="36" data-uid="lnk16" id="link_Authenticating_Parsing"><path d="M459.75,845.73 C451.42,870.34 444.6424,890.3963 435.8824,916.2963" fill="none" id="Authenticating-to-Parsing" style="stroke:#181818;stroke-width:1;"/><polygon fill="#181818" points="433.96,921.98,440.6327,914.736,435.562,917.2436,433.0544,912.1729,433.96,921.98" style="stroke:#181818;stroke-width:1;"/><text fill="#000000" font-family="sans-serif" font-size="13" lengthAdjust="spacing" textLength="91.876" x="446.78" y="888.3269">Authenticated</text></g><!--link Parsing to ParseFailed--><g class="link" data-entity-1="Parsing" data-entity-2="ParseFailed" data-source-line="52" data-uid="lnk24" id="link_Parsing_ParseFailed"><path d="M452.98,1445.43 C472.59,1495.06 490.48,1547.74 502.48,1598.55 C546.27,1784.06 541.7955,2010.6046 538.8555,2085.4546" fill="none" id="Parsing-to-ParseFailed" style="stroke:#181818;stroke-width:1;"/><polygon fill="#181818" points="538.62,2091.45,542.9702,2082.6139,538.8162,2086.4539,534.9763,2082.2999,538.62,2091.45" style="stroke:#181818;stroke-width:1;"/><text fill="#000000" font-family="sans-serif" font-size="13" lengthAdjust="spacing" textLength="101.5371" x="495.31" y="1548.1169">Validation Error</text></g><!--link ParseFailed to *end*--><g class="link" data-entity-1="ParseFailed" data-entity-2=".end." data-source-line="53" data-uid="lnk25" id="link_ParseFailed_.end."><path d="M537.48,2141.95 C537.48,2198.6 537.48,2344.63 537.48,2466.65 C543.48,3426.67 543.48,3426.67 537.48,3106.09 C537.48,3163.66 536.47,3180.14 515.48,3233.74 C494.94,3286.16 456.1369,3335.0923 439.3469,3355.0123" fill="none" id="ParseFailed-to-*end*" style="stroke:#181818;stroke-width:1;"/><polygon fill="#181818" points="435.48,3359.6,444.3388,3355.2963,438.7024,3355.7769,438.2218,3350.1405,435.48,3359.6" style="stroke:#181818;stroke-width:1;"/><text fill="#000000" font-family="sans-serif" font-size="13" lengthAdjust="spacing" textLength="111.6045" x="538.48" y="2690.8569">400 Bad Request</text></g><!--link Parsing to BuildingQuery--><g class="link" data-entity-1="Parsing" data-entity-2="BuildingQuery" data-source-line="55" data-uid="lnk26" id="link_Parsing_BuildingQuery"><path d="M244.67,1488.65 C232.47,1525.34 221.9821,1556.8761 210.1121,1592.5961" fill="none" id="Parsing-to-BuildingQuery" style="stroke:#181818;stroke-width:1;"/><polygon fill="#181818" points="208.22,1598.29,214.8541,1591.0106,209.7968,1593.5451,207.2623,1588.4878,208.22,1598.29" style="stroke:#181818;stroke-width:1;"/><text fill="#000000" font-family="sans-serif" font-size="13" lengthAdjust="spacing" textLength="44.1733" x="229.77" y="1548.1169">Parsed</text></g><!--link BuildingQuery to QueryReady--><g class="link" data-entity-1="BuildingQuery" data-entity-2="QueryReady" data-source-line="69" data-uid="lnk32" id="link_BuildingQuery_QueryReady"><path d="M131.48,2062.26 C131.48,2099.86 131.48,2131.56 131.48,2165.49" fill="none" id="BuildingQuery-to-QueryReady" style="stroke:#181818;stroke-width:1;"/><polygon fill="#181818" points="131.48,2171.49,135.48,2162.49,131.48,2166.49,127.48,2162.49,131.48,2171.49" style="stroke:#181818;stroke-width:1;"/><text fill="#000000" font-family="sans-serif" font-size="13" lengthAdjust="spacing" textLength="103.0479" x="132.48" y="2121.4169">Query prepared</text></g><!--link QueryReady to QueryFailed--><g class="link" data-entity-1="QueryReady" data-entity-2="QueryFailed" data-source-line="79" data-uid="lnk37" id="link_QueryReady_QueryFailed"><path d="M213.44,2429.3 C219.62,2439.35 225.69,2449.39 231.48,2459.15 C243.65,2479.68 249.7,2483.58 257.48,2506.15 C306.56,2648.7 319.1314,2825.5969 322.2514,2890.3969" fill="none" id="QueryReady-to-QueryFailed" style="stroke:#181818;stroke-width:1;"/><polygon fill="#181818" points="322.54,2896.39,326.1025,2887.208,322.2995,2891.3958,318.1118,2887.5928,322.54,2896.39" style="stroke:#181818;stroke-width:1;"/><text fill="#000000" font-family="sans-serif" font-size="13" lengthAdjust="spacing" textLength="98.3633" x="243.16" y="2472.2169">Database Error</text></g><!--link QueryFailed to *end*--><g class="link" data-entity-1="QueryFailed" data-entity-2=".end." data-source-line="80" data-uid="lnk38" id="link_QueryFailed_.end."><path d="M321.61,2946.59 C318.3,2999.9 314.53,3131.03 347.48,3233.74 C364.33,3286.28 401.5899,3335.0868 417.8599,3354.9668" fill="none" id="QueryFailed-to-*end*" style="stroke:#181818;stroke-width:1;"/><polygon fill="#181818" points="421.66,3359.61,419.0554,3350.1118,418.4933,3355.7406,412.8644,3355.1785,421.66,3359.61" style="stroke:#181818;stroke-width:1;"/><text fill="#000000" font-family="sans-serif" font-size="13" lengthAdjust="spacing" textLength="162.373" x="348.48" y="3109.6569">500 Internal Server Error</text></g><!--link QueryReady to Comparing--><g class="link" data-entity-1="QueryReady" data-entity-2="Comparing" data-source-line="82" data-uid="lnk39" id="link_QueryReady_Comparing"><path d="M128.81,2429.56 C128.29,2454.09 127.8756,2474.1813 127.3356,2499.9713" fill="none" id="QueryReady-to-Comparing" style="stroke:#181818;stroke-width:1;"/><polygon fill="#181818" points="127.21,2505.97,131.3975,2497.0557,127.3147,2500.9711,123.3993,2496.8882,127.21,2505.97" style="stroke:#181818;stroke-width:1;"/><text fill="#000000" font-family="sans-serif" font-size="13" lengthAdjust="spacing" textLength="94.1929" x="128.95" y="2472.2169">Result fetched</text></g><!--link Comparing to ResponseReady--><g class="link" data-entity-1="Comparing" data-entity-2="ResponseReady" data-source-line="94" data-uid="lnk44" id="link_Comparing_ResponseReady"><path d="M108.61,2866.79 C107.9,2893.49 108.01,2920.69 109.48,2946.44 C110.02,2956.07 110.2454,2960.0321 111.1054,2970.0221" fill="none" id="Comparing-to-ResponseReady" style="stroke:#181818;stroke-width:1;"/><polygon fill="#181818" points="111.62,2976,114.8333,2966.6901,111.1912,2971.0184,106.8628,2967.3762,111.62,2976" style="stroke:#181818;stroke-width:1;"/><text fill="#000000" font-family="sans-serif" font-size="13" lengthAdjust="spacing" textLength="142.689" x="110.48" y="2926.0069">Comparison complete</text></g><!--link ResponseReady to *end*--><g class="link" data-entity-1="ResponseReady" data-entity-2=".end." data-source-line="104" data-uid="lnk48" id="link_ResponseReady_.end."><path d="M161.69,3234.13 C170.33,3251.28 181.09,3267.49 194.48,3280.74 C228.28,3314.2 370.3416,3352.7057 411.8116,3363.4457" fill="none" id="ResponseReady-to-*end*" style="stroke:#181818;stroke-width:1;"/><polygon fill="#181818" points="417.62,3364.95,409.9103,3358.8214,412.7797,3363.6964,407.9046,3366.5658,417.62,3364.95" style="stroke:#181818;stroke-width:1;"/><text fill="#000000" font-family="sans-serif" font-size="13" lengthAdjust="spacing" textLength="98.9028" x="195.48" y="3276.8069">200 OK + JSON</text></g><!--link GMN2 to Received--><g class="link" data-entity-1="GMN2" data-entity-2="Received" data-source-line="107" data-uid="lnk4" id="link_GMN2_Received"><path d="M642.46,92.07 C639.06,107.2 634.21,124.1 627.48,138.66 C622.87,148.62 617.56,158.59 611.82,168.39" fill="none" id="GMN2-Received" style="stroke:#181818;stroke-width:1;stroke-dasharray:7,7;"/></g><!--SRC=[ZLVRRXit47tNLn3AIwlMzmiQ8J1WoLBZ9AqKowaVYaAWj9J4UhLSarovQX6Wtz9FwvTqXhSbfRLHvqKxSpZNCqD6FVAYf9AkoOpE7vTIL4NM5xcGvCrmWFzQAY2KffgHlre4_def-jqxLStdJAchA_Ac_yFWil_MmeJCcDo7dFUlXnV7pPQOb48YQ3ZitzoSxjkf0UVdPsUNpLPAAT0PBvQ8xFLk1iFUlgaKTNhozd9urlhQQltQ-OqS75oHEpPdVCCoqYNlx-_7P3oQt9EZacxNhD3FLCzNHrIfQirQBLkTS637jgsQnRG7VsX9vnh0JnLJcjnGJTk4Ak8KCNPCfMBamsJqCndJRIvePf16R70-rFYiTu1oYuISGcWelQxq2bBWSweXG4YldtFu9hTZyXsv7j-IZsphSzh1lfRPBpJd6Vu2EmyhhbdEbJO1Uytjk17lN9AXa6kQdh2Y-5HVh86HzQ5lLbIjfb1CcgjlpLc7C4d4HTg9elvCjDOZ50NaDC_5CyiIkDFZaTeHm9ryWp2i-4xXVDs7bEU68Px8uAWmXz0XZ1w67G7n72RG9UV79-HBGK4b9FyJecfoWGstFOsKYBNLy-h_rKP7EJBHifhhIhAaCq7QHEuXPta61lGgfhQHDZCcmr0Nd4cL4YPJJUP79PDK2naR7vNxa_FmVd0t07RJIh5wSXvM3A9kf4QQr9uqdZMROjU2ui6pYeHmcGAWK-_G2NMHrL7PP1AaOPfDz044HFCz3OW6YZblN1HaWC9M38mfTWpBDFExARNTgtYUmSVdYaaal34Hc9LgN-FNXEKiwY7I2-JBhMcGLNfHSemMN0FlzxZY5J7OH4CcdpyH4u_16Hc84XmlaAPmmJ7jxQ7CY5JAaORGKf55-J2x8J6Y3CmrFW12JJ7CRfmMKNHXqmbw0mw1eN4Gpa2haG9fyH5hVjqncc6dhBYK3BTLw5W4UVs-OlFAmzt06OaHnCWXWoiHkAEgt2vn8x3VhPthQiT2B328w6X8W5cG8NqKV4YtWVTukSueR0BB-XXMi_u2M7zRGFyBcaDBvOP9XzzrOnU-tQykk0K6MXUrHhnMq-kopBSlJ83HDGs0l_XWbc4uuvlEIlRv3o6Med2hpuYy96t7lij44jzrrbLCRWfGxhYTWWB1lLTyQTZwA5X4cIZCqwGkcNrqMQmdPlrkJ0xFuMSECri_lLuwbXQ-ohWcdyJIbXg_4WRREzmyk9BYMGNAToeNB5ZBXhe12o63gwLbR1fXpRvJOD_e8poyhFL2G21Qb4GimdlIEEXq1eM6AHWBNkXE9xuUkkRZtx__gHzoGOBFf4Us3TychjBUx2q6smyTEhUIBrSQ7QSF2-T-0jCdkTwI7w5MBe0-PAHfeGyqNpFJ5DiVeuI5im4hYe0IsqkrXeUwUj6hksoSk-ZAYXoEdSqwPLo4lFWT5YntVb7gtrJ2pPWAcfzele0EmGQGzfPxEQ1ahVegm6fs-yWaZoy3SEp2-w9O55gzqibJ9K8fKHNk73A3hHvhmc2LK2_OIRlHpOJMOctf4J7AXsTv7tGkBZi4-DSs_sKfCUPsbq3ux6W1BsVsVOrumkocsD7fMW7evFJm8bAlgTbuKocUZJPI0HVX6JxTuFo3gdruUDWssgzr5ly1]--></g></svg>