<svg xmlns="http://www.w3.org/2000/svg" xmlns:xlink="http://www.w3.org/1999/xlink" contentStyleType="text/css" data-diagram-type="SEQUENCE" height="1992px" preserveAspectRatio="none" style="width:1721px;height:1992px;background:#FEFEFE;" version="1.1" viewBox="0 0 1721 1992" width="1721px" zoomAndPan="magnify"><title>Stripe Payment - Authorization Declined Flow</title><defs/><g><rect fill="#FEFEFE" height="1992" style="stroke:none;stroke-width:1;" width="1721" x="0" y="0"/><text fill="#000000" font-family="Verdana" font-size="22" font-weight="bold" lengthAdjust="spacing" textLength="566.6826" x="575.8108" y="35.4209">Stripe Payment - Authorization Declined Flow</text><g><title>OrderController</title><rect fill="#FFFFFF" height="630.4531" style="stroke:#000000;stroke-width:1;" width="10" x="542.9038" y="784.3594"/></g><g><title>EventDispatcher</title><rect fill="#FFFFFF" height="514.9219" style="stroke:#000000;stroke-width:1;" width="10" x="818.415" y="813.4922"/></g><g><title>StripeCheckoutReturnHandler</title><rect fill="#FFFFFF" height="456.6563" style="stroke:#000000;stroke-width:1;" width="10" x="1141.3984" y="842.625"/></g><g><title>Stripe API</title><rect fill="#FFFFFF" height="182.0625" style="stroke:#000000;stroke-width:1;" width="10" x="1418.0757" y="268.5703"/></g><g><title>Stripe API</title><rect fill="#FFFFFF" height="74.5313" style="stroke:#000000;stroke-width:1;" width="10" x="1418.0757" y="943.0234"/></g><g><title>Stripe API</title><rect fill="#FFFFFF" height="119.9297" style="stroke:#000000;stroke-width:1;" width="10" x="1418.0757" y="1070.8203"/></g><rect fill="#FFFFFF" height="166.1953" style="stroke:#000000;stroke-width:1;" width="469.7236" x="1014.4121" y="1032.5547"/><g><title>Customer</title><rect fill="#000000" fill-opacity="0.00000" height="1782.2266" width="8" x="131.002" y="128.9063"/><line style="stroke:#000000;stroke-width:1;stroke-dasharray:5,5;" x1="135" x2="135" y1="128.9063" y2="1911.1328"/></g><g><title>OrderController</title><rect fill="#000000" fill-opacity="0.00000" height="1782.2266" width="8" x="543.9038" y="128.9063"/><line style="stroke:#000000;stroke-width:1;stroke-dasharray:5,5;" x1="547.3018" x2="547.3018" y1="128.9063" y2="1911.1328"/></g><g><title>EventDispatcher</title><rect fill="#000000" fill-opacity="0.00000" height="1782.2266" width="8" x="819.415" y="128.9063"/><line style="stroke:#000000;stroke-width:1;stroke-dasharray:5,5;" x1="822.4326" x2="822.4326" y1="128.9063" y2="1911.1328"/></g><g><title>StripeCheckoutReturnHandler</title><rect fill="#000000" fill-opacity="0.00000" height="1782.2266" width="8" x="1142.3984" y="128.9063"/><line style="stroke:#000000;stroke-width:1;stroke-dasharray:5,5;" x1="1145.4121" x2="1145.4121" y1="128.9063" y2="1911.1328"/></g><g><title>Stripe API</title><rect fill="#000000" fill-opacity="0.00000" height="1782.2266" width="8" x="1419.0757" y="128.9063"/><line style="stroke:#000000;stroke-width:1;stroke-dasharray:5,5;" x1="1423.0156" x2="1423.0156" y1="128.9063" y2="1911.1328"/></g><g><title>Database</title><rect fill="#000000" fill-opacity="0.00000" height="1782.2266" width="8" x="1668.9038" y="128.9063"/><line style="stroke:#000000;stroke-width:1;stroke-dasharray:5,5;" x1="1672.5034" x2="1672.5034" y1="128.9063" y2="1911.1328"/></g><g class="participant participant-head" data-participant="C"><text fill="#000000" font-family="Verdana" font-size="14" lengthAdjust="spacing" textLength="68.0039" x="98" y="125.6045">Customer</text><ellipse cx="135.002" cy="60.6094" fill="#FFFFFF" rx="8" ry="8" style="stroke:#000000;stroke-width:1;"/><path d="M135.002,68.6094 L135.002,95.6094 M122.002,76.6094 L148.002,76.6094 M135.002,95.6094 L122.002,110.6094 M135.002,95.6094 L148.002,110.6094" fill="none" style="stroke:#000000;stroke-width:1;"/></g><g class="participant participant-tail" data-participant="C"><text fill="#000000" font-family="Verdana" font-size="14" lengthAdjust="spacing" textLength="68.0039" x="98" y="1923.1279">Customer</text><ellipse cx="135.002" cy="1935.4297" fill="#FFFFFF" rx="8" ry="8" style="stroke:#000000;stroke-width:1;"/><path d="M135.002,1943.4297 L135.002,1970.4297 M122.002,1951.4297 L148.002,1951.4297 M135.002,1970.4297 L122.002,1985.4297 M135.002,1970.4297 L148.002,1985.4297" fill="none" style="stroke:#000000;stroke-width:1;"/></g><g class="participant participant-head" data-participant="OC"><rect fill="#FFFFFF" height="30.2969" rx="2.5" ry="2.5" style="stroke:#000000;stroke-width:1;" width="123.2041" x="486.3018" y="97.6094"/><text fill="#000000" font-family="Verdana" font-size="14" lengthAdjust="spacing" textLength="109.2041" x="493.3018" y="117.6045">OrderController</text></g><g class="participant participant-tail" data-participant="OC"><rect fill="#FFFFFF" height="30.2969" rx="2.5" ry="2.5" style="stroke:#000000;stroke-width:1;" width="123.2041" x="486.3018" y="1910.1328"/><text fill="#000000" font-family="Verdana" font-size="14" lengthAdjust="spacing" textLength="109.2041" x="493.3018" y="1930.1279">OrderController</text></g><g class="participant participant-head" data-participant="ED"><rect fill="#FFFFFF" height="30.2969" rx="2.5" ry="2.5" style="stroke:#000000;stroke-width:1;" width="129.9648" x="758.4326" y="97.6094"/><text fill="#000000" font-family="Verdana" font-size="14" lengthAdjust="spacing" textLength="115.9648" x="765.4326" y="117.6045">EventDispatcher</text></g><g class="participant participant-tail" data-participant="ED"><rect fill="#FFFFFF" height="30.2969" rx="2.5" ry="2.5" style="stroke:#000000;stroke-width:1;" width="129.9648" x="758.4326" y="1910.1328"/><text fill="#000000" font-family="Verdana" font-size="14" lengthAdjust="spacing" textLength="115.9648" x="765.4326" y="1930.1279">EventDispatcher</text></g><g class="participant participant-head" data-participant="SCRH"><rect fill="#FFFFFF" height="30.2969" rx="2.5" ry="2.5" style="stroke:#000000;stroke-width:1;" width="223.9727" x="1034.4121" y="97.6094"/><text fill="#000000" font-family="Verdana" font-size="14" lengthAdjust="spacing" textLength="209.9727" x="1041.4121" y="117.6045">StripeCheckoutReturnHandler</text></g><g class="participant participant-tail" data-participant="SCRH"><rect fill="#FFFFFF" height="30.2969" rx="2.5" ry="2.5" style="stroke:#000000;stroke-width:1;" width="223.9727" x="1034.4121" y="1910.1328"/><text fill="#000000" font-family="Verdana" font-size="14" lengthAdjust="spacing" textLength="209.9727" x="1041.4121" y="1930.1279">StripeCheckoutReturnHandler</text></g><g class="participant participant-head" data-participant="S"><rect fill="#FFFFFF" height="30.2969" rx="2.5" ry="2.5" style="stroke:#000000;stroke-width:1;" width="82.1201" x="1382.0156" y="97.6094"/><text fill="#000000" font-family="Verdana" font-size="14" lengthAdjust="spacing" textLength="68.1201" x="1389.0156" y="117.6045">Stripe API</text></g><g class="participant participant-tail" data-participant="S"><rect fill="#FFFFFF" height="30.2969" rx="2.5" ry="2.5" style="stroke:#000000;stroke-width:1;" width="82.1201" x="1382.0156" y="1910.1328"/><text fill="#000000" font-family="Verdana" font-size="14" lengthAdjust="spacing" textLength="68.1201" x="1389.0156" y="1930.1279">Stripe API</text></g><g class="participant participant-head" data-participant="DB"><text fill="#000000" font-family="Verdana" font-size="14" lengthAdjust="spacing" textLength="66.8008" x="1636.5034" y="125.6045">Database</text><path d="M1654.9038,76.6094 C1654.9038,66.6094 1672.9038,66.6094 1672.9038,66.6094 C1672.9038,66.6094 1690.9038,66.6094 1690.9038,76.6094 L1690.9038,102.6094 C1690.9038,112.6094 1672.9038,112.6094 1672.9038,112.6094 C1672.9038,112.6094 1654.9038,112.6094 1654.9038,102.6094 L1654.9038,76.6094" fill="#FFFFFF" style="stroke:#000000;stroke-width:1;"/><path d="M1654.9038,76.6094 C1654.9038,86.6094 1672.9038,86.6094 1672.9038,86.6094 C1672.9038,86.6094 1690.9038,86.6094 1690.9038,76.6094" fill="none" style="stroke:#000000;stroke-width:1;"/></g><g class="participant participant-tail" data-participant="DB"><text fill="#000000" font-family="Verdana" font-size="14" lengthAdjust="spacing" textLength="66.8008" x="1636.5034" y="1923.1279">Database</text><path d="M1654.9038,1936.4297 C1654.9038,1926.4297 1672.9038,1926.4297 1672.9038,1926.4297 C1672.9038,1926.4297 1690.9038,1926.4297 1690.9038,1936.4297 L1690.9038,1962.4297 C1690.9038,1972.4297 1672.9038,1972.4297 1672.9038,1972.4297 C1672.9038,1972.4297 1654.9038,1972.4297 1654.9038,1962.4297 L1654.9038,1936.4297" fill="#FFFFFF" style="stroke:#000000;stroke-width:1;"/><path d="M1654.9038,1936.4297 C1654.9038,1946.4297 1672.9038,1946.4297 1672.9038,1946.4297 C1672.9038,1946.4297 1690.9038,1946.4297 1690.9038,1936.4297" fill="none" style="stroke:#000000;stroke-width:1;"/></g><g><title>OrderController</title><rect fill="#FFFFFF" height="630.4531" style="stroke:#000000;stroke-width:1;" width="10" x="542.9038" y="784.3594"/></g><g><title>EventDispatcher</title><rect fill="#FFFFFF" height="514.9219" style="stroke:#000000;stroke-width:1;" width="10" x="818.415" y="813.4922"/></g><g><title>StripeCheckoutReturnHandler</title><rect fill="#FFFFFF" height="456.6563" style="stroke:#000000;stroke-width:1;" width="10" x="1141.3984" y="842.625"/></g><g><title>Stripe API</title><rect fill="#FFFFFF" height="182.0625" style="stroke:#000000;stroke-width:1;" width="10" x="1418.0757" y="268.5703"/></g><g><title>Stripe API</title><rect fill="#FFFFFF" height="74.5313" style="stroke:#000000;stroke-width:1;" width="10" x="1418.0757" y="943.0234"/></g><g><title>Stripe API</title><rect fill="#FFFFFF" height="119.9297" style="stroke:#000000;stroke-width:1;" width="10" x="1418.0757" y="1070.8203"/></g><rect fill="#FFFFFF" height="3" style="stroke:#FFFFFF;stroke-width:1;" width="1709.3042" x="5" y="159.4727"/><line style="stroke:#000000;stroke-width:0.5;" x1="5" x2="1714.3042" y1="159.4727" y2="159.4727"/><line style="stroke:#000000;stroke-width:0.5;" x1="5" x2="1714.3042" y1="162.4727" y2="162.4727"/><rect fill="#FFFFFF" height="23.1328" style="stroke:#000000;stroke-width:1;" width="349.1626" x="685.0708" y="148.9063"/><text fill="#000000" font-family="Verdana" font-size="13" font-weight="bold" lengthAdjust="spacing" textLength="330.6367" x="691.0708" y="164.9731">Scenario A: Stripe Handles Decline Internally</text><path d="M93,187.0391 L93,242.0391 L1464,242.0391 L1464,197.0391 L1454,187.0391 L93,187.0391" fill="#FFFFCC" style="stroke:#000000;stroke-width:1;"/><path d="M1454,187.0391 L1454,197.0391 L1464,197.0391 L1454,187.0391" fill="#FFFFCC" style="stroke:#000000;stroke-width:1;"/><text fill="#000000" font-family="Verdana" font-size="13" font-weight="bold" lengthAdjust="spacing" textLength="143.4888" x="649.1746" y="204.106">Most Common Case</text><text fill="#000000" font-family="Verdana" font-size="13" lengthAdjust="spacing" textLength="249.7866" x="649.1746" y="219.2388">Stripe Checkout handles card declines</text><text fill="#000000" font-family="Verdana" font-size="13" lengthAdjust="spacing" textLength="241.979" x="649.1746" y="234.3716">internally without redirecting to shop</text><g class="message" data-participant-1="C" data-participant-2="S"><polygon fill="#000000" points="1406.0757,264.5703,1416.0757,268.5703,1406.0757,272.5703,1410.0757,268.5703" style="stroke:#000000;stroke-width:1;"/><line style="stroke:#000000;stroke-width:1;" x1="135.002" x2="1412.0757" y1="268.5703" y2="268.5703"/><text fill="#000000" font-family="Verdana" font-size="13" lengthAdjust="spacing" textLength="243.604" x="654.7368" y="263.5044">Enter card details on Stripe Checkout</text></g><g class="message" data-participant-1="S" data-participant-2="S"><line style="stroke:#000000;stroke-width:1;" x1="1428.0757" x2="1470.0757" y1="297.7031" y2="297.7031"/><line style="stroke:#000000;stroke-width:1;" x1="1470.0757" x2="1470.0757" y1="297.7031" y2="310.7031"/><line style="stroke:#000000;stroke-width:1;" x1="1429.0757" x2="1470.0757" y1="310.7031" y2="310.7031"/><polygon fill="#000000" points="1439.0757,306.7031,1429.0757,310.7031,1439.0757,314.7031,1435.0757,310.7031" style="stroke:#000000;stroke-width:1;"/><text fill="#000000" font-family="Verdana" font-size="13" lengthAdjust="spacing" textLength="143.3745" x="1435.0757" y="292.6372">Attempt authorization</text></g><path d="M1433,323.7031 L1433,408.7031 L1589,408.7031 L1589,333.7031 L1579,323.7031 L1433,323.7031" fill="#FFFFFF" style="stroke:#000000;stroke-width:1;"/><path d="M1579,323.7031 L1579,333.7031 L1589,333.7031 L1579,323.7031" fill="#FFFFFF" style="stroke:#000000;stroke-width:1;"/><text fill="#000000" font-family="Verdana" font-size="13" lengthAdjust="spacing" textLength="135.6558" x="1439" y="340.77">Card issuer declines:</text><text fill="#000000" font-family="Verdana" font-size="13" lengthAdjust="spacing" textLength="120.98" x="1439" y="355.9028">- Insufficient funds</text><text fill="#000000" font-family="Verdana" font-size="13" lengthAdjust="spacing" textLength="92.7456" x="1439" y="371.0356">- Card expired</text><text fill="#000000" font-family="Verdana" font-size="13" lengthAdjust="spacing" textLength="116.7651" x="1439" y="386.1685">- Fraud suspected</text><text fill="#000000" font-family="Verdana" font-size="13" lengthAdjust="spacing" textLength="33.1982" x="1439" y="401.3013">- etc.</text><g class="message" data-participant-1="S" data-participant-2="C"><polygon fill="#000000" points="146.002,446.6328,136.002,450.6328,146.002,454.6328,142.002,450.6328" style="stroke:#000000;stroke-width:1;"/><line style="stroke:#000000;stroke-width:1;stroke-dasharray:2,2;" x1="140.002" x2="1422.0757" y1="450.6328" y2="450.6328"/><text fill="#000000" font-family="Verdana" font-size="13" lengthAdjust="spacing" textLength="161.1797" x="698.449" y="430.4341">"Your card was declined.</text><text fill="#000000" font-family="Verdana" font-size="13" lengthAdjust="spacing" textLength="262.8691" x="647.6042" y="445.5669">Please try a different payment method."</text></g><path d="M10,463.6328 L10,518.6328 L261,518.6328 L261,473.6328 L251,463.6328 L10,463.6328" fill="#FFFFFF" style="stroke:#000000;stroke-width:1;"/><path d="M251,463.6328 L251,473.6328 L261,473.6328 L251,463.6328" fill="#FFFFFF" style="stroke:#000000;stroke-width:1;"/><text fill="#000000" font-family="Verdana" font-size="13" lengthAdjust="spacing" textLength="230.0073" x="16" y="480.6997">Customer stays on Stripe Checkout</text><text fill="#000000" font-family="Verdana" font-size="13" lengthAdjust="spacing" textLength="135.3638" x="16" y="495.8325">Can try another card</text><text fill="#000000" font-family="Verdana" font-size="13" lengthAdjust="spacing" textLength="183.7012" x="16" y="510.9653">Or click "Back" (cancel flow)</text><rect fill="#FFFFFF" height="3" style="stroke:#FFFFFF;stroke-width:1;" width="1709.3042" x="5" y="544.5977"/><line style="stroke:#000000;stroke-width:0.5;" x1="5" x2="1714.3042" y1="544.5977" y2="544.5977"/><line style="stroke:#000000;stroke-width:0.5;" x1="5" x2="1714.3042" y1="547.5977" y2="547.5977"/><rect fill="#FFFFFF" height="23.1328" style="stroke:#000000;stroke-width:1;" width="305.8906" x="706.7068" y="534.0313"/><text fill="#000000" font-family="Verdana" font-size="13" font-weight="bold" lengthAdjust="spacing" textLength="287.3647" x="712.7068" y="550.0981">Scenario B: Redirect with Failed Status</text><path d="M93,572.1641 L93,627.1641 L1464,627.1641 L1464,582.1641 L1454,572.1641 L93,572.1641" fill="#FFEEEE" style="stroke:#000000;stroke-width:1;"/><path d="M1454,572.1641 L1454,582.1641 L1464,582.1641 L1454,572.1641" fill="#FFEEEE" style="stroke:#000000;stroke-width:1;"/><text fill="#000000" font-family="Verdana" font-size="13" font-weight="bold" lengthAdjust="spacing" textLength="140.2451" x="643.7378" y="589.231">Less Common Case</text><text fill="#000000" font-family="Verdana" font-size="13" lengthAdjust="spacing" textLength="203.2139" x="643.7378" y="604.3638">Some failure scenarios redirect</text><text fill="#000000" font-family="Verdana" font-size="13" lengthAdjust="spacing" textLength="260.6602" x="643.7378" y="619.4966">back to success_url with failed payment</text><g class="message" data-participant-1="C" data-participant-2="S"><polygon fill="#000000" points="1411.0757,649.6953,1421.0757,653.6953,1411.0757,657.6953,1415.0757,653.6953" style="stroke:#000000;stroke-width:1;"/><line style="stroke:#000000;stroke-width:1;" x1="135.002" x2="1417.0757" y1="653.6953" y2="653.6953"/><text fill="#000000" font-family="Verdana" font-size="13" lengthAdjust="spacing" textLength="176.3062" x="690.8857" y="648.6294">Complete 3DS / processing</text></g><g class="message" data-participant-1="S" data-participant-2="S"><line style="stroke:#000000;stroke-width:1;" x1="1423.0757" x2="1465.0757" y1="682.8281" y2="682.8281"/><line style="stroke:#000000;stroke-width:1;" x1="1465.0757" x2="1465.0757" y1="682.8281" y2="695.8281"/><line style="stroke:#000000;stroke-width:1;" x1="1424.0757" x2="1465.0757" y1="695.8281" y2="695.8281"/><polygon fill="#000000" points="1434.0757,691.8281,1424.0757,695.8281,1434.0757,699.8281,1430.0757,695.8281" style="stroke:#000000;stroke-width:1;"/><text fill="#000000" font-family="Verdana" font-size="13" lengthAdjust="spacing" textLength="235.8281" x="1430.0757" y="677.7622">Payment fails after redirect initiated</text></g><g class="message" data-participant-1="S" data-participant-2="C"><polygon fill="#000000" points="146.002,736.0938,136.002,740.0938,146.002,744.0938,142.002,740.0938" style="stroke:#000000;stroke-width:1;"/><line style="stroke:#000000;stroke-width:1;stroke-dasharray:2,2;" x1="140.002" x2="1422.0757" y1="740.0938" y2="740.0938"/><text fill="#000000" font-family="Verdana" font-size="13" lengthAdjust="spacing" textLength="150.3442" x="703.8667" y="719.895">Redirect to success_url</text><text fill="#000000" font-family="Verdana" font-size="13" lengthAdjust="spacing" textLength="108.3418" x="724.8679" y="735.0278">(with session_id)</text></g><g class="message" data-participant-1="C" data-participant-2="OC"><polygon fill="#000000" points="530.9038,780.3594,540.9038,784.3594,530.9038,788.3594,534.9038,784.3594" style="stroke:#000000;stroke-width:1;"/><line style="stroke:#000000;stroke-width:1;" x1="135.002" x2="536.9038" y1="784.3594" y2="784.3594"/><text fill="#000000" font-family="Verdana" font-size="13" lengthAdjust="spacing" textLength="219.0703" x="229.4177" y="764.1606">GET /order?fnc=checkoutSuccess</text><text fill="#000000" font-family="Verdana" font-size="13" lengthAdjust="spacing" textLength="388.9019" x="144.502" y="779.2935">&amp;session_id=cs_xxx&amp;contract_id=xxx&amp;contract_token=xxx</text></g><g class="message" data-participant-1="OC" data-participant-2="ED"><polygon fill="#000000" points="806.415,809.4922,816.415,813.4922,806.415,817.4922,810.415,813.4922" style="stroke:#000000;stroke-width:1;"/><line style="stroke:#000000;stroke-width:1;" x1="552.9038" x2="812.415" y1="813.4922" y2="813.4922"/><text fill="#000000" font-family="Verdana" font-size="13" lengthAdjust="spacing" textLength="246.5112" x="562.4038" y="808.4263">dispatch(StripeCheckoutReturnEvent)</text></g><g class="message" data-participant-1="ED" data-participant-2="SCRH"><polygon fill="#000000" points="1129.3984,838.625,1139.3984,842.625,1129.3984,846.625,1133.3984,842.625" style="stroke:#000000;stroke-width:1;"/><line style="stroke:#000000;stroke-width:1;" x1="828.415" x2="1135.3984" y1="842.625" y2="842.625"/><text fill="#000000" font-family="Verdana" font-size="13" lengthAdjust="spacing" textLength="91.4761" x="939.1687" y="837.5591">handle(event)</text></g><g class="message" data-participant-1="SCRH" data-participant-2="SCRH"><line style="stroke:#000000;stroke-width:1;" x1="1151.3984" x2="1193.3984" y1="871.7578" y2="871.7578"/><line style="stroke:#000000;stroke-width:1;" x1="1193.3984" x2="1193.3984" y1="871.7578" y2="884.7578"/><line style="stroke:#000000;stroke-width:1;" x1="1152.3984" x2="1193.3984" y1="884.7578" y2="884.7578"/><polygon fill="#000000" points="1162.3984,880.7578,1152.3984,884.7578,1162.3984,888.7578,1158.3984,884.7578" style="stroke:#000000;stroke-width:1;"/><text fill="#000000" font-family="Verdana" font-size="13" lengthAdjust="spacing" textLength="169.8633" x="1158.3984" y="866.6919">Validate contract_token &#10003;</text></g><g class="message" data-participant-1="SCRH" data-participant-2="DB"><polygon fill="#000000" points="1660.9038,909.8906,1670.9038,913.8906,1660.9038,917.8906,1664.9038,913.8906" style="stroke:#000000;stroke-width:1;"/><line style="stroke:#000000;stroke-width:1;" x1="1151.3984" x2="1666.9038" y1="913.8906" y2="913.8906"/><text fill="#000000" font-family="Verdana" font-size="13" lengthAdjust="spacing" textLength="104.5649" x="1359.8687" y="908.8247">Load contract &#10003;</text></g><g class="message" data-participant-1="SCRH" data-participant-2="S"><polygon fill="#000000" points="1406.0757,939.0234,1416.0757,943.0234,1406.0757,947.0234,1410.0757,943.0234" style="stroke:#000000;stroke-width:1;"/><line style="stroke:#000000;stroke-width:1;" x1="1151.3984" x2="1412.0757" y1="943.0234" y2="943.0234"/><text fill="#000000" font-family="Verdana" font-size="13" lengthAdjust="spacing" textLength="227.2397" x="1171.1172" y="937.9575">checkout.sessions.retrieve(cs_xxx)</text></g><g class="message" data-participant-1="S" data-participant-2="SCRH"><polygon fill="#000000" points="1162.3984,1013.5547,1152.3984,1017.5547,1162.3984,1021.5547,1158.3984,1017.5547" style="stroke:#000000;stroke-width:1;"/><line style="stroke:#000000;stroke-width:1;stroke-dasharray:2,2;" x1="1156.3984" x2="1422.0757" y1="1017.5547" y2="1017.5547"/><text fill="#000000" font-family="Verdana" font-size="13" lengthAdjust="spacing" textLength="62.0039" x="1256.2351" y="967.0903">Session {</text><text fill="#000000" font-family="Verdana" font-size="13" lengthAdjust="spacing" textLength="168.708" x="1207.0154" y="982.2231">payment_status: 'unpaid',</text><text fill="#000000" font-family="Verdana" font-size="13" lengthAdjust="spacing" textLength="88.0483" x="1247.3452" y="997.356">status: 'open'</text><text fill="#000000" font-family="Verdana" font-size="13" lengthAdjust="spacing" textLength="8.271" x="1283.1016" y="1012.4888">}</text></g><path d="M1014.4121,1032.5547 L1078.855,1032.5547 L1078.855,1039.6875 L1068.855,1049.6875 L1014.4121,1049.6875 L1014.4121,1032.5547" fill="#FFFFFF" style="stroke:#000000;stroke-width:1;"/><rect fill="none" height="166.1953" style="stroke:#000000;stroke-width:1;" width="469.7236" x="1014.4121" y="1032.5547"/><text fill="#000000" font-family="Verdana" font-size="13" font-weight="bold" lengthAdjust="spacing" textLength="19.4429" x="1029.4121" y="1045.6216">alt</text><text fill="#000000" font-family="Verdana" font-size="11" font-weight="bold" lengthAdjust="spacing" textLength="146.792" x="1093.855" y="1044.7651">[Payment Intent exists]</text><g class="message" data-participant-1="SCRH" data-participant-2="S"><polygon fill="#000000" points="1406.0757,1066.8203,1416.0757,1070.8203,1406.0757,1074.8203,1410.0757,1070.8203" style="stroke:#000000;stroke-width:1;"/><line style="stroke:#000000;stroke-width:1;" x1="1151.3984" x2="1412.0757" y1="1070.8203" y2="1070.8203"/><text fill="#000000" font-family="Verdana" font-size="13" lengthAdjust="spacing" textLength="209.9932" x="1179.7405" y="1065.7544">paymentIntents.retrieve(pi_xxx)</text></g><g class="message" data-participant-1="S" data-participant-2="SCRH"><polygon fill="#000000" points="1162.3984,1186.75,1152.3984,1190.75,1162.3984,1194.75,1158.3984,1190.75" style="stroke:#000000;stroke-width:1;"/><line style="stroke:#000000;stroke-width:1;stroke-dasharray:2,2;" x1="1156.3984" x2="1422.0757" y1="1190.75" y2="1190.75"/><text fill="#000000" font-family="Verdana" font-size="13" lengthAdjust="spacing" textLength="108.4053" x="1233.0344" y="1094.8872">PaymentIntent {</text><text fill="#000000" font-family="Verdana" font-size="13" lengthAdjust="spacing" textLength="234.4126" x="1174.1631" y="1110.02">status: 'requires_payment_method',</text><text fill="#000000" font-family="Verdana" font-size="13" lengthAdjust="spacing" textLength="143.127" x="1219.8059" y="1125.1528">last_payment_error: {</text><text fill="#000000" font-family="Verdana" font-size="13" lengthAdjust="spacing" textLength="141.4639" x="1224.7698" y="1140.2856">code: 'card_declined',</text><text fill="#000000" font-family="Verdana" font-size="13" lengthAdjust="spacing" textLength="225.1514" x="1182.926" y="1155.4185">message: 'Your card was declined'</text><text fill="#000000" font-family="Verdana" font-size="13" lengthAdjust="spacing" textLength="8.271" x="1287.2339" y="1170.5513">}</text><text fill="#000000" font-family="Verdana" font-size="13" lengthAdjust="spacing" textLength="8.271" x="1283.1016" y="1185.6841">}</text></g><g class="message" data-participant-1="SCRH" data-participant-2="SCRH"><line style="stroke:#000000;stroke-width:1;" x1="1151.3984" x2="1193.3984" y1="1226.8828" y2="1226.8828"/><line style="stroke:#000000;stroke-width:1;" x1="1193.3984" x2="1193.3984" y1="1226.8828" y2="1239.8828"/><line style="stroke:#000000;stroke-width:1;" x1="1152.3984" x2="1193.3984" y1="1239.8828" y2="1239.8828"/><polygon fill="#000000" points="1162.3984,1235.8828,1152.3984,1239.8828,1162.3984,1243.8828,1158.3984,1239.8828" style="stroke:#000000;stroke-width:1;"/><text fill="#000000" font-family="Verdana" font-size="13" lengthAdjust="spacing" textLength="160.9385" x="1158.3984" y="1221.8169">Payment NOT successful</text></g><g class="message" data-participant-1="SCRH" data-participant-2="ED"><polygon fill="#000000" points="839.415,1295.2813,829.415,1299.2813,839.415,1303.2813,835.415,1299.2813" style="stroke:#000000;stroke-width:1;"/><line style="stroke:#000000;stroke-width:1;" x1="833.415" x2="1145.3984" y1="1299.2813" y2="1299.2813"/><text fill="#000000" font-family="Verdana" font-size="13" lengthAdjust="spacing" textLength="222.2886" x="876.2625" y="1263.9497">context.set('paymentFailed', true)</text><text fill="#000000" font-family="Verdana" font-size="13" lengthAdjust="spacing" textLength="288.9834" x="842.915" y="1279.0825">context.set('error', 'Your card was declined')</text><text fill="#000000" font-family="Verdana" font-size="13" lengthAdjust="spacing" textLength="276.3896" x="849.2119" y="1294.2153">context.set('declineCode', 'card_declined')</text></g><g class="message" data-participant-1="ED" data-participant-2="OC"><polygon fill="#000000" points="563.9038,1324.4141,553.9038,1328.4141,563.9038,1332.4141,559.9038,1328.4141" style="stroke:#000000;stroke-width:1;"/><line style="stroke:#000000;stroke-width:1;stroke-dasharray:2,2;" x1="557.9038" x2="822.415" y1="1328.4141" y2="1328.4141"/><text fill="#000000" font-family="Verdana" font-size="13" lengthAdjust="spacing" textLength="107.8657" x="634.2266" y="1323.3481">Event processed</text></g><g class="message" data-participant-1="OC" data-participant-2="OC"><line style="stroke:#000000;stroke-width:1;" x1="552.9038" x2="594.9038" y1="1357.5469" y2="1357.5469"/><line style="stroke:#000000;stroke-width:1;" x1="594.9038" x2="594.9038" y1="1357.5469" y2="1370.5469"/><line style="stroke:#000000;stroke-width:1;" x1="553.9038" x2="594.9038" y1="1370.5469" y2="1370.5469"/><polygon fill="#000000" points="563.9038,1366.5469,553.9038,1370.5469,563.9038,1374.5469,559.9038,1370.5469" style="stroke:#000000;stroke-width:1;"/><text fill="#000000" font-family="Verdana" font-size="13" lengthAdjust="spacing" textLength="158.2471" x="559.9038" y="1352.481">Check context for errors</text></g><g class="message" data-participant-1="OC" data-participant-2="C"><polygon fill="#000000" points="146.002,1410.8125,136.002,1414.8125,146.002,1418.8125,142.002,1414.8125" style="stroke:#000000;stroke-width:1;"/><line style="stroke:#000000;stroke-width:1;stroke-dasharray:2,2;" x1="140.002" x2="546.9038" y1="1414.8125" y2="1414.8125"/><text fill="#000000" font-family="Verdana" font-size="13" lengthAdjust="spacing" textLength="170.3076" x="256.2991" y="1394.6138">Redirect to payment page</text><text fill="#000000" font-family="Verdana" font-size="13" lengthAdjust="spacing" textLength="126.2549" x="278.3254" y="1409.7466">with error message</text></g><rect fill="#FFFFFF" height="3" style="stroke:#FFFFFF;stroke-width:1;" width="1709.3042" x="5" y="1443.3789"/><line style="stroke:#000000;stroke-width:0.5;" x1="5" x2="1714.3042" y1="1443.3789" y2="1443.3789"/><line style="stroke:#000000;stroke-width:0.5;" x1="5" x2="1714.3042" y1="1446.3789" y2="1446.3789"/><rect fill="#FFFFFF" height="23.1328" style="stroke:#000000;stroke-width:1;" width="65.0161" x="827.144" y="1432.8125"/><text fill="#000000" font-family="Verdana" font-size="13" font-weight="bold" lengthAdjust="spacing" textLength="46.4902" x="833.144" y="1448.8794">Result</text><path d="M100,1470.9453 L100,1555.9453 L1706,1555.9453 L1706,1480.9453 L1696,1470.9453 L100,1470.9453" fill="#FFEEEE" style="stroke:#000000;stroke-width:1;"/><path d="M1696,1470.9453 L1696,1480.9453 L1706,1480.9453 L1696,1470.9453" fill="#FFEEEE" style="stroke:#000000;stroke-width:1;"/><text fill="#000000" font-family="Verdana" font-size="13" lengthAdjust="spacing" textLength="122.5732" x="794.9377" y="1488.0122">&#10060; No order created</text><text fill="#000000" font-family="Verdana" font-size="13" lengthAdjust="spacing" textLength="157.2822" x="794.9377" y="1503.145">&#10060; Payment not captured</text><text fill="#000000" font-family="Verdana" font-size="13" lengthAdjust="spacing" textLength="191.9912" x="794.9377" y="1518.2778">&#9888;&#65039; Contract remains PENDING</text><text fill="#000000" font-family="Verdana" font-size="13" lengthAdjust="spacing" textLength="207.4287" x="794.9377" y="1533.4106">&#9989; Customer sees error message</text><text fill="#000000" font-family="Verdana" font-size="13" lengthAdjust="spacing" textLength="200.2178" x="794.9377" y="1548.5435">&#9989; Customer can retry payment</text><rect fill="#FFFFFF" height="3" style="stroke:#FFFFFF;stroke-width:1;" width="1709.3042" x="5" y="1582.1758"/><line style="stroke:#000000;stroke-width:0.5;" x1="5" x2="1714.3042" y1="1582.1758" y2="1582.1758"/><line style="stroke:#000000;stroke-width:0.5;" x1="5" x2="1714.3042" y1="1585.1758" y2="1585.1758"/><rect fill="#FFFFFF" height="23.1328" style="stroke:#000000;stroke-width:1;" width="263.1646" x="728.0698" y="1571.6094"/><text fill="#000000" font-family="Verdana" font-size="13" font-weight="bold" lengthAdjust="spacing" textLength="244.6387" x="734.0698" y="1587.6763">Payment Intent Status Reference</text><path d="M1199,1609.7422 L1199,1895.7422 L1646,1895.7422 L1646,1619.7422 L1636,1609.7422 L1199,1609.7422" fill="#FFFFFF" style="stroke:#000000;stroke-width:1;"/><path d="M1636,1609.7422 L1636,1619.7422 L1646,1619.7422 L1636,1609.7422" fill="#FFFFFF" style="stroke:#000000;stroke-width:1;"/><text fill="#000000" font-family="Verdana" font-size="13" font-weight="bold" lengthAdjust="spacing" textLength="217.3057" x="1205" y="1626.8091">PaymentIntent.status values:</text><text fill="#000000" font-family="Verdana" font-size="13" lengthAdjust="spacing" textLength="4.1323" x="1205" y="1641.9419">&#160;</text><text fill="#000000" font-family="Verdana" font-size="13" lengthAdjust="spacing" textLength="41.4248" x="1209.1323" y="1659.0747">Status</text><text fill="#000000" font-family="Verdana" font-size="13" lengthAdjust="spacing" textLength="55.5229" x="1392.0718" y="1659.0747">Meaning</text><text fill="#000000" font-family="Verdana" font-size="13" lengthAdjust="spacing" textLength="40.9424" x="1513.5596" y="1659.0747">Action</text><text fill="#000000" font-family="Verdana" font-size="13" lengthAdjust="spacing" text-decoration="line-through" textLength="4.6909" x="1205" y="1674.2075">-</text><text fill="#000000" font-family="Verdana" font-size="13" lengthAdjust="spacing" textLength="14.0728" x="1209.6909" y="1674.2075">---</text><text fill="#000000" font-family="Verdana" font-size="13" lengthAdjust="spacing" text-decoration="line-through" textLength="4.6909" x="1387.9395" y="1674.2075">-</text><text fill="#000000" font-family="Verdana" font-size="13" lengthAdjust="spacing" textLength="18.7637" x="1392.6304" y="1674.2075">----</text><text fill="#000000" font-family="Verdana" font-size="13" lengthAdjust="spacing" text-decoration="line-through" textLength="4.6909" x="1509.4272" y="1674.2075">-</text><text fill="#000000" font-family="Verdana" font-size="13" lengthAdjust="spacing" textLength="14.0728" x="1514.1182" y="1674.2075">---</text><text fill="#000000" font-family="Verdana" font-size="13" lengthAdjust="spacing" textLength="69.8052" x="1209.1323" y="1689.3403">succeeded</text><text fill="#000000" font-family="Verdana" font-size="13" lengthAdjust="spacing" textLength="80.3867" x="1392.0718" y="1689.3403">Payment OK</text><text fill="#000000" font-family="Verdana" font-size="13" lengthAdjust="spacing" textLength="82.5068" x="1513.5596" y="1689.3403">Create order</text><text fill="#000000" font-family="Verdana" font-size="13" lengthAdjust="spacing" textLength="70.3447" x="1209.1323" y="1704.4731">processing</text><text fill="#000000" font-family="Verdana" font-size="13" lengthAdjust="spacing" textLength="113.2231" x="1392.0718" y="1704.4731">Async processing</text><text fill="#000000" font-family="Verdana" font-size="13" lengthAdjust="spacing" textLength="114.2261" x="1513.5596" y="1704.4731">Wait for webhook</text><text fill="#000000" font-family="Verdana" font-size="13" lengthAdjust="spacing" textLength="174.6748" x="1209.1323" y="1719.606">requires_payment_method</text><text fill="#000000" font-family="Verdana" font-size="13" lengthAdjust="spacing" textLength="56.8687" x="1392.0718" y="1719.606">Declined</text><text fill="#000000" font-family="Verdana" font-size="13" lengthAdjust="spacing" textLength="71.1953" x="1513.5596" y="1719.606">Show error</text><text fill="#000000" font-family="Verdana" font-size="13" lengthAdjust="spacing" textLength="100.0771" x="1209.1323" y="1734.7388">requires_action</text><text fill="#000000" font-family="Verdana" font-size="13" lengthAdjust="spacing" textLength="79.4028" x="1392.0718" y="1734.7388">3DS needed</text><text fill="#000000" font-family="Verdana" font-size="13" lengthAdjust="spacing" textLength="54.4819" x="1513.5596" y="1734.7388">Redirect</text><text fill="#000000" font-family="Verdana" font-size="13" lengthAdjust="spacing" textLength="142.4668" x="1209.1323" y="1749.8716">requires_confirmation</text><text fill="#000000" font-family="Verdana" font-size="13" lengthAdjust="spacing" textLength="94.415" x="1392.0718" y="1749.8716">Needs confirm</text><text fill="#000000" font-family="Verdana" font-size="13" lengthAdjust="spacing" textLength="51.4668" x="1513.5596" y="1749.8716">Confirm</text><text fill="#000000" font-family="Verdana" font-size="13" lengthAdjust="spacing" textLength="58.3604" x="1209.1323" y="1765.0044">canceled</text><text fill="#000000" font-family="Verdana" font-size="13" lengthAdjust="spacing" textLength="60.29" x="1392.0718" y="1765.0044">Canceled</text><text fill="#000000" font-family="Verdana" font-size="13" lengthAdjust="spacing" textLength="71.1953" x="1513.5596" y="1765.0044">Show error</text><line style="stroke:#000000;stroke-width:1;" x1="1205" x2="1631.918" y1="1647.0078" y2="1647.0078"/><line style="stroke:#000000;stroke-width:1;" x1="1205" x2="1631.918" y1="1662.1406" y2="1662.1406"/><line style="stroke:#000000;stroke-width:1;" x1="1205" x2="1631.918" y1="1677.2734" y2="1677.2734"/><line style="stroke:#000000;stroke-width:1;" x1="1205" x2="1631.918" y1="1692.4063" y2="1692.4063"/><line style="stroke:#000000;stroke-width:1;" x1="1205" x2="1631.918" y1="1707.5391" y2="1707.5391"/><line style="stroke:#000000;stroke-width:1;" x1="1205" x2="1631.918" y1="1722.6719" y2="1722.6719"/><line style="stroke:#000000;stroke-width:1;" x1="1205" x2="1631.918" y1="1737.8047" y2="1737.8047"/><line style="stroke:#000000;stroke-width:1;" x1="1205" x2="1631.918" y1="1752.9375" y2="1752.9375"/><line style="stroke:#000000;stroke-width:1;" x1="1205" x2="1631.918" y1="1768.0703" y2="1768.0703"/><line style="stroke:#000000;stroke-width:1;" x1="1205" x2="1205" y1="1647.0078" y2="1768.0703"/><line style="stroke:#000000;stroke-width:1;" x1="1387.9395" x2="1387.9395" y1="1647.0078" y2="1768.0703"/><line style="stroke:#000000;stroke-width:1;" x1="1509.4272" x2="1509.4272" y1="1647.0078" y2="1768.0703"/><line style="stroke:#000000;stroke-width:1;" x1="1631.918" x2="1631.918" y1="1647.0078" y2="1768.0703"/><text fill="#000000" font-family="Verdana" font-size="13" lengthAdjust="spacing" textLength="4.1323" x="1205" y="1782.1372">&#160;</text><text fill="#000000" font-family="Verdana" font-size="13" font-weight="bold" lengthAdjust="spacing" textLength="173.3101" x="1205" y="1797.27">Common decline codes:</text><text fill="#000000" font-family="Verdana" font-size="13" lengthAdjust="spacing" textLength="99.144" x="1205" y="1812.4028">- card_declined</text><text fill="#000000" font-family="Verdana" font-size="13" lengthAdjust="spacing" textLength="123.1255" x="1205" y="1827.5356">- insufficient_funds</text><text fill="#000000" font-family="Verdana" font-size="13" lengthAdjust="spacing" textLength="93.1836" x="1205" y="1842.6685">- expired_card</text><text fill="#000000" font-family="Verdana" font-size="13" lengthAdjust="spacing" textLength="95.1958" x="1205" y="1857.8013">- incorrect_cvc</text><text fill="#000000" font-family="Verdana" font-size="13" lengthAdjust="spacing" textLength="117.6538" x="1205" y="1872.9341">- processing_error</text><text fill="#000000" font-family="Verdana" font-size="13" lengthAdjust="spacing" textLength="76.3877" x="1205" y="1888.0669">- fraudulent</text><!--SRC=[TLPBRYCt4DttAIeACFx0rYoo4-04SakUCJAs36kG8800WMPNMuHQP8Ta-vDubja5o2AxO0Ba63dFN21NIF7NwfPj3p1kaw_-hwhubLtX1g6kc92P5RP2c5ijQeGhzhX1QU4OnerTAIr-OLOe2HFabP1Om5cbxhFCh8MicMORk65yVQjL8ujSLKh3rsTJzw-3CFXpWvBZ1Hh3Rd5SYLi9d8oWxg0qcbf9ar2dI7R6MgjxiBh1B6FSalQyCLPjK0Cpa6SaQGKNDIE71pDTeCwLj5fL5Ug1WynsCDCxCZiHfcQMho9cEkbZGYBo5VArQkmrsaRBzqmMIUSyltx_aWIChyu382kOPJVC80mcySjVJ4wpxEG4vXGxqqB1U9Io7lIRb6KuTycHhAeUuUGaowIo2EgEmiwFO4ufffyypm0E3o-KiP2hpOPgb9EXmqCwZbfJ3B2AwZdJ1HJ1XY6Ss9gv5rHjWceiX4PkXRm5gy2iL9sXBC2va6Kv77yByn5CdM1IPvce393z7REkPEAEaUlpB9j7oR6rkAaji2wxGe1QtAuig9BWGB6GRc5CGtQInoCwFwRScAOiAVcEfYNnplXZBu0FDNbV-8CppPe2J6Dg2YUUeUN3JZZa57cLZs3masfYFFTKg6Ym62xaLOMka5O_0eD2b2LgPxUERR912gCO3h82kz5s2kPYIQGrbZs-c2aNhmn6I7GLSql7C_gg15_3u9JwR03xd54dLL1ITnnq8kdIwdG4rx6AlgnmHWMYpfrRPXlp2g6czEC9zO7wxpcXo7qeIKsZ4KmqP5go4CAD0K-OXdFIi6nq5OoNmNXCs0jS8bjrXUJFDvCvl8LQAwU0-DTo9isaqXEDbOvxoJHnM5Z1N87RQhRHz_rPo7tlaN7gbLoAuY1wCIEXTzEFy5Qv6V9TAVa9ZwMP1_c5VBCLE-5c-V3my8QxOKDbTqUzlwrQetH7snQWIPJDlB7fP4H42YDe_wLXuuVKmLQK1bGsdVXSqEWPnMxUnnsOdqkP-tyB_O5Led2NVTVWo-S_M-I4-F91iQB5-DkjeX6aN0nZ2inG8_bD3ko7J7IzY6K8zkT107vTI4WKM1hFmn7iDJJwHR5tv2xRGrMZt5l8JpiTnIhRyi1DH_g53y9Or_mTLwEDWEZuMOlW9q17AKbsVBtgYWQFMwSqhJ2Yb5cc64BV1zShPcnxWRIoz2Y80wMqG19tpRnCGoK80OqEl-Ze-kNXi-TWdrmc07gve1RQhNFApENiOs9ysLHRbEESAoy-k2BQ_RteRfWCUqT-nnuiP0_ZGw6xr_pRnSUBd69sKlsW3thrz5Hrd8xDvocVMfzQkODrx9-rNUex9OK29Rq8l9ScO9wtVvhJDMLw8NtxUu6K_Qubrw8qHw_HD4IsPsDoSjgPar_-_Xqk5VXv0LmZ2nl67QTQa30bhQQE3bT__VFVltz0dffCuuOUNmQkffUJyyjt3l7vjywgGDhNVLTt4BG9mF7xyONPIc7iD4iS_jVe5nZ7dVZcVlRtMc0Os0zth6fezz8U8CnJKlG45yYaUoKymPZx9-AJkp-EF-t7zilV1tfYGIlXgVLnzZtzaViinfG6x7ONE2lcKVB-qOzC11BSuyrAgNKKUwLRwQPznL8SAtfQXWJlIB4OZbz8CldQice7JLmiXTwmA7D9U0Fnq4MLlhnKsDvUNxxzxBdY2n7tR-mUFqPy1TmRfjTN_aHqNaJBxOieFeQMyIdXS5nf5yEItt5_iirc65p-i7GFfwRgCUf_]--></g></svg>