<svg xmlns="http://www.w3.org/2000/svg" xmlns:xlink="http://www.w3.org/1999/xlink" contentStyleType="text/css" data-diagram-type="DESCRIPTION" height="742px" preserveAspectRatio="none" style="width:6825px;height:742px;background:#FEFEFE;" version="1.1" viewBox="0 0 6825 742" width="6825px" zoomAndPan="magnify"><title>Sprint 4: TDD Test Strategy - Test Pyramid</title><defs/><g><rect fill="#FEFEFE" height="742" style="stroke:none;stroke-width:1;" width="6825" x="0" y="0"/><g class="title" data-source-line="2"><text fill="#000000" font-family="Verdana" font-size="22" font-weight="bold" lengthAdjust="spacing" textLength="531.5771" x="3142.4598" y="35.4209">Sprint 4: TDD Test Strategy - Test Pyramid</text></g><!--cluster Test Pyramid--><g class="cluster" data-entity="Test Pyramid" data-source-line="11" data-uid="ent0002" id="cluster_Test Pyramid"><rect fill="#FFFFFF" height="220.53" rx="5" ry="5" style="stroke:#000000;stroke-width:1;" width="1122" x="5595" y="125.2094"/><text fill="#000000" font-family="Verdana" font-size="14" font-weight="bold" lengthAdjust="spacing" textLength="104.0908" x="6103.9546" y="140.2045">Test Pyramid</text></g><!--cluster Manual--><g class="cluster" data-entity="Manual" data-source-line="13" data-uid="ent0003" id="cluster_Manual"><rect fill="#F08080" height="136.66" rx="5" ry="5" style="stroke:#000000;stroke-width:1;" width="260" x="5619" y="176.6394"/><text fill="#000000" font-family="Verdana" font-size="14" font-weight="bold" lengthAdjust="spacing" textLength="121.29" x="5688.355" y="191.6345">Manual Testing</text></g><!--cluster Integration--><g class="cluster" data-entity="Integration" data-source-line="23" data-uid="ent0005" id="cluster_Integration"><rect fill="#FFD700" height="137.53" rx="5" ry="5" style="stroke:#000000;stroke-width:1;" width="398" x="5911" y="176.2094"/><text fill="#000000" font-family="Verdana" font-size="14" font-weight="bold" lengthAdjust="spacing" textLength="136.0898" x="6041.9551" y="191.2045">Integration Tests</text></g><!--cluster Unit--><g class="cluster" data-entity="Unit" data-source-line="32" data-uid="ent0007" id="cluster_Unit"><rect fill="#90EE90" height="137.53" rx="5" ry="5" style="stroke:#000000;stroke-width:1;" width="336" x="6349" y="176.2094"/><text fill="#000000" font-family="Verdana" font-size="14" font-weight="bold" lengthAdjust="spacing" textLength="80.1035" x="6476.9482" y="191.2045">Unit Tests</text></g><!--cluster Unit Tests (Phase 1-3)--><g class="cluster" data-entity="Unit Tests .Phase 1-3." data-source-line="46" data-uid="ent0009" id="cluster_Unit Tests .Phase 1-3."><path d="M1007,165.3194 L1178.4443,165.3194 A7.5,7.5 0 0 1 1183.4443,170.3194 L1190.4443,187.6163 L3039,187.6163 A5,5 0 0 1 3044,192.6163 L3044,730.7294 A5,5 0 0 1 3039,735.7294 L1007,735.7294 A5,5 0 0 1 1002,730.7294 L1002,170.3194 A5,5 0 0 1 1007,165.3194" fill="#90EE90" style="stroke:#000000;stroke-width:1;"/><line style="stroke:#000000;stroke-width:1;" x1="1002" x2="1190.4443" y1="187.6163" y2="187.6163"/><text fill="#000000" font-family="Verdana" font-size="14" font-weight="bold" lengthAdjust="spacing" textLength="175.4443" x="1006" y="180.3145">Unit Tests (Phase 1-3)</text></g><!--cluster EventTest--><g class="cluster" data-entity="EventTest" data-source-line="48" data-uid="ent0010" id="cluster_EventTest"><rect fill="#FFFFFF" height="267.27" rx="5" ry="5" style="stroke:#000000;stroke-width:1;" width="585" x="1198" y="208.3194"/><text fill="#000000" font-family="Verdana" font-size="14" font-weight="bold" lengthAdjust="spacing" textLength="248.0146" x="1366.4927" y="223.3145">StripeRefundRequestEventTest</text></g><!--cluster HandlerTest--><g class="cluster" data-entity="HandlerTest" data-source-line="55" data-uid="ent0015" id="cluster_HandlerTest"><rect fill="#FFFFFF" height="421.11" rx="5" ry="5" style="stroke:#000000;stroke-width:1;" width="1041" x="1979" y="208.3194"/><text fill="#000000" font-family="Verdana" font-size="14" font-weight="bold" lengthAdjust="spacing" textLength="265.5215" x="2366.7393" y="223.3145">StripeRefundRequestHandlerTest</text></g><!--cluster ControllerTest--><g class="cluster" data-entity="ControllerTest" data-source-line="66" data-uid="ent0024" id="cluster_ControllerTest"><rect fill="#FFFFFF" height="155.59" rx="5" ry="5" style="stroke:#000000;stroke-width:1;" width="929" x="1026" y="556.1394"/><text fill="#000000" font-family="Verdana" font-size="14" font-weight="bold" lengthAdjust="spacing" textLength="214.6895" x="1383.1553" y="571.1345">OrderRefundControllerTest</text></g><!--cluster Integration Tests (Phase 4)--><g class="cluster" data-entity="Integration Tests .Phase 4." data-source-line="80" data-uid="ent0031" id="cluster_Integration Tests .Phase 4."><path d="M3073,165.3194 L3284.8789,165.3194 A7.5,7.5 0 0 1 3289.8789,170.3194 L3296.8789,187.6163 L4070,187.6163 A5,5 0 0 1 4075,192.6163 L4075,494.5894 A5,5 0 0 1 4070,499.5894 L3073,499.5894 A5,5 0 0 1 3068,494.5894 L3068,170.3194 A5,5 0 0 1 3073,165.3194" fill="#FFD700" style="stroke:#000000;stroke-width:1;"/><line style="stroke:#000000;stroke-width:1;" x1="3068" x2="3296.8789" y1="187.6163" y2="187.6163"/><text fill="#000000" font-family="Verdana" font-size="14" font-weight="bold" lengthAdjust="spacing" textLength="215.8789" x="3072" y="180.3145">Integration Tests (Phase 4)</text></g><!--cluster IntegrationTest--><g class="cluster" data-entity="IntegrationTest" data-source-line="82" data-uid="ent0032" id="cluster_IntegrationTest"><rect fill="#FFFFFF" height="267.27" rx="5" ry="5" style="stroke:#000000;stroke-width:1;" width="959" x="3092" y="208.3194"/><text fill="#000000" font-family="Verdana" font-size="14" font-weight="bold" lengthAdjust="spacing" textLength="216.1182" x="3463.4409" y="223.3145">RefundFlowIntegrationTest</text></g><!--cluster TDD Development Order--><g class="cluster" data-entity="TDD Development Order" data-source-line="95" data-uid="ent0038" id="cluster_TDD Development Order"><path d="M16,117.6394 L204.6846,117.6394 A7.5,7.5 0 0 1 209.6846,122.6394 L216.6846,139.9362 L973,139.9362 A5,5 0 0 1 978,144.9362 L978,527.1394 A5,5 0 0 1 973,532.1394 L16,532.1394 A5,5 0 0 1 11,527.1394 L11,122.6394 A5,5 0 0 1 16,117.6394" fill="#FFF0F5" style="stroke:#000000;stroke-width:1;"/><line style="stroke:#000000;stroke-width:1;" x1="11" x2="216.6846" y1="139.9362" y2="139.9362"/><text fill="#000000" font-family="Verdana" font-size="14" font-weight="bold" lengthAdjust="spacing" textLength="192.6846" x="15" y="132.6345">TDD Development Order</text></g><!--cluster S1--><g class="cluster" data-entity="S1" data-source-line="97" data-uid="ent0039" id="cluster_S1"><rect fill="#FFC0CB" height="122.4" rx="5" ry="5" style="stroke:#000000;stroke-width:1;" width="293" x="43" y="183.7694"/><text fill="#000000" font-family="Verdana" font-size="14" font-weight="bold" lengthAdjust="spacing" textLength="50.9072" x="164.0464" y="198.7645">Step 1</text></g><!--cluster S2--><g class="cluster" data-entity="S2" data-source-line="105" data-uid="ent0041" id="cluster_S2"><rect fill="#FFC0CB" height="152.66" rx="5" ry="5" style="stroke:#000000;stroke-width:1;" width="261" x="376" y="168.6394"/><text fill="#000000" font-family="Verdana" font-size="14" font-weight="bold" lengthAdjust="spacing" textLength="50.9072" x="481.0464" y="183.6345">Step 2</text></g><!--cluster S3--><g class="cluster" data-entity="S3" data-source-line="115" data-uid="ent0043" id="cluster_S3"><rect fill="#FFC0CB" height="122.4" rx="5" ry="5" style="stroke:#000000;stroke-width:1;" width="269" x="677" y="183.7694"/><text fill="#000000" font-family="Verdana" font-size="14" font-weight="bold" lengthAdjust="spacing" textLength="50.9072" x="786.0464" y="198.7645">Step 3</text></g><!--cluster S4--><g class="cluster" data-entity="S4" data-source-line="123" data-uid="ent0045" id="cluster_S4"><rect fill="#FFC0CB" height="122.4" rx="5" ry="5" style="stroke:#000000;stroke-width:1;" width="251" x="436" y="377.7394"/><text fill="#000000" font-family="Verdana" font-size="14" font-weight="bold" lengthAdjust="spacing" textLength="50.9072" x="536.0464" y="392.7345">Step 4</text></g><!--cluster S5--><g class="cluster" data-entity="S5" data-source-line="131" data-uid="ent0047" id="cluster_S5"><rect fill="#FFC0CB" height="122.4" rx="5" ry="5" style="stroke:#000000;stroke-width:1;" width="219" x="727" y="377.7394"/><text fill="#000000" font-family="Verdana" font-size="14" font-weight="bold" lengthAdjust="spacing" textLength="50.9072" x="811.0464" y="392.7345">Step 5</text></g><!--cluster Mocking Strategy--><g class="cluster" data-entity="Mocking Strategy" data-source-line="149" data-uid="ent0054" id="cluster_Mocking Strategy"><path d="M4104,148.7694 L4239.2822,148.7694 A7.5,7.5 0 0 1 4244.2822,153.7694 L4251.2822,171.0662 L5566,171.0662 A5,5 0 0 1 5571,176.0662 L5571,494.5894 A5,5 0 0 1 5566,499.5894 L4104,499.5894 A5,5 0 0 1 4099,494.5894 L4099,153.7694 A5,5 0 0 1 4104,148.7694" fill="#D3D3D3" style="stroke:#000000;stroke-width:1;"/><line style="stroke:#000000;stroke-width:1;" x1="4099" x2="4251.2822" y1="171.0662" y2="171.0662"/><text fill="#000000" font-family="Verdana" font-size="14" font-weight="bold" lengthAdjust="spacing" textLength="139.2822" x="4103" y="163.7645">Mocking Strategy</text></g><!--cluster HMock--><g class="cluster" data-entity="HMock" data-source-line="151" data-uid="ent0055" id="cluster_HMock"><rect fill="#FFFFFF" height="267.27" rx="5" ry="5" style="stroke:#000000;stroke-width:1;" width="517" x="4123" y="208.3194"/><text fill="#000000" font-family="Verdana" font-size="14" font-weight="bold" lengthAdjust="spacing" textLength="161.2598" x="4300.8701" y="223.3145">Handler Tests Mock:</text></g><!--cluster CMock--><g class="cluster" data-entity="CMock" data-source-line="158" data-uid="ent0060" id="cluster_CMock"><rect fill="#FFFFFF" height="267.27" rx="5" ry="5" style="stroke:#000000;stroke-width:1;" width="418" x="4664" y="208.3194"/><text fill="#000000" font-family="Verdana" font-size="14" font-weight="bold" lengthAdjust="spacing" textLength="177.9805" x="4784.0098" y="223.3145">Controller Tests Mock:</text></g><!--cluster IMock--><g class="cluster" data-entity="IMock" data-source-line="164" data-uid="ent0064" id="cluster_IMock"><rect fill="#FFFFFF" height="106.4" rx="5" ry="5" style="stroke:#000000;stroke-width:1;" width="441" x="5106" y="191.7694"/><text fill="#000000" font-family="Verdana" font-size="14" font-weight="bold" lengthAdjust="spacing" textLength="187.7217" x="5232.6392" y="206.7645">Integration Tests Mock:</text></g><g class="entity" data-entity="ManualNote" data-source-line="15" data-uid="ent0004" id="entity_ManualNote"><path d="M5634.69,216.6394 L5634.69,292.3034 A5,5 0 0 0 5639.69,297.3034 L5858.3091,297.3034 A5,5 0 0 0 5863.3091,292.3034 L5863.3091,221.6394 L5853.3091,211.6394 L5639.69,211.6394 A5,5 0 0 0 5634.69,216.6394" fill="#FFFFFF" style="stroke:#000000;stroke-width:1;"/><path d="M5853.3091,211.6394 L5853.3091,219.1394 A2.5,2.5 0 0 0 5855.8091,221.6394 L5863.3091,221.6394 L5853.3091,211.6394" fill="#FFFFFF" style="stroke:#000000;stroke-width:1;"/><text fill="#000000" font-family="Verdana" font-size="13" font-weight="bold" lengthAdjust="spacing" textLength="151.1567" x="5640.69" y="228.7063">Admin Panel Testing</text><text fill="#000000" font-family="Verdana" font-size="13" lengthAdjust="spacing" textLength="123.6206" x="5640.69" y="243.8391">- Load refund page</text><text fill="#000000" font-family="Verdana" font-size="13" lengthAdjust="spacing" textLength="132.1646" x="5640.69" y="258.9719">- Execute full refund</text><text fill="#000000" font-family="Verdana" font-size="13" lengthAdjust="spacing" textLength="153.9751" x="5640.69" y="274.1047">- Execute partial refund</text><text fill="#000000" font-family="Verdana" font-size="13" lengthAdjust="spacing" textLength="207.6191" x="5640.69" y="289.2375">- Verify success/error messages</text></g><g class="entity" data-entity="IntNote" data-source-line="25" data-uid="ent0006" id="entity_IntNote"><path d="M5934.67,224.2094 L5934.67,284.7406 A5,5 0 0 0 5939.67,289.7406 L6260.3277,289.7406 A5,5 0 0 0 6265.3277,284.7406 L6265.3277,229.2094 L6255.3277,219.2094 L5939.67,219.2094 A5,5 0 0 0 5934.67,224.2094" fill="#FFFFFF" style="stroke:#000000;stroke-width:1;"/><path d="M6255.3277,219.2094 L6255.3277,226.7094 A2.5,2.5 0 0 0 6257.8277,229.2094 L6265.3277,229.2094 L6255.3277,219.2094" fill="#FFFFFF" style="stroke:#000000;stroke-width:1;"/><text fill="#000000" font-family="Verdana" font-size="13" font-weight="bold" lengthAdjust="spacing" textLength="109.751" x="5940.67" y="236.2763">Full Flow Tests</text><text fill="#000000" font-family="Verdana" font-size="13" lengthAdjust="spacing" textLength="309.6577" x="5940.67" y="251.4091">- Event dispatch &#8594; Handler &#8594; Stripe Mock &#8594; DB</text><text fill="#000000" font-family="Verdana" font-size="13" lengthAdjust="spacing" textLength="121.1387" x="5940.67" y="266.5419">- Real DI container</text><text fill="#000000" font-family="Verdana" font-size="13" lengthAdjust="spacing" textLength="155.1938" x="5940.67" y="281.6747">- Database transactions</text></g><g class="entity" data-entity="UnitNote" data-source-line="34" data-uid="ent0008" id="entity_UnitNote"><path d="M6372.72,224.2094 L6372.72,284.7406 A5,5 0 0 0 6377.72,289.7406 L6636.2786,289.7406 A5,5 0 0 0 6641.2786,284.7406 L6641.2786,229.2094 L6631.2786,219.2094 L6377.72,219.2094 A5,5 0 0 0 6372.72,224.2094" fill="#FFFFFF" style="stroke:#000000;stroke-width:1;"/><path d="M6631.2786,219.2094 L6631.2786,226.7094 A2.5,2.5 0 0 0 6633.7786,229.2094 L6641.2786,229.2094 L6631.2786,219.2094" fill="#FFFFFF" style="stroke:#000000;stroke-width:1;"/><text fill="#000000" font-family="Verdana" font-size="13" font-weight="bold" lengthAdjust="spacing" textLength="191.293" x="6378.72" y="236.2763">Isolated Component Tests</text><text fill="#000000" font-family="Verdana" font-size="13" lengthAdjust="spacing" textLength="118.3394" x="6378.72" y="251.4091">- Event class tests</text><text fill="#000000" font-family="Verdana" font-size="13" lengthAdjust="spacing" textLength="197.1074" x="6378.72" y="266.5419">- Handler tests (mocked deps)</text><text fill="#000000" font-family="Verdana" font-size="13" lengthAdjust="spacing" textLength="247.5586" x="6378.72" y="281.6747">- Controller tests (mocked dispatcher)</text></g><!--entity T1--><g class="entity" data-entity="T1" data-source-line="49" data-uid="ent0011" id="entity_T1"><rect fill="#FFFFFF" height="22.2969" rx="5" ry="5" style="stroke:#000000;stroke-width:1;" width="236.0977" x="1233.95" y="243.3194"/><text fill="#000000" font-family="Verdana" font-size="14" lengthAdjust="spacing" textLength="216.0977" x="1243.95" y="259.3145">testEventCarriesContextData()</text></g><!--entity T2--><g class="entity" data-entity="T2" data-source-line="50" data-uid="ent0012" id="entity_T2"><rect fill="#FFFFFF" height="22.2969" rx="5" ry="5" style="stroke:#000000;stroke-width:1;" width="240.958" x="1519.52" y="243.3194"/><text fill="#000000" font-family="Verdana" font-size="14" lengthAdjust="spacing" textLength="220.958" x="1529.52" y="259.3145">testFullRefundHasNullAmount()</text></g><!--entity T3--><g class="entity" data-entity="T3" data-source-line="51" data-uid="ent0013" id="entity_T3"><rect fill="#FFFFFF" height="22.2969" rx="5" ry="5" style="stroke:#000000;stroke-width:1;" width="262.293" x="1213.85" y="437.2894"/><text fill="#000000" font-family="Verdana" font-size="14" lengthAdjust="spacing" textLength="242.293" x="1223.85" y="453.2845">testIsFullRefundReturnsCorrectly()</text></g><!--entity T4--><g class="entity" data-entity="T4" data-source-line="52" data-uid="ent0014" id="entity_T4"><rect fill="#FFFFFF" height="22.2969" rx="5" ry="5" style="stroke:#000000;stroke-width:1;" width="255.7236" x="1511.14" y="437.2894"/><text fill="#000000" font-family="Verdana" font-size="14" lengthAdjust="spacing" textLength="235.7236" x="1521.14" y="453.2845">testGettersReturnCorrectValues()</text></g><!--entity H1--><g class="entity" data-entity="H1" data-source-line="56" data-uid="ent0016" id="entity_H1"><rect fill="#FFFFFF" height="22.2969" rx="5" ry="5" style="stroke:#000000;stroke-width:1;" width="343.333" x="1995.33" y="243.3194"/><text fill="#000000" font-family="Verdana" font-size="14" lengthAdjust="spacing" textLength="323.333" x="2005.33" y="259.3145">testHandlerProcessesFullRefundSuccessfully()</text></g><!--entity H2--><g class="entity" data-entity="H2" data-source-line="57" data-uid="ent0017" id="entity_H2"><rect fill="#FFFFFF" height="22.2969" rx="5" ry="5" style="stroke:#000000;stroke-width:1;" width="286.9639" x="2373.52" y="243.3194"/><text fill="#000000" font-family="Verdana" font-size="14" lengthAdjust="spacing" textLength="266.9639" x="2383.52" y="259.3145">testHandlerSetsErrorOnStripeFailure()</text></g><!--entity H3--><g class="entity" data-entity="H3" data-source-line="58" data-uid="ent0018" id="entity_H3"><rect fill="#FFFFFF" height="22.2969" rx="5" ry="5" style="stroke:#000000;stroke-width:1;" width="308.0732" x="2695.96" y="243.3194"/><text fill="#000000" font-family="Verdana" font-size="14" lengthAdjust="spacing" textLength="288.0732" x="2705.96" y="259.3145">testHandlerRejectsInvalidContractState()</text></g><!--entity H4--><g class="entity" data-entity="H4" data-source-line="59" data-uid="ent0019" id="entity_H4"><rect fill="#FFFFFF" height="22.2969" rx="5" ry="5" style="stroke:#000000;stroke-width:1;" width="270.0996" x="2031.95" y="437.2894"/><text fill="#000000" font-family="Verdana" font-size="14" lengthAdjust="spacing" textLength="250.0996" x="2041.95" y="453.2845">testHandlerSupportsPartialRefund()</text></g><!--entity H5--><g class="entity" data-entity="H5" data-source-line="60" data-uid="ent0020" id="entity_H5"><rect fill="#FFFFFF" height="22.2969" rx="5" ry="5" style="stroke:#000000;stroke-width:1;" width="310.3291" x="2336.84" y="437.2894"/><text fill="#000000" font-family="Verdana" font-size="14" lengthAdjust="spacing" textLength="290.3291" x="2346.84" y="453.2845">testHandlerImplementsCorrectInterface()</text></g><!--entity H6--><g class="entity" data-entity="H6" data-source-line="61" data-uid="ent0021" id="entity_H6"><rect fill="#FFFFFF" height="22.2969" rx="5" ry="5" style="stroke:#000000;stroke-width:1;" width="268.2129" x="2681.89" y="437.2894"/><text fill="#000000" font-family="Verdana" font-size="14" lengthAdjust="spacing" textLength="248.2129" x="2691.89" y="453.2845">testHandlerUpdatesContractState()</text></g><!--entity H7--><g class="entity" data-entity="H7" data-source-line="62" data-uid="ent0022" id="entity_H7"><rect fill="#FFFFFF" height="22.2969" rx="5" ry="5" style="stroke:#000000;stroke-width:1;" width="259.5996" x="2037.2" y="591.1394"/><text fill="#000000" font-family="Verdana" font-size="14" lengthAdjust="spacing" textLength="239.5996" x="2047.2" y="607.1345">testHandlerEmitsRefundedEvent()</text></g><!--entity H8--><g class="entity" data-entity="H8" data-source-line="63" data-uid="ent0023" id="entity_H8"><rect fill="#FFFFFF" height="22.2969" rx="5" ry="5" style="stroke:#000000;stroke-width:1;" width="252.5654" x="2331.72" y="591.1394"/><text fill="#000000" font-family="Verdana" font-size="14" lengthAdjust="spacing" textLength="232.5654" x="2341.72" y="607.1345">testHandlerLogsRefundAttempt()</text></g><!--entity C1--><g class="entity" data-entity="C1" data-source-line="67" data-uid="ent0025" id="entity_C1"><rect fill="#FFFFFF" height="22.2969" rx="5" ry="5" style="stroke:#000000;stroke-width:1;" width="211.6797" x="1042.16" y="591.1394"/><text fill="#000000" font-family="Verdana" font-size="14" lengthAdjust="spacing" textLength="191.6797" x="1052.16" y="607.1345">testFullRefundEmitsEvent()</text></g><!--entity C2--><g class="entity" data-entity="C2" data-source-line="68" data-uid="ent0026" id="entity_C2"><rect fill="#FFFFFF" height="22.2969" rx="5" ry="5" style="stroke:#000000;stroke-width:1;" width="318.71" x="1288.65" y="591.1394"/><text fill="#000000" font-family="Verdana" font-size="14" lengthAdjust="spacing" textLength="298.71" x="1298.65" y="607.1345">testPartialRefundEmitsEventWithAmount()</text></g><!--entity C3--><g class="entity" data-entity="C3" data-source-line="69" data-uid="ent0027" id="entity_C3"><rect fill="#FFFFFF" height="22.2969" rx="5" ry="5" style="stroke:#000000;stroke-width:1;" width="296.7939" x="1642.6" y="591.1394"/><text fill="#000000" font-family="Verdana" font-size="14" lengthAdjust="spacing" textLength="276.7939" x="1652.6" y="607.1345">testControllerProcessesSuccessResult()</text></g><!--entity C4--><g class="entity" data-entity="C4" data-source-line="70" data-uid="ent0028" id="entity_C4"><rect fill="#FFFFFF" height="22.2969" rx="5" ry="5" style="stroke:#000000;stroke-width:1;" width="275.1172" x="1042.44" y="673.4294"/><text fill="#000000" font-family="Verdana" font-size="14" lengthAdjust="spacing" textLength="255.1172" x="1052.44" y="689.4245">testControllerProcessesErrorResult()</text></g><!--entity C5--><g class="entity" data-entity="C5" data-source-line="71" data-uid="ent0029" id="entity_C5"><rect fill="#FFFFFF" height="22.2969" rx="5" ry="5" style="stroke:#000000;stroke-width:1;" width="233.0215" x="1352.49" y="673.4294"/><text fill="#000000" font-family="Verdana" font-size="14" lengthAdjust="spacing" textLength="213.0215" x="1362.49" y="689.4245">testRenderExposesViewData()</text></g><!--entity C6--><g class="entity" data-entity="C6" data-source-line="72" data-uid="ent0030" id="entity_C6"><rect fill="#FFFFFF" height="22.2969" rx="5" ry="5" style="stroke:#000000;stroke-width:1;" width="206.1836" x="1620.91" y="673.4294"/><text fill="#000000" font-family="Verdana" font-size="14" lengthAdjust="spacing" textLength="186.1836" x="1630.91" y="689.4245">testNoOrderReturnsError()</text></g><!--entity I1--><g class="entity" data-entity="I1" data-source-line="83" data-uid="ent0033" id="entity_I1"><rect fill="#FFFFFF" height="22.2969" rx="5" ry="5" style="stroke:#000000;stroke-width:1;" width="278.7334" x="3107.63" y="243.3194"/><text fill="#000000" font-family="Verdana" font-size="14" lengthAdjust="spacing" textLength="258.7334" x="3117.63" y="259.3145">testFullRefundFlowViaEventSystem()</text></g><!--entity I2--><g class="entity" data-entity="I2" data-source-line="84" data-uid="ent0034" id="entity_I2"><rect fill="#FFFFFF" height="22.2969" rx="5" ry="5" style="stroke:#000000;stroke-width:1;" width="318.2861" x="3421.86" y="243.3194"/><text fill="#000000" font-family="Verdana" font-size="14" lengthAdjust="spacing" textLength="298.2861" x="3431.86" y="259.3145">testPartialRefundPreservesContractState()</text></g><!--entity I3--><g class="entity" data-entity="I3" data-source-line="85" data-uid="ent0035" id="entity_I3"><rect fill="#FFFFFF" height="22.2969" rx="5" ry="5" style="stroke:#000000;stroke-width:1;" width="259.7773" x="3775.11" y="243.3194"/><text fill="#000000" font-family="Verdana" font-size="14" lengthAdjust="spacing" textLength="239.7773" x="3785.11" y="259.3145">testRefundFailureRollsBackState()</text></g><!--entity I4--><g class="entity" data-entity="I4" data-source-line="86" data-uid="ent0036" id="entity_I4"><rect fill="#FFFFFF" height="22.2969" rx="5" ry="5" style="stroke:#000000;stroke-width:1;" width="298.4072" x="3107.8" y="437.2894"/><text fill="#000000" font-family="Verdana" font-size="14" lengthAdjust="spacing" textLength="278.4072" x="3117.8" y="453.2845">testConcurrentRefundsAreIdempotent()</text></g><!--entity I5--><g class="entity" data-entity="I5" data-source-line="87" data-uid="ent0037" id="entity_I5"><rect fill="#FFFFFF" height="22.2969" rx="5" ry="5" style="stroke:#000000;stroke-width:1;" width="250.3506" x="3440.82" y="437.2894"/><text fill="#000000" font-family="Verdana" font-size="14" lengthAdjust="spacing" textLength="230.3506" x="3450.82" y="453.2845">testRefundUpdatesOrderStatus()</text></g><g class="entity" data-entity="S1Note" data-source-line="99" data-uid="ent0040" id="entity_S1Note"><path d="M67.43,231.7694 L67.43,277.1678 A5,5 0 0 0 72.43,282.1678 L287.5706,282.1678 A5,5 0 0 0 292.5706,277.1678 L292.5706,236.7694 L282.5706,226.7694 L72.43,226.7694 A5,5 0 0 0 67.43,231.7694" fill="#FFFFFF" style="stroke:#000000;stroke-width:1;"/><path d="M282.5706,226.7694 L282.5706,234.2694 A2.5,2.5 0 0 0 285.0706,236.7694 L292.5706,236.7694 L282.5706,226.7694" fill="#FFFFFF" style="stroke:#000000;stroke-width:1;"/><text fill="#000000" font-family="Verdana" font-size="13" font-weight="bold" lengthAdjust="spacing" textLength="168.5303" x="73.43" y="243.8363">Write Event Tests First</text><text fill="#000000" font-family="Verdana" font-size="13" lengthAdjust="spacing" textLength="204.1406" x="73.43" y="258.9691">Tests define the event contract</text><text fill="#000000" font-family="Verdana" font-size="13" lengthAdjust="spacing" textLength="149.2588" x="73.43" y="274.1019">before implementation</text></g><g class="entity" data-entity="S2Note" data-source-line="107" data-uid="ent0042" id="entity_S2Note"><path d="M400.21,216.6394 L400.21,292.3034 A5,5 0 0 0 405.21,297.3034 L588.7837,297.3034 A5,5 0 0 0 593.7837,292.3034 L593.7837,221.6394 L583.7837,211.6394 L405.21,211.6394 A5,5 0 0 0 400.21,216.6394" fill="#FFFFFF" style="stroke:#000000;stroke-width:1;"/><path d="M583.7837,211.6394 L583.7837,219.1394 A2.5,2.5 0 0 0 586.2837,221.6394 L593.7837,221.6394 L583.7837,211.6394" fill="#FFFFFF" style="stroke:#000000;stroke-width:1;"/><text fill="#000000" font-family="Verdana" font-size="13" font-weight="bold" lengthAdjust="spacing" textLength="146.561" x="406.21" y="228.7063">Write Handler Tests</text><text fill="#000000" font-family="Verdana" font-size="13" lengthAdjust="spacing" textLength="172.5737" x="406.21" y="243.8391">Define expected behavior:</text><text fill="#000000" font-family="Verdana" font-size="13" lengthAdjust="spacing" textLength="127.0928" x="406.21" y="258.9719">- Success scenarios</text><text fill="#000000" font-family="Verdana" font-size="13" lengthAdjust="spacing" textLength="106.9644" x="406.21" y="274.1047">- Error scenarios</text><text fill="#000000" font-family="Verdana" font-size="13" lengthAdjust="spacing" textLength="82.3291" x="406.21" y="289.2375">- Edge cases</text></g><g class="entity" data-entity="S3Note" data-source-line="117" data-uid="ent0044" id="entity_S3Note"><path d="M701.17,231.7694 L701.17,277.1678 A5,5 0 0 0 706.17,282.1678 L897.837,282.1678 A5,5 0 0 0 902.837,277.1678 L902.837,236.7694 L892.837,226.7694 L706.17,226.7694 A5,5 0 0 0 701.17,231.7694" fill="#FFFFFF" style="stroke:#000000;stroke-width:1;"/><path d="M892.837,226.7694 L892.837,234.2694 A2.5,2.5 0 0 0 895.337,236.7694 L902.837,236.7694 L892.837,226.7694" fill="#FFFFFF" style="stroke:#000000;stroke-width:1;"/><text fill="#000000" font-family="Verdana" font-size="13" font-weight="bold" lengthAdjust="spacing" textLength="180.667" x="707.17" y="243.8363">Implement to Pass Tests</text><text fill="#000000" font-family="Verdana" font-size="13" lengthAdjust="spacing" textLength="144.0728" x="707.17" y="258.9691">Write minimal code to</text><text fill="#000000" font-family="Verdana" font-size="13" lengthAdjust="spacing" textLength="105.9233" x="707.17" y="274.1019">make tests pass</text></g><g class="entity" data-entity="S4Note" data-source-line="125" data-uid="ent0046" id="entity_S4Note"><path d="M460.46,425.7394 L460.46,471.1378 A5,5 0 0 0 465.46,476.1378 L638.5474,476.1378 A5,5 0 0 0 643.5474,471.1378 L643.5474,430.7394 L633.5474,420.7394 L465.46,420.7394 A5,5 0 0 0 460.46,425.7394" fill="#FFFFFF" style="stroke:#000000;stroke-width:1;"/><path d="M633.5474,420.7394 L633.5474,428.2394 A2.5,2.5 0 0 0 636.0474,430.7394 L643.5474,430.7394 L633.5474,420.7394" fill="#FFFFFF" style="stroke:#000000;stroke-width:1;"/><text fill="#000000" font-family="Verdana" font-size="13" font-weight="bold" lengthAdjust="spacing" textLength="162.0874" x="466.46" y="437.8063">Write Controller Tests</text><text fill="#000000" font-family="Verdana" font-size="13" lengthAdjust="spacing" textLength="141.0322" x="466.46" y="452.9391">Verify event emission</text><text fill="#000000" font-family="Verdana" font-size="13" lengthAdjust="spacing" textLength="140.1309" x="466.46" y="468.0719">and result processing</text></g><g class="entity" data-entity="S5Note" data-source-line="133" data-uid="ent0048" id="entity_S5Note"><path d="M751.08,425.7394 L751.08,471.1378 A5,5 0 0 0 756.08,476.1378 L897.9115,476.1378 A5,5 0 0 0 902.9115,471.1378 L902.9115,430.7394 L892.9115,420.7394 L756.08,420.7394 A5,5 0 0 0 751.08,425.7394" fill="#FFFFFF" style="stroke:#000000;stroke-width:1;"/><path d="M892.9115,420.7394 L892.9115,428.2394 A2.5,2.5 0 0 0 895.4115,430.7394 L902.9115,430.7394 L892.9115,420.7394" fill="#FFFFFF" style="stroke:#000000;stroke-width:1;"/><text fill="#000000" font-family="Verdana" font-size="13" font-weight="bold" lengthAdjust="spacing" textLength="126.3691" x="757.08" y="437.8063">Integration Tests</text><text fill="#000000" font-family="Verdana" font-size="13" lengthAdjust="spacing" textLength="130.8315" x="757.08" y="452.9391">Full flow verification</text><text fill="#000000" font-family="Verdana" font-size="13" lengthAdjust="spacing" textLength="122.3638" x="757.08" y="468.0719">with real container</text></g><!--entity M1--><g class="entity" data-entity="M1" data-source-line="152" data-uid="ent0056" id="entity_M1"><rect fill="#FFFFFF" height="22.2969" rx="5" ry="5" style="stroke:#000000;stroke-width:1;" width="232.4131" x="4138.79" y="243.3194"/><text fill="#000000" font-family="Verdana" font-size="14" lengthAdjust="spacing" textLength="212.4131" x="4148.79" y="259.3145">StripeAdapterFactoryInterface</text></g><!--entity M2--><g class="entity" data-entity="M2" data-source-line="153" data-uid="ent0057" id="entity_M2"><rect fill="#FFFFFF" height="22.2969" rx="5" ry="5" style="stroke:#000000;stroke-width:1;" width="217.9756" x="4406.01" y="243.3194"/><text fill="#000000" font-family="Verdana" font-size="14" lengthAdjust="spacing" textLength="197.9756" x="4416.01" y="259.3145">ContractRepositoryInterface</text></g><!--entity M3--><g class="entity" data-entity="M3" data-source-line="154" data-uid="ent0058" id="entity_M3"><rect fill="#FFFFFF" height="22.2969" rx="5" ry="5" style="stroke:#000000;stroke-width:1;" width="197.7822" x="4156.11" y="437.2894"/><text fill="#000000" font-family="Verdana" font-size="14" lengthAdjust="spacing" textLength="177.7822" x="4166.11" y="453.2845">OrderRepositoryInterface</text></g><!--entity M4--><g class="entity" data-entity="M4" data-source-line="155" data-uid="ent0059" id="entity_M4"><rect fill="#FFFFFF" height="22.2969" rx="5" ry="5" style="stroke:#000000;stroke-width:1;" width="131.1865" x="4388.41" y="437.2894"/><text fill="#000000" font-family="Verdana" font-size="14" lengthAdjust="spacing" textLength="111.1865" x="4398.41" y="453.2845">LoggerInterface</text></g><!--entity M5--><g class="entity" data-entity="M5" data-source-line="159" data-uid="ent0061" id="entity_M5"><rect fill="#FFFFFF" height="22.2969" rx="5" ry="5" style="stroke:#000000;stroke-width:1;" width="198.6436" x="4679.68" y="243.3194"/><text fill="#000000" font-family="Verdana" font-size="14" lengthAdjust="spacing" textLength="178.6436" x="4689.68" y="259.3145">EventDispatcherInterface</text></g><!--entity M6--><g class="entity" data-entity="M6" data-source-line="160" data-uid="ent0062" id="entity_M6"><rect fill="#FFFFFF" height="22.2969" rx="5" ry="5" style="stroke:#000000;stroke-width:1;" width="152.46" x="4913.77" y="243.3194"/><text fill="#000000" font-family="Verdana" font-size="14" lengthAdjust="spacing" textLength="132.46" x="4923.77" y="259.3145">getOrder() method</text></g><!--entity M7--><g class="entity" data-entity="M7" data-source-line="161" data-uid="ent0063" id="entity_M7"><rect fill="#FFFFFF" height="22.2969" rx="5" ry="5" style="stroke:#000000;stroke-width:1;" width="185.6689" x="4686.17" y="437.2894"/><text fill="#000000" font-family="Verdana" font-size="14" lengthAdjust="spacing" textLength="165.6689" x="4696.17" y="453.2845">getContractId() method</text></g><!--entity M8--><g class="entity" data-entity="M8" data-source-line="165" data-uid="ent0065" id="entity_M8"><rect fill="#FFFFFF" height="22.2969" rx="5" ry="5" style="stroke:#000000;stroke-width:1;" width="184.5479" x="5121.73" y="243.3194"/><text fill="#000000" font-family="Verdana" font-size="14" lengthAdjust="spacing" textLength="164.5479" x="5131.73" y="259.3145">Stripe API (HTTP Client)</text></g><g class="entity" data-entity="IMockNote" data-source-line="167" data-uid="ent0066" id="entity_IMockNote"><path d="M5341.38,231.7694 L5341.38,277.1678 A5,5 0 0 0 5346.38,282.1678 L5525.6119,282.1678 A5,5 0 0 0 5530.6119,277.1678 L5530.6119,236.7694 L5520.6119,226.7694 L5346.38,226.7694 A5,5 0 0 0 5341.38,231.7694" fill="#FFFFFF" style="stroke:#000000;stroke-width:1;"/><path d="M5520.6119,226.7694 L5520.6119,234.2694 A2.5,2.5 0 0 0 5523.1119,236.7694 L5530.6119,236.7694 L5520.6119,226.7694" fill="#FFFFFF" style="stroke:#000000;stroke-width:1;"/><text fill="#000000" font-family="Verdana" font-size="13" lengthAdjust="spacing" textLength="112.3154" x="5347.38" y="243.8363">Real DI container</text><text fill="#000000" font-family="Verdana" font-size="13" lengthAdjust="spacing" textLength="93.0122" x="5347.38" y="258.9691">Real database</text><text fill="#000000" font-family="Verdana" font-size="13" lengthAdjust="spacing" textLength="168.2319" x="5347.38" y="274.1019">Only external API mocked</text></g><g class="entity" data-entity="GMN67" data-source-line="179" data-uid="ent0068" id="entity_GMN67"><path d="M6535.51,410.5994 L6535.51,486.2634 A5,5 0 0 0 6540.51,491.2634 L6813.4968,491.2634 A5,5 0 0 0 6818.4968,486.2634 L6818.4968,415.5994 L6808.4968,405.5994 L6540.51,405.5994 A5,5 0 0 0 6535.51,410.5994" fill="#FFFFFF" style="stroke:#000000;stroke-width:1;"/><path d="M6808.4968,405.5994 L6808.4968,413.0994 A2.5,2.5 0 0 0 6810.9968,415.5994 L6818.4968,415.5994 L6808.4968,405.5994" fill="#FFFFFF" style="stroke:#000000;stroke-width:1;"/><text fill="#000000" font-family="Verdana" font-size="13" font-weight="bold" lengthAdjust="spacing" textLength="153.7275" x="6541.51" y="422.6663">Unit Test Assertions:</text><text fill="#000000" font-family="Verdana" font-size="13" lengthAdjust="spacing" textLength="261.9868" x="6541.51" y="437.7991">- assertTrue/assertFalse for success flag</text><text fill="#000000" font-family="Verdana" font-size="13" lengthAdjust="spacing" textLength="221.6855" x="6541.51" y="452.9319">- assertEquals for refund amounts</text><text fill="#000000" font-family="Verdana" font-size="13" lengthAdjust="spacing" textLength="221.9902" x="6541.51" y="468.0647">- assertInstanceOf for event types</text><text fill="#000000" font-family="Verdana" font-size="13" lengthAdjust="spacing" textLength="226.313" x="6541.51" y="483.1975">- assertNull for error when success</text></g><g class="entity" data-entity="GMN70" data-source-line="187" data-uid="ent0071" id="entity_GMN70"><path d="M6187.64,410.5994 L6187.64,486.2634 A5,5 0 0 0 6192.64,491.2634 L6409.3548,491.2634 A5,5 0 0 0 6414.3548,486.2634 L6414.3548,415.5994 L6404.3548,405.5994 L6192.64,405.5994 A5,5 0 0 0 6187.64,410.5994" fill="#FFFFFF" style="stroke:#000000;stroke-width:1;"/><path d="M6404.3548,405.5994 L6404.3548,413.0994 A2.5,2.5 0 0 0 6406.8548,415.5994 L6414.3548,415.5994 L6404.3548,405.5994" fill="#FFFFFF" style="stroke:#000000;stroke-width:1;"/><text fill="#000000" font-family="Verdana" font-size="13" font-weight="bold" lengthAdjust="spacing" textLength="205.7148" x="6193.64" y="422.6663">Integration Test Assertions:</text><text fill="#000000" font-family="Verdana" font-size="13" lengthAdjust="spacing" textLength="184.9009" x="6193.64" y="437.7991">- Database state verification</text><text fill="#000000" font-family="Verdana" font-size="13" lengthAdjust="spacing" textLength="174.6494" x="6193.64" y="452.9319">- Contract state transitions</text><text fill="#000000" font-family="Verdana" font-size="13" lengthAdjust="spacing" textLength="146.7832" x="6193.64" y="468.0647">- Order status updates</text><text fill="#000000" font-family="Verdana" font-size="13" lengthAdjust="spacing" textLength="182.5205" x="6193.64" y="483.1975">- Event dispatch verification</text></g><!--link S1 to S2--><g class="link" data-entity-1="S1" data-entity-2="S2" data-source-line="139" data-uid="lnk49" id="link_S1_S2"><path d="M336.0234,188.5165 C336.0855,188.2345 336.1482,187.9522 336.2113,187.6695 C336.4638,186.5387 336.7241,185.4022 336.9924,184.2607 C337.5289,181.9777 338.0975,179.6749 338.7,177.3581 C348.34,140.2894 366.665,99.6444 401.5,79.6394 C438.31,58.4994 555.69,58.4994 592.5,79.6394 C609.17,89.2144 619.9063,104.4063 626.6052,121.9327 C629.9546,130.6959 632.2947,140.0427 633.8626,149.5629 C634.6465,154.323 635.2373,159.1264 635.6647,163.9219 C635.7716,165.1207 635.8682,166.3191 635.9551,167.5162 C635.9768,167.8154 635.5875,162.1287 635.608,162.4278" fill="none" id="S1-to-S2" style="stroke:#000000;stroke-width:1;"/><polygon fill="#000000" points="636.0184,168.4137,639.3934,159.1612,635.6764,163.4254,631.4121,159.7084,636.0184,168.4137" style="stroke:#000000;stroke-width:1;"/></g><!--link S2 to S3--><g class="link" data-entity-1="S2" data-entity-2="S3" data-source-line="140" data-uid="lnk50" id="link_S2_S3"><path d="M637.0234,188.5165 C637.0855,188.2345 637.1482,187.9522 637.2113,187.6695 C637.4638,186.5387 637.7241,185.4022 637.9924,184.2607 C638.5289,181.9777 639.0975,179.6749 639.7,177.3581 C649.34,140.2894 667.665,99.6444 702.5,79.6394 C740.85,57.6094 863.15,57.6094 901.5,79.6394 C934.84,98.7894 944.445,140.4069 945.4862,178.2331 C945.5188,179.4152 945.543,180.5936 945.5592,181.7674 C945.5674,182.3544 945.53,176.9403 945.5342,177.5249" fill="none" id="S2-to-S3" style="stroke:#000000;stroke-width:1;"/><polygon fill="#000000" points="945.5778,183.5247,949.5123,174.4959,945.5415,178.5249,941.5125,174.554,945.5778,183.5247" style="stroke:#000000;stroke-width:1;"/></g><!--link S3 to S4--><g class="link" data-entity-1="S3" data-entity-2="S4" data-source-line="141" data-uid="lnk51" id="link_S3_S4"><path d="M940.2398,306.6118 C940.0835,307.9555 939.9052,309.3026 939.7032,310.6499 C938.8951,316.0392 937.707,321.4316 936.0216,326.6236 C932.6506,337.0075 927.29,346.5894 919,353.7394 C903.5,367.0994 752.78,351.6094 735,361.7394 C715.54,372.8194 701.67,393.7519 692.6012,412.1544 C691.4677,414.4547 690.4091,416.7155 689.424,418.9125 C688.9314,420.0111 688.4573,421.0937 688.0013,422.1573 C687.7733,422.6891 687.5498,423.2162 687.3309,423.7382 C687.2214,423.9992 689.4126,418.717 689.3054,418.9754" fill="none" id="S3-to-S4" style="stroke:#000000;stroke-width:1;"/><polygon fill="#000000" points="687.0059,424.5173,694.1497,417.7375,688.9221,419.8991,686.7605,414.6715,687.0059,424.5173" style="stroke:#000000;stroke-width:1;"/></g><!--reverse link S5 to S4--><g class="link" data-entity-1="S5" data-entity-2="S4" data-source-line="142" data-uid="lnk53" id="link_S5_S4"><path d="M927.3789,372.2704 C927.1274,371.7492 929.2563,376.2598 928.9922,375.7458 C928.4638,374.7179 927.9098,373.7052 927.329,372.7097 C925.0058,368.7278 922.2538,365.0231 919,361.7394 C913.38,356.0694 909.43,358.6294 901.5,357.7394 C868.6,354.0294 785.4,354.0294 752.5,357.7394 C744.57,358.6294 741.53,357.1594 735,361.7394 C717.39,374.0744 703.985,393.8944 694.7125,411.4719 C692.3944,415.8663 690.3345,420.1205 688.5318,424.0825 C688.0812,425.0731 687.6466,426.0453 687.228,426.9969 C687.1757,427.1159 687.1236,427.2345 687.0718,427.3528" fill="none" id="S5-backto-S4" style="stroke:#000000;stroke-width:1;"/><polygon fill="#000000" points="929.953,377.6902,929.7051,367.8445,927.8079,373.1737,922.4787,371.2766,929.953,377.6902" style="stroke:#000000;stroke-width:1;"/></g><!--link Unit to GMN67--><g class="link" data-entity-1="Unit" data-entity-2="GMN67" data-source-line="179" data-uid="lnk69" id="link_Unit_GMN67"><path d="M6677,314.2056 C6677,315.1573 6677,316.1149 6677,317.0777 C6677,319.0035 6677,320.9505 6677,322.915 C6677,326.844 6677,330.8433 6677,334.8829 C6677,342.9621 6677,351.2029 6677,359.3667 C6677,375.6944 6677,391.7144 6677,405.5194" fill="none" id="Unit-GMN67" style="stroke:#000000;stroke-width:1;stroke-dasharray:7,7;"/></g><!--link Integration to GMN70--><g class="link" data-entity-1="Integration" data-entity-2="GMN70" data-source-line="187" data-uid="lnk72" id="link_Integration_GMN70"><path d="M6301,314.2056 C6301,315.1573 6301,316.1149 6301,317.0777 C6301,319.0035 6301,320.9505 6301,322.915 C6301,326.844 6301,330.8433 6301,334.8829 C6301,342.9621 6301,351.2029 6301,359.3667 C6301,375.6944 6301,391.7144 6301,405.5194" fill="none" id="Integration-GMN70" style="stroke:#000000;stroke-width:1;stroke-dasharray:7,7;"/></g><!--SRC=[hLZTJkCu5BxlKtZXOW6fcWNAp0XfL-hq1wA1KhM5qLoQvBJrajWPsm6gqTpk0-mZxfFiiPs493WCHPFUDF4vzldvpfz_qsj8WAGnPRoZcOw1p5F9k2QzKx8O3ia2b2PpBQc6rOPqtVjq8sd2eav7tJ6UKdmXjpIyMqcHyMWWOY79xdXaVXKAknWAoK6ImpywdT_9dwzya7GncY_8zEkiVnaCj-7iI0WrvIlKQwSg-WxvtkaGV2hhbvHdDBOQChxQ8LIH_DFk1LkjzK18_F_Tifc72mrFH1DyAvVCSt3GZnB6oPHoA7SzEAZHTCc5e14AiKJRa9IkeB4yUeGmmsEMMHpdP2qKQ6JDQ0lH3KYst12LXI4ezGwaH1Sb-1TFL2Kje0oyKEF7C_i47360G622MtMKDL7rw-wPY2EFXP36OvwnqMaSYmUtspFJZEu1SHWnbL8Thib___nBpYcFOiIF-O-WP2cGIn7UsVVXfmR_3D0Smu24Wck4DyZ6-f1gUaiL44GtLpGqAhpQ6DUSwOeLxAk3oPa4u1uZ61AF5G8bOWokY0n4aWfkL7x9765CbIBQK3JM2zlODRANe5rmrmXIjT-W7A11f8WznBcjGUwtsU77be5xFGaMBdg7eqK_k9Xl5RqfPXM4QDNSP6-wDauxx1xlxpHCtdIIWyZCHiGClcN8RwreDh9kAzyg_WgfZCYEBcW7L4e6ojWC7hN1pDw-vLqSUbWCfjrvvrHDyAMVODhJ1SkHXoLGJqmpq9daU9WqMiIRWk_OmtS6MeDKZYNdkA4nAbbmzLgmwp5B3fxIC9LthsdozQaK9g50HOMvop4cOHNYdn-sxp07hKOc7Lrn9zQOiZYJKB0UjRFEu6_KIGNydiOiig3689vhZAQ2-_Y5WxCq5LAhgSkRJlY2hzVE5oHfZ2MJwy9B9W7A9GtBGq_QcQ_J2ALJNbdVjxED4gQLan0YYyg2wKCxquLOvJnz14gIbZmVMs1n9IDZrAMjuKM6A15H_-G5nHC8hC1LGGS-2DHC_yJoXUbrBMm6FX0yoLE2C8VU35GMbxp7h-Er6Anp-a0mmtI8_dXC1VBSC7Ye98I1p_4JaPlL1hOzfI1__yQK6amMexDPVn5SJNv1PdrMrOi4spFfDI_eJQWubvdQNM4leTBuzXEic5rk6BMkdsyKGZKtKF1Jp4mbA93t_e0AZhp-iqUw73D32AXFQ8WQMmjWmWoZdUSRgBw48CAWmi9OmZJejHwOnxs5WZaiAt9qSF9649ZUV7nnzULjJZVSGxY7MAGcbH4hcAcczDu2_5ESgRMte49A3gtayqEoEsNypjFfp0yzVSuNoN3LDJ4EPsCcbMwqEMubWYNsQmHd4mAkwydzMwEzXQMGG5YHa2tWNjk_MKsEd2P7xPeSjMfIj5k-Pctev8V750_4lkeMrlIU2NdQQCJoX4LK29nA9fejdKqNxQiHkZB4K5LRANtib3vkL_hOrwOMLYPQu4Y3GliKTwR1gOSbs7k78a8dYXf5GkyWxpfJt6KhoNjEybwxvBrMTrLwNf_W-O3aq0O9KwgA9VEWkr4WKnz8wee6ZdDRYN_Yn3zf5__4P_XcVcv8RgUefPcYxeqEBAo7WNaUiA2YDDOZpL789pY6TbUQlhhx5qQ0-tHK-UGo92Ae6ua7Rhwup8UUwSQmj3GdMsUqowl1vs1oHkOBh6sZiwzlosnc74J7b5SMJoC2tNWIMYsAxInvwfeaErOs2vVhKFiHJR7b6sC-4d9Jjd_kmg1PiuhAD0Di6PY7eLcbydQXXRfPdB39Ms5FMYTgw_kRCL3HT-3LrsRhOJaKDevfjZihq5RulNsIW5wBo96zVqvM62M86hGVNdlrK14zUC5Lf3yDoDxvOZ4bWvYXCgxgNdvyVaLXTdaMVYzV8TZLABz5gArSyHYJoIEQYoE94S9DsBzggkxFvwEPQG3dvEmw68wsYXMhygtGMYH4BEszHCVbcdBA9dtiYQMz43dDyqqNhMI-BMG6xzpVCOsnJroQ4fKNicLCLpNgqRSCYInDVib5RMUlQbG1L-Zf4AwMbj9bORr9eKusiQdE4DYw-B36eJy_kLCQjAbU1JeTVqRrAbjU3YdJ6pxFhVaj2e8ufx2NIEpf3gdhcYgxcYcIkGwmuxtQgkrUQl8_]--></g></svg>